M48
; DRILL file {KiCad (5.1.2)-1} date 5/29/2019 4:26:33 PM
; FORMAT={-:-/ absolute / inch / decimal}
; #@! TF.CreationDate,2019-05-29T16:26:33-07:00
; #@! TF.GenerationSoftware,Kicad,Pcbnew,(5.1.2)-1
FMAT,2
INCH
T1C0.0150
T2C0.0300
T3C0.0433
T4C0.2087
T5C0.0941
T6C0.1358
%
G90
G05
T1
X9.04Y-11.12
X10.73Y-10.66
X11.17Y-9.94
X11.35Y-6.68
X11.6Y-6.26
X11.92Y-9.5
X12.19Y-8.21
X13.07Y-9.75
X16.09Y-4.26
T2
X8.2Y-3.2
T3
X5.77Y-8.52
X5.77Y-8.6972
X6.0259Y-8.52
X6.0259Y-8.6972
X5.77Y-6.92
X5.77Y-7.0972
X6.0259Y-6.92
X6.0259Y-7.0972
X5.77Y-7.72
X5.77Y-7.8972
X6.0259Y-7.72
X6.0259Y-7.8972
X5.77Y-9.32
X5.77Y-9.4972
X6.0259Y-9.32
X6.0259Y-9.4972
T4
X16.7Y-13.7
X11.0Y-2.3
X5.3Y-13.7
X16.7Y-2.3
X5.3Y-2.3
X11.0Y-13.7
T5
X11.4146Y-3.515
T6
X8.9134Y-3.515
X11.0866Y-2.885
T0
M30
