G04 #@! TF.GenerationSoftware,KiCad,Pcbnew,(5.1.2)-1*
G04 #@! TF.CreationDate,2019-05-29T16:25:34-07:00*
G04 #@! TF.ProjectId,h186-final,68313836-2d66-4696-9e61-6c2e6b696361,rev?*
G04 #@! TF.SameCoordinates,Original*
G04 #@! TF.FileFunction,Legend,Bot*
G04 #@! TF.FilePolarity,Positive*
%FSLAX46Y46*%
G04 Gerber Fmt 4.6, Leading zero omitted, Abs format (unit mm)*
G04 Created by KiCad (PCBNEW (5.1.2)-1) date 2019-05-29 16:25:34*
%MOMM*%
%LPD*%
G04 APERTURE LIST*
%ADD10C,0.120000*%
%ADD11C,0.150000*%
G04 APERTURE END LIST*
D10*
X289000000Y-171941748D02*
X289000000Y-172464252D01*
X287580000Y-171941748D02*
X287580000Y-172464252D01*
X280686252Y-253186000D02*
X280163748Y-253186000D01*
X280686252Y-251766000D02*
X280163748Y-251766000D01*
X227092252Y-283158000D02*
X226569748Y-283158000D01*
X227092252Y-281738000D02*
X226569748Y-281738000D01*
X329944252Y-248360000D02*
X329421748Y-248360000D01*
X329944252Y-246940000D02*
X329421748Y-246940000D01*
X303478000Y-243841748D02*
X303478000Y-244364252D01*
X302058000Y-243841748D02*
X302058000Y-244364252D01*
X406162252Y-109676000D02*
X405639748Y-109676000D01*
X406162252Y-108256000D02*
X405639748Y-108256000D01*
X306576252Y-209244000D02*
X306053748Y-209244000D01*
X306576252Y-207824000D02*
X306053748Y-207824000D01*
X272848000Y-270018252D02*
X272848000Y-269495748D01*
X274268000Y-270018252D02*
X274268000Y-269495748D01*
X295350000Y-161527748D02*
X295350000Y-162050252D01*
X293930000Y-161527748D02*
X293930000Y-162050252D01*
D11*
X287092380Y-172036333D02*
X286616190Y-171703000D01*
X287092380Y-171464904D02*
X286092380Y-171464904D01*
X286092380Y-171845857D01*
X286140000Y-171941095D01*
X286187619Y-171988714D01*
X286282857Y-172036333D01*
X286425714Y-172036333D01*
X286520952Y-171988714D01*
X286568571Y-171941095D01*
X286616190Y-171845857D01*
X286616190Y-171464904D01*
X287092380Y-172512523D02*
X287092380Y-172703000D01*
X287044761Y-172798238D01*
X286997142Y-172845857D01*
X286854285Y-172941095D01*
X286663809Y-172988714D01*
X286282857Y-172988714D01*
X286187619Y-172941095D01*
X286140000Y-172893476D01*
X286092380Y-172798238D01*
X286092380Y-172607761D01*
X286140000Y-172512523D01*
X286187619Y-172464904D01*
X286282857Y-172417285D01*
X286520952Y-172417285D01*
X286616190Y-172464904D01*
X286663809Y-172512523D01*
X286711428Y-172607761D01*
X286711428Y-172798238D01*
X286663809Y-172893476D01*
X286616190Y-172941095D01*
X286520952Y-172988714D01*
X280591666Y-251278380D02*
X280925000Y-250802190D01*
X281163095Y-251278380D02*
X281163095Y-250278380D01*
X280782142Y-250278380D01*
X280686904Y-250326000D01*
X280639285Y-250373619D01*
X280591666Y-250468857D01*
X280591666Y-250611714D01*
X280639285Y-250706952D01*
X280686904Y-250754571D01*
X280782142Y-250802190D01*
X281163095Y-250802190D01*
X279734523Y-250278380D02*
X279925000Y-250278380D01*
X280020238Y-250326000D01*
X280067857Y-250373619D01*
X280163095Y-250516476D01*
X280210714Y-250706952D01*
X280210714Y-251087904D01*
X280163095Y-251183142D01*
X280115476Y-251230761D01*
X280020238Y-251278380D01*
X279829761Y-251278380D01*
X279734523Y-251230761D01*
X279686904Y-251183142D01*
X279639285Y-251087904D01*
X279639285Y-250849809D01*
X279686904Y-250754571D01*
X279734523Y-250706952D01*
X279829761Y-250659333D01*
X280020238Y-250659333D01*
X280115476Y-250706952D01*
X280163095Y-250754571D01*
X280210714Y-250849809D01*
X226997666Y-281250380D02*
X227331000Y-280774190D01*
X227569095Y-281250380D02*
X227569095Y-280250380D01*
X227188142Y-280250380D01*
X227092904Y-280298000D01*
X227045285Y-280345619D01*
X226997666Y-280440857D01*
X226997666Y-280583714D01*
X227045285Y-280678952D01*
X227092904Y-280726571D01*
X227188142Y-280774190D01*
X227569095Y-280774190D01*
X226664333Y-280250380D02*
X225997666Y-280250380D01*
X226426238Y-281250380D01*
X329849666Y-246452380D02*
X330183000Y-245976190D01*
X330421095Y-246452380D02*
X330421095Y-245452380D01*
X330040142Y-245452380D01*
X329944904Y-245500000D01*
X329897285Y-245547619D01*
X329849666Y-245642857D01*
X329849666Y-245785714D01*
X329897285Y-245880952D01*
X329944904Y-245928571D01*
X330040142Y-245976190D01*
X330421095Y-245976190D01*
X329278238Y-245880952D02*
X329373476Y-245833333D01*
X329421095Y-245785714D01*
X329468714Y-245690476D01*
X329468714Y-245642857D01*
X329421095Y-245547619D01*
X329373476Y-245500000D01*
X329278238Y-245452380D01*
X329087761Y-245452380D01*
X328992523Y-245500000D01*
X328944904Y-245547619D01*
X328897285Y-245642857D01*
X328897285Y-245690476D01*
X328944904Y-245785714D01*
X328992523Y-245833333D01*
X329087761Y-245880952D01*
X329278238Y-245880952D01*
X329373476Y-245928571D01*
X329421095Y-245976190D01*
X329468714Y-246071428D01*
X329468714Y-246261904D01*
X329421095Y-246357142D01*
X329373476Y-246404761D01*
X329278238Y-246452380D01*
X329087761Y-246452380D01*
X328992523Y-246404761D01*
X328944904Y-246357142D01*
X328897285Y-246261904D01*
X328897285Y-246071428D01*
X328944904Y-245976190D01*
X328992523Y-245928571D01*
X329087761Y-245880952D01*
X301570380Y-243936333D02*
X301094190Y-243603000D01*
X301570380Y-243364904D02*
X300570380Y-243364904D01*
X300570380Y-243745857D01*
X300618000Y-243841095D01*
X300665619Y-243888714D01*
X300760857Y-243936333D01*
X300903714Y-243936333D01*
X300998952Y-243888714D01*
X301046571Y-243841095D01*
X301094190Y-243745857D01*
X301094190Y-243364904D01*
X300570380Y-244841095D02*
X300570380Y-244364904D01*
X301046571Y-244317285D01*
X300998952Y-244364904D01*
X300951333Y-244460142D01*
X300951333Y-244698238D01*
X300998952Y-244793476D01*
X301046571Y-244841095D01*
X301141809Y-244888714D01*
X301379904Y-244888714D01*
X301475142Y-244841095D01*
X301522761Y-244793476D01*
X301570380Y-244698238D01*
X301570380Y-244460142D01*
X301522761Y-244364904D01*
X301475142Y-244317285D01*
X406067666Y-107768380D02*
X406401000Y-107292190D01*
X406639095Y-107768380D02*
X406639095Y-106768380D01*
X406258142Y-106768380D01*
X406162904Y-106816000D01*
X406115285Y-106863619D01*
X406067666Y-106958857D01*
X406067666Y-107101714D01*
X406115285Y-107196952D01*
X406162904Y-107244571D01*
X406258142Y-107292190D01*
X406639095Y-107292190D01*
X405210523Y-107101714D02*
X405210523Y-107768380D01*
X405448619Y-106720761D02*
X405686714Y-107435047D01*
X405067666Y-107435047D01*
X306481666Y-207336380D02*
X306815000Y-206860190D01*
X307053095Y-207336380D02*
X307053095Y-206336380D01*
X306672142Y-206336380D01*
X306576904Y-206384000D01*
X306529285Y-206431619D01*
X306481666Y-206526857D01*
X306481666Y-206669714D01*
X306529285Y-206764952D01*
X306576904Y-206812571D01*
X306672142Y-206860190D01*
X307053095Y-206860190D01*
X306148333Y-206336380D02*
X305529285Y-206336380D01*
X305862619Y-206717333D01*
X305719761Y-206717333D01*
X305624523Y-206764952D01*
X305576904Y-206812571D01*
X305529285Y-206907809D01*
X305529285Y-207145904D01*
X305576904Y-207241142D01*
X305624523Y-207288761D01*
X305719761Y-207336380D01*
X306005476Y-207336380D01*
X306100714Y-207288761D01*
X306148333Y-207241142D01*
X275660380Y-269590333D02*
X275184190Y-269257000D01*
X275660380Y-269018904D02*
X274660380Y-269018904D01*
X274660380Y-269399857D01*
X274708000Y-269495095D01*
X274755619Y-269542714D01*
X274850857Y-269590333D01*
X274993714Y-269590333D01*
X275088952Y-269542714D01*
X275136571Y-269495095D01*
X275184190Y-269399857D01*
X275184190Y-269018904D01*
X274755619Y-269971285D02*
X274708000Y-270018904D01*
X274660380Y-270114142D01*
X274660380Y-270352238D01*
X274708000Y-270447476D01*
X274755619Y-270495095D01*
X274850857Y-270542714D01*
X274946095Y-270542714D01*
X275088952Y-270495095D01*
X275660380Y-269923666D01*
X275660380Y-270542714D01*
X293442380Y-161622333D02*
X292966190Y-161289000D01*
X293442380Y-161050904D02*
X292442380Y-161050904D01*
X292442380Y-161431857D01*
X292490000Y-161527095D01*
X292537619Y-161574714D01*
X292632857Y-161622333D01*
X292775714Y-161622333D01*
X292870952Y-161574714D01*
X292918571Y-161527095D01*
X292966190Y-161431857D01*
X292966190Y-161050904D01*
X293442380Y-162574714D02*
X293442380Y-162003285D01*
X293442380Y-162289000D02*
X292442380Y-162289000D01*
X292585238Y-162193761D01*
X292680476Y-162098523D01*
X292728095Y-162003285D01*
M02*
