G04 #@! TF.GenerationSoftware,KiCad,Pcbnew,(5.1.2)-1*
G04 #@! TF.CreationDate,2019-05-29T16:25:33-07:00*
G04 #@! TF.ProjectId,h186-final,68313836-2d66-4696-9e61-6c2e6b696361,rev?*
G04 #@! TF.SameCoordinates,Original*
G04 #@! TF.FileFunction,Copper,L2,Bot*
G04 #@! TF.FilePolarity,Positive*
%FSLAX46Y46*%
G04 Gerber Fmt 4.6, Leading zero omitted, Abs format (unit mm)*
G04 Created by KiCad (PCBNEW (5.1.2)-1) date 2019-05-29 16:25:33*
%MOMM*%
%LPD*%
G04 APERTURE LIST*
%ADD10C,0.100000*%
%ADD11C,1.150000*%
%ADD12C,2.000000*%
%ADD13C,9.500000*%
%ADD14C,1.270000*%
%ADD15C,0.762000*%
%ADD16C,0.508000*%
%ADD17C,0.254000*%
G04 APERTURE END LIST*
D10*
G36*
X288764505Y-172654204D02*
G01*
X288788773Y-172657804D01*
X288812572Y-172663765D01*
X288835671Y-172672030D01*
X288857850Y-172682520D01*
X288878893Y-172695132D01*
X288898599Y-172709747D01*
X288916777Y-172726223D01*
X288933253Y-172744401D01*
X288947868Y-172764107D01*
X288960480Y-172785150D01*
X288970970Y-172807329D01*
X288979235Y-172830428D01*
X288985196Y-172854227D01*
X288988796Y-172878495D01*
X288990000Y-172902999D01*
X288990000Y-173553001D01*
X288988796Y-173577505D01*
X288985196Y-173601773D01*
X288979235Y-173625572D01*
X288970970Y-173648671D01*
X288960480Y-173670850D01*
X288947868Y-173691893D01*
X288933253Y-173711599D01*
X288916777Y-173729777D01*
X288898599Y-173746253D01*
X288878893Y-173760868D01*
X288857850Y-173773480D01*
X288835671Y-173783970D01*
X288812572Y-173792235D01*
X288788773Y-173798196D01*
X288764505Y-173801796D01*
X288740001Y-173803000D01*
X287839999Y-173803000D01*
X287815495Y-173801796D01*
X287791227Y-173798196D01*
X287767428Y-173792235D01*
X287744329Y-173783970D01*
X287722150Y-173773480D01*
X287701107Y-173760868D01*
X287681401Y-173746253D01*
X287663223Y-173729777D01*
X287646747Y-173711599D01*
X287632132Y-173691893D01*
X287619520Y-173670850D01*
X287609030Y-173648671D01*
X287600765Y-173625572D01*
X287594804Y-173601773D01*
X287591204Y-173577505D01*
X287590000Y-173553001D01*
X287590000Y-172902999D01*
X287591204Y-172878495D01*
X287594804Y-172854227D01*
X287600765Y-172830428D01*
X287609030Y-172807329D01*
X287619520Y-172785150D01*
X287632132Y-172764107D01*
X287646747Y-172744401D01*
X287663223Y-172726223D01*
X287681401Y-172709747D01*
X287701107Y-172695132D01*
X287722150Y-172682520D01*
X287744329Y-172672030D01*
X287767428Y-172663765D01*
X287791227Y-172657804D01*
X287815495Y-172654204D01*
X287839999Y-172653000D01*
X288740001Y-172653000D01*
X288764505Y-172654204D01*
X288764505Y-172654204D01*
G37*
D11*
X288290000Y-173228000D03*
D10*
G36*
X288764505Y-170604204D02*
G01*
X288788773Y-170607804D01*
X288812572Y-170613765D01*
X288835671Y-170622030D01*
X288857850Y-170632520D01*
X288878893Y-170645132D01*
X288898599Y-170659747D01*
X288916777Y-170676223D01*
X288933253Y-170694401D01*
X288947868Y-170714107D01*
X288960480Y-170735150D01*
X288970970Y-170757329D01*
X288979235Y-170780428D01*
X288985196Y-170804227D01*
X288988796Y-170828495D01*
X288990000Y-170852999D01*
X288990000Y-171503001D01*
X288988796Y-171527505D01*
X288985196Y-171551773D01*
X288979235Y-171575572D01*
X288970970Y-171598671D01*
X288960480Y-171620850D01*
X288947868Y-171641893D01*
X288933253Y-171661599D01*
X288916777Y-171679777D01*
X288898599Y-171696253D01*
X288878893Y-171710868D01*
X288857850Y-171723480D01*
X288835671Y-171733970D01*
X288812572Y-171742235D01*
X288788773Y-171748196D01*
X288764505Y-171751796D01*
X288740001Y-171753000D01*
X287839999Y-171753000D01*
X287815495Y-171751796D01*
X287791227Y-171748196D01*
X287767428Y-171742235D01*
X287744329Y-171733970D01*
X287722150Y-171723480D01*
X287701107Y-171710868D01*
X287681401Y-171696253D01*
X287663223Y-171679777D01*
X287646747Y-171661599D01*
X287632132Y-171641893D01*
X287619520Y-171620850D01*
X287609030Y-171598671D01*
X287600765Y-171575572D01*
X287594804Y-171551773D01*
X287591204Y-171527505D01*
X287590000Y-171503001D01*
X287590000Y-170852999D01*
X287591204Y-170828495D01*
X287594804Y-170804227D01*
X287600765Y-170780428D01*
X287609030Y-170757329D01*
X287619520Y-170735150D01*
X287632132Y-170714107D01*
X287646747Y-170694401D01*
X287663223Y-170676223D01*
X287681401Y-170659747D01*
X287701107Y-170645132D01*
X287722150Y-170632520D01*
X287744329Y-170622030D01*
X287767428Y-170613765D01*
X287791227Y-170607804D01*
X287815495Y-170604204D01*
X287839999Y-170603000D01*
X288740001Y-170603000D01*
X288764505Y-170604204D01*
X288764505Y-170604204D01*
G37*
D11*
X288290000Y-171178000D03*
D10*
G36*
X279749505Y-251777204D02*
G01*
X279773773Y-251780804D01*
X279797572Y-251786765D01*
X279820671Y-251795030D01*
X279842850Y-251805520D01*
X279863893Y-251818132D01*
X279883599Y-251832747D01*
X279901777Y-251849223D01*
X279918253Y-251867401D01*
X279932868Y-251887107D01*
X279945480Y-251908150D01*
X279955970Y-251930329D01*
X279964235Y-251953428D01*
X279970196Y-251977227D01*
X279973796Y-252001495D01*
X279975000Y-252025999D01*
X279975000Y-252926001D01*
X279973796Y-252950505D01*
X279970196Y-252974773D01*
X279964235Y-252998572D01*
X279955970Y-253021671D01*
X279945480Y-253043850D01*
X279932868Y-253064893D01*
X279918253Y-253084599D01*
X279901777Y-253102777D01*
X279883599Y-253119253D01*
X279863893Y-253133868D01*
X279842850Y-253146480D01*
X279820671Y-253156970D01*
X279797572Y-253165235D01*
X279773773Y-253171196D01*
X279749505Y-253174796D01*
X279725001Y-253176000D01*
X279074999Y-253176000D01*
X279050495Y-253174796D01*
X279026227Y-253171196D01*
X279002428Y-253165235D01*
X278979329Y-253156970D01*
X278957150Y-253146480D01*
X278936107Y-253133868D01*
X278916401Y-253119253D01*
X278898223Y-253102777D01*
X278881747Y-253084599D01*
X278867132Y-253064893D01*
X278854520Y-253043850D01*
X278844030Y-253021671D01*
X278835765Y-252998572D01*
X278829804Y-252974773D01*
X278826204Y-252950505D01*
X278825000Y-252926001D01*
X278825000Y-252025999D01*
X278826204Y-252001495D01*
X278829804Y-251977227D01*
X278835765Y-251953428D01*
X278844030Y-251930329D01*
X278854520Y-251908150D01*
X278867132Y-251887107D01*
X278881747Y-251867401D01*
X278898223Y-251849223D01*
X278916401Y-251832747D01*
X278936107Y-251818132D01*
X278957150Y-251805520D01*
X278979329Y-251795030D01*
X279002428Y-251786765D01*
X279026227Y-251780804D01*
X279050495Y-251777204D01*
X279074999Y-251776000D01*
X279725001Y-251776000D01*
X279749505Y-251777204D01*
X279749505Y-251777204D01*
G37*
D11*
X279400000Y-252476000D03*
D10*
G36*
X281799505Y-251777204D02*
G01*
X281823773Y-251780804D01*
X281847572Y-251786765D01*
X281870671Y-251795030D01*
X281892850Y-251805520D01*
X281913893Y-251818132D01*
X281933599Y-251832747D01*
X281951777Y-251849223D01*
X281968253Y-251867401D01*
X281982868Y-251887107D01*
X281995480Y-251908150D01*
X282005970Y-251930329D01*
X282014235Y-251953428D01*
X282020196Y-251977227D01*
X282023796Y-252001495D01*
X282025000Y-252025999D01*
X282025000Y-252926001D01*
X282023796Y-252950505D01*
X282020196Y-252974773D01*
X282014235Y-252998572D01*
X282005970Y-253021671D01*
X281995480Y-253043850D01*
X281982868Y-253064893D01*
X281968253Y-253084599D01*
X281951777Y-253102777D01*
X281933599Y-253119253D01*
X281913893Y-253133868D01*
X281892850Y-253146480D01*
X281870671Y-253156970D01*
X281847572Y-253165235D01*
X281823773Y-253171196D01*
X281799505Y-253174796D01*
X281775001Y-253176000D01*
X281124999Y-253176000D01*
X281100495Y-253174796D01*
X281076227Y-253171196D01*
X281052428Y-253165235D01*
X281029329Y-253156970D01*
X281007150Y-253146480D01*
X280986107Y-253133868D01*
X280966401Y-253119253D01*
X280948223Y-253102777D01*
X280931747Y-253084599D01*
X280917132Y-253064893D01*
X280904520Y-253043850D01*
X280894030Y-253021671D01*
X280885765Y-252998572D01*
X280879804Y-252974773D01*
X280876204Y-252950505D01*
X280875000Y-252926001D01*
X280875000Y-252025999D01*
X280876204Y-252001495D01*
X280879804Y-251977227D01*
X280885765Y-251953428D01*
X280894030Y-251930329D01*
X280904520Y-251908150D01*
X280917132Y-251887107D01*
X280931747Y-251867401D01*
X280948223Y-251849223D01*
X280966401Y-251832747D01*
X280986107Y-251818132D01*
X281007150Y-251805520D01*
X281029329Y-251795030D01*
X281052428Y-251786765D01*
X281076227Y-251780804D01*
X281100495Y-251777204D01*
X281124999Y-251776000D01*
X281775001Y-251776000D01*
X281799505Y-251777204D01*
X281799505Y-251777204D01*
G37*
D11*
X281450000Y-252476000D03*
D10*
G36*
X226155505Y-281749204D02*
G01*
X226179773Y-281752804D01*
X226203572Y-281758765D01*
X226226671Y-281767030D01*
X226248850Y-281777520D01*
X226269893Y-281790132D01*
X226289599Y-281804747D01*
X226307777Y-281821223D01*
X226324253Y-281839401D01*
X226338868Y-281859107D01*
X226351480Y-281880150D01*
X226361970Y-281902329D01*
X226370235Y-281925428D01*
X226376196Y-281949227D01*
X226379796Y-281973495D01*
X226381000Y-281997999D01*
X226381000Y-282898001D01*
X226379796Y-282922505D01*
X226376196Y-282946773D01*
X226370235Y-282970572D01*
X226361970Y-282993671D01*
X226351480Y-283015850D01*
X226338868Y-283036893D01*
X226324253Y-283056599D01*
X226307777Y-283074777D01*
X226289599Y-283091253D01*
X226269893Y-283105868D01*
X226248850Y-283118480D01*
X226226671Y-283128970D01*
X226203572Y-283137235D01*
X226179773Y-283143196D01*
X226155505Y-283146796D01*
X226131001Y-283148000D01*
X225480999Y-283148000D01*
X225456495Y-283146796D01*
X225432227Y-283143196D01*
X225408428Y-283137235D01*
X225385329Y-283128970D01*
X225363150Y-283118480D01*
X225342107Y-283105868D01*
X225322401Y-283091253D01*
X225304223Y-283074777D01*
X225287747Y-283056599D01*
X225273132Y-283036893D01*
X225260520Y-283015850D01*
X225250030Y-282993671D01*
X225241765Y-282970572D01*
X225235804Y-282946773D01*
X225232204Y-282922505D01*
X225231000Y-282898001D01*
X225231000Y-281997999D01*
X225232204Y-281973495D01*
X225235804Y-281949227D01*
X225241765Y-281925428D01*
X225250030Y-281902329D01*
X225260520Y-281880150D01*
X225273132Y-281859107D01*
X225287747Y-281839401D01*
X225304223Y-281821223D01*
X225322401Y-281804747D01*
X225342107Y-281790132D01*
X225363150Y-281777520D01*
X225385329Y-281767030D01*
X225408428Y-281758765D01*
X225432227Y-281752804D01*
X225456495Y-281749204D01*
X225480999Y-281748000D01*
X226131001Y-281748000D01*
X226155505Y-281749204D01*
X226155505Y-281749204D01*
G37*
D11*
X225806000Y-282448000D03*
D10*
G36*
X228205505Y-281749204D02*
G01*
X228229773Y-281752804D01*
X228253572Y-281758765D01*
X228276671Y-281767030D01*
X228298850Y-281777520D01*
X228319893Y-281790132D01*
X228339599Y-281804747D01*
X228357777Y-281821223D01*
X228374253Y-281839401D01*
X228388868Y-281859107D01*
X228401480Y-281880150D01*
X228411970Y-281902329D01*
X228420235Y-281925428D01*
X228426196Y-281949227D01*
X228429796Y-281973495D01*
X228431000Y-281997999D01*
X228431000Y-282898001D01*
X228429796Y-282922505D01*
X228426196Y-282946773D01*
X228420235Y-282970572D01*
X228411970Y-282993671D01*
X228401480Y-283015850D01*
X228388868Y-283036893D01*
X228374253Y-283056599D01*
X228357777Y-283074777D01*
X228339599Y-283091253D01*
X228319893Y-283105868D01*
X228298850Y-283118480D01*
X228276671Y-283128970D01*
X228253572Y-283137235D01*
X228229773Y-283143196D01*
X228205505Y-283146796D01*
X228181001Y-283148000D01*
X227530999Y-283148000D01*
X227506495Y-283146796D01*
X227482227Y-283143196D01*
X227458428Y-283137235D01*
X227435329Y-283128970D01*
X227413150Y-283118480D01*
X227392107Y-283105868D01*
X227372401Y-283091253D01*
X227354223Y-283074777D01*
X227337747Y-283056599D01*
X227323132Y-283036893D01*
X227310520Y-283015850D01*
X227300030Y-282993671D01*
X227291765Y-282970572D01*
X227285804Y-282946773D01*
X227282204Y-282922505D01*
X227281000Y-282898001D01*
X227281000Y-281997999D01*
X227282204Y-281973495D01*
X227285804Y-281949227D01*
X227291765Y-281925428D01*
X227300030Y-281902329D01*
X227310520Y-281880150D01*
X227323132Y-281859107D01*
X227337747Y-281839401D01*
X227354223Y-281821223D01*
X227372401Y-281804747D01*
X227392107Y-281790132D01*
X227413150Y-281777520D01*
X227435329Y-281767030D01*
X227458428Y-281758765D01*
X227482227Y-281752804D01*
X227506495Y-281749204D01*
X227530999Y-281748000D01*
X228181001Y-281748000D01*
X228205505Y-281749204D01*
X228205505Y-281749204D01*
G37*
D11*
X227856000Y-282448000D03*
D12*
X153058000Y-236728000D03*
X153058000Y-241228000D03*
X146558000Y-236728000D03*
X146558000Y-241228000D03*
D10*
G36*
X329007505Y-246951204D02*
G01*
X329031773Y-246954804D01*
X329055572Y-246960765D01*
X329078671Y-246969030D01*
X329100850Y-246979520D01*
X329121893Y-246992132D01*
X329141599Y-247006747D01*
X329159777Y-247023223D01*
X329176253Y-247041401D01*
X329190868Y-247061107D01*
X329203480Y-247082150D01*
X329213970Y-247104329D01*
X329222235Y-247127428D01*
X329228196Y-247151227D01*
X329231796Y-247175495D01*
X329233000Y-247199999D01*
X329233000Y-248100001D01*
X329231796Y-248124505D01*
X329228196Y-248148773D01*
X329222235Y-248172572D01*
X329213970Y-248195671D01*
X329203480Y-248217850D01*
X329190868Y-248238893D01*
X329176253Y-248258599D01*
X329159777Y-248276777D01*
X329141599Y-248293253D01*
X329121893Y-248307868D01*
X329100850Y-248320480D01*
X329078671Y-248330970D01*
X329055572Y-248339235D01*
X329031773Y-248345196D01*
X329007505Y-248348796D01*
X328983001Y-248350000D01*
X328332999Y-248350000D01*
X328308495Y-248348796D01*
X328284227Y-248345196D01*
X328260428Y-248339235D01*
X328237329Y-248330970D01*
X328215150Y-248320480D01*
X328194107Y-248307868D01*
X328174401Y-248293253D01*
X328156223Y-248276777D01*
X328139747Y-248258599D01*
X328125132Y-248238893D01*
X328112520Y-248217850D01*
X328102030Y-248195671D01*
X328093765Y-248172572D01*
X328087804Y-248148773D01*
X328084204Y-248124505D01*
X328083000Y-248100001D01*
X328083000Y-247199999D01*
X328084204Y-247175495D01*
X328087804Y-247151227D01*
X328093765Y-247127428D01*
X328102030Y-247104329D01*
X328112520Y-247082150D01*
X328125132Y-247061107D01*
X328139747Y-247041401D01*
X328156223Y-247023223D01*
X328174401Y-247006747D01*
X328194107Y-246992132D01*
X328215150Y-246979520D01*
X328237329Y-246969030D01*
X328260428Y-246960765D01*
X328284227Y-246954804D01*
X328308495Y-246951204D01*
X328332999Y-246950000D01*
X328983001Y-246950000D01*
X329007505Y-246951204D01*
X329007505Y-246951204D01*
G37*
D11*
X328658000Y-247650000D03*
D10*
G36*
X331057505Y-246951204D02*
G01*
X331081773Y-246954804D01*
X331105572Y-246960765D01*
X331128671Y-246969030D01*
X331150850Y-246979520D01*
X331171893Y-246992132D01*
X331191599Y-247006747D01*
X331209777Y-247023223D01*
X331226253Y-247041401D01*
X331240868Y-247061107D01*
X331253480Y-247082150D01*
X331263970Y-247104329D01*
X331272235Y-247127428D01*
X331278196Y-247151227D01*
X331281796Y-247175495D01*
X331283000Y-247199999D01*
X331283000Y-248100001D01*
X331281796Y-248124505D01*
X331278196Y-248148773D01*
X331272235Y-248172572D01*
X331263970Y-248195671D01*
X331253480Y-248217850D01*
X331240868Y-248238893D01*
X331226253Y-248258599D01*
X331209777Y-248276777D01*
X331191599Y-248293253D01*
X331171893Y-248307868D01*
X331150850Y-248320480D01*
X331128671Y-248330970D01*
X331105572Y-248339235D01*
X331081773Y-248345196D01*
X331057505Y-248348796D01*
X331033001Y-248350000D01*
X330382999Y-248350000D01*
X330358495Y-248348796D01*
X330334227Y-248345196D01*
X330310428Y-248339235D01*
X330287329Y-248330970D01*
X330265150Y-248320480D01*
X330244107Y-248307868D01*
X330224401Y-248293253D01*
X330206223Y-248276777D01*
X330189747Y-248258599D01*
X330175132Y-248238893D01*
X330162520Y-248217850D01*
X330152030Y-248195671D01*
X330143765Y-248172572D01*
X330137804Y-248148773D01*
X330134204Y-248124505D01*
X330133000Y-248100001D01*
X330133000Y-247199999D01*
X330134204Y-247175495D01*
X330137804Y-247151227D01*
X330143765Y-247127428D01*
X330152030Y-247104329D01*
X330162520Y-247082150D01*
X330175132Y-247061107D01*
X330189747Y-247041401D01*
X330206223Y-247023223D01*
X330224401Y-247006747D01*
X330244107Y-246992132D01*
X330265150Y-246979520D01*
X330287329Y-246969030D01*
X330310428Y-246960765D01*
X330334227Y-246954804D01*
X330358495Y-246951204D01*
X330382999Y-246950000D01*
X331033001Y-246950000D01*
X331057505Y-246951204D01*
X331057505Y-246951204D01*
G37*
D11*
X330708000Y-247650000D03*
D10*
G36*
X303242505Y-244554204D02*
G01*
X303266773Y-244557804D01*
X303290572Y-244563765D01*
X303313671Y-244572030D01*
X303335850Y-244582520D01*
X303356893Y-244595132D01*
X303376599Y-244609747D01*
X303394777Y-244626223D01*
X303411253Y-244644401D01*
X303425868Y-244664107D01*
X303438480Y-244685150D01*
X303448970Y-244707329D01*
X303457235Y-244730428D01*
X303463196Y-244754227D01*
X303466796Y-244778495D01*
X303468000Y-244802999D01*
X303468000Y-245453001D01*
X303466796Y-245477505D01*
X303463196Y-245501773D01*
X303457235Y-245525572D01*
X303448970Y-245548671D01*
X303438480Y-245570850D01*
X303425868Y-245591893D01*
X303411253Y-245611599D01*
X303394777Y-245629777D01*
X303376599Y-245646253D01*
X303356893Y-245660868D01*
X303335850Y-245673480D01*
X303313671Y-245683970D01*
X303290572Y-245692235D01*
X303266773Y-245698196D01*
X303242505Y-245701796D01*
X303218001Y-245703000D01*
X302317999Y-245703000D01*
X302293495Y-245701796D01*
X302269227Y-245698196D01*
X302245428Y-245692235D01*
X302222329Y-245683970D01*
X302200150Y-245673480D01*
X302179107Y-245660868D01*
X302159401Y-245646253D01*
X302141223Y-245629777D01*
X302124747Y-245611599D01*
X302110132Y-245591893D01*
X302097520Y-245570850D01*
X302087030Y-245548671D01*
X302078765Y-245525572D01*
X302072804Y-245501773D01*
X302069204Y-245477505D01*
X302068000Y-245453001D01*
X302068000Y-244802999D01*
X302069204Y-244778495D01*
X302072804Y-244754227D01*
X302078765Y-244730428D01*
X302087030Y-244707329D01*
X302097520Y-244685150D01*
X302110132Y-244664107D01*
X302124747Y-244644401D01*
X302141223Y-244626223D01*
X302159401Y-244609747D01*
X302179107Y-244595132D01*
X302200150Y-244582520D01*
X302222329Y-244572030D01*
X302245428Y-244563765D01*
X302269227Y-244557804D01*
X302293495Y-244554204D01*
X302317999Y-244553000D01*
X303218001Y-244553000D01*
X303242505Y-244554204D01*
X303242505Y-244554204D01*
G37*
D11*
X302768000Y-245128000D03*
D10*
G36*
X303242505Y-242504204D02*
G01*
X303266773Y-242507804D01*
X303290572Y-242513765D01*
X303313671Y-242522030D01*
X303335850Y-242532520D01*
X303356893Y-242545132D01*
X303376599Y-242559747D01*
X303394777Y-242576223D01*
X303411253Y-242594401D01*
X303425868Y-242614107D01*
X303438480Y-242635150D01*
X303448970Y-242657329D01*
X303457235Y-242680428D01*
X303463196Y-242704227D01*
X303466796Y-242728495D01*
X303468000Y-242752999D01*
X303468000Y-243403001D01*
X303466796Y-243427505D01*
X303463196Y-243451773D01*
X303457235Y-243475572D01*
X303448970Y-243498671D01*
X303438480Y-243520850D01*
X303425868Y-243541893D01*
X303411253Y-243561599D01*
X303394777Y-243579777D01*
X303376599Y-243596253D01*
X303356893Y-243610868D01*
X303335850Y-243623480D01*
X303313671Y-243633970D01*
X303290572Y-243642235D01*
X303266773Y-243648196D01*
X303242505Y-243651796D01*
X303218001Y-243653000D01*
X302317999Y-243653000D01*
X302293495Y-243651796D01*
X302269227Y-243648196D01*
X302245428Y-243642235D01*
X302222329Y-243633970D01*
X302200150Y-243623480D01*
X302179107Y-243610868D01*
X302159401Y-243596253D01*
X302141223Y-243579777D01*
X302124747Y-243561599D01*
X302110132Y-243541893D01*
X302097520Y-243520850D01*
X302087030Y-243498671D01*
X302078765Y-243475572D01*
X302072804Y-243451773D01*
X302069204Y-243427505D01*
X302068000Y-243403001D01*
X302068000Y-242752999D01*
X302069204Y-242728495D01*
X302072804Y-242704227D01*
X302078765Y-242680428D01*
X302087030Y-242657329D01*
X302097520Y-242635150D01*
X302110132Y-242614107D01*
X302124747Y-242594401D01*
X302141223Y-242576223D01*
X302159401Y-242559747D01*
X302179107Y-242545132D01*
X302200150Y-242532520D01*
X302222329Y-242522030D01*
X302245428Y-242513765D01*
X302269227Y-242507804D01*
X302293495Y-242504204D01*
X302317999Y-242503000D01*
X303218001Y-242503000D01*
X303242505Y-242504204D01*
X303242505Y-242504204D01*
G37*
D11*
X302768000Y-243078000D03*
D12*
X153058000Y-196088000D03*
X153058000Y-200588000D03*
X146558000Y-196088000D03*
X146558000Y-200588000D03*
D10*
G36*
X405225505Y-108267204D02*
G01*
X405249773Y-108270804D01*
X405273572Y-108276765D01*
X405296671Y-108285030D01*
X405318850Y-108295520D01*
X405339893Y-108308132D01*
X405359599Y-108322747D01*
X405377777Y-108339223D01*
X405394253Y-108357401D01*
X405408868Y-108377107D01*
X405421480Y-108398150D01*
X405431970Y-108420329D01*
X405440235Y-108443428D01*
X405446196Y-108467227D01*
X405449796Y-108491495D01*
X405451000Y-108515999D01*
X405451000Y-109416001D01*
X405449796Y-109440505D01*
X405446196Y-109464773D01*
X405440235Y-109488572D01*
X405431970Y-109511671D01*
X405421480Y-109533850D01*
X405408868Y-109554893D01*
X405394253Y-109574599D01*
X405377777Y-109592777D01*
X405359599Y-109609253D01*
X405339893Y-109623868D01*
X405318850Y-109636480D01*
X405296671Y-109646970D01*
X405273572Y-109655235D01*
X405249773Y-109661196D01*
X405225505Y-109664796D01*
X405201001Y-109666000D01*
X404550999Y-109666000D01*
X404526495Y-109664796D01*
X404502227Y-109661196D01*
X404478428Y-109655235D01*
X404455329Y-109646970D01*
X404433150Y-109636480D01*
X404412107Y-109623868D01*
X404392401Y-109609253D01*
X404374223Y-109592777D01*
X404357747Y-109574599D01*
X404343132Y-109554893D01*
X404330520Y-109533850D01*
X404320030Y-109511671D01*
X404311765Y-109488572D01*
X404305804Y-109464773D01*
X404302204Y-109440505D01*
X404301000Y-109416001D01*
X404301000Y-108515999D01*
X404302204Y-108491495D01*
X404305804Y-108467227D01*
X404311765Y-108443428D01*
X404320030Y-108420329D01*
X404330520Y-108398150D01*
X404343132Y-108377107D01*
X404357747Y-108357401D01*
X404374223Y-108339223D01*
X404392401Y-108322747D01*
X404412107Y-108308132D01*
X404433150Y-108295520D01*
X404455329Y-108285030D01*
X404478428Y-108276765D01*
X404502227Y-108270804D01*
X404526495Y-108267204D01*
X404550999Y-108266000D01*
X405201001Y-108266000D01*
X405225505Y-108267204D01*
X405225505Y-108267204D01*
G37*
D11*
X404876000Y-108966000D03*
D10*
G36*
X407275505Y-108267204D02*
G01*
X407299773Y-108270804D01*
X407323572Y-108276765D01*
X407346671Y-108285030D01*
X407368850Y-108295520D01*
X407389893Y-108308132D01*
X407409599Y-108322747D01*
X407427777Y-108339223D01*
X407444253Y-108357401D01*
X407458868Y-108377107D01*
X407471480Y-108398150D01*
X407481970Y-108420329D01*
X407490235Y-108443428D01*
X407496196Y-108467227D01*
X407499796Y-108491495D01*
X407501000Y-108515999D01*
X407501000Y-109416001D01*
X407499796Y-109440505D01*
X407496196Y-109464773D01*
X407490235Y-109488572D01*
X407481970Y-109511671D01*
X407471480Y-109533850D01*
X407458868Y-109554893D01*
X407444253Y-109574599D01*
X407427777Y-109592777D01*
X407409599Y-109609253D01*
X407389893Y-109623868D01*
X407368850Y-109636480D01*
X407346671Y-109646970D01*
X407323572Y-109655235D01*
X407299773Y-109661196D01*
X407275505Y-109664796D01*
X407251001Y-109666000D01*
X406600999Y-109666000D01*
X406576495Y-109664796D01*
X406552227Y-109661196D01*
X406528428Y-109655235D01*
X406505329Y-109646970D01*
X406483150Y-109636480D01*
X406462107Y-109623868D01*
X406442401Y-109609253D01*
X406424223Y-109592777D01*
X406407747Y-109574599D01*
X406393132Y-109554893D01*
X406380520Y-109533850D01*
X406370030Y-109511671D01*
X406361765Y-109488572D01*
X406355804Y-109464773D01*
X406352204Y-109440505D01*
X406351000Y-109416001D01*
X406351000Y-108515999D01*
X406352204Y-108491495D01*
X406355804Y-108467227D01*
X406361765Y-108443428D01*
X406370030Y-108420329D01*
X406380520Y-108398150D01*
X406393132Y-108377107D01*
X406407747Y-108357401D01*
X406424223Y-108339223D01*
X406442401Y-108322747D01*
X406462107Y-108308132D01*
X406483150Y-108295520D01*
X406505329Y-108285030D01*
X406528428Y-108276765D01*
X406552227Y-108270804D01*
X406576495Y-108267204D01*
X406600999Y-108266000D01*
X407251001Y-108266000D01*
X407275505Y-108267204D01*
X407275505Y-108267204D01*
G37*
D11*
X406926000Y-108966000D03*
D10*
G36*
X305639505Y-207835204D02*
G01*
X305663773Y-207838804D01*
X305687572Y-207844765D01*
X305710671Y-207853030D01*
X305732850Y-207863520D01*
X305753893Y-207876132D01*
X305773599Y-207890747D01*
X305791777Y-207907223D01*
X305808253Y-207925401D01*
X305822868Y-207945107D01*
X305835480Y-207966150D01*
X305845970Y-207988329D01*
X305854235Y-208011428D01*
X305860196Y-208035227D01*
X305863796Y-208059495D01*
X305865000Y-208083999D01*
X305865000Y-208984001D01*
X305863796Y-209008505D01*
X305860196Y-209032773D01*
X305854235Y-209056572D01*
X305845970Y-209079671D01*
X305835480Y-209101850D01*
X305822868Y-209122893D01*
X305808253Y-209142599D01*
X305791777Y-209160777D01*
X305773599Y-209177253D01*
X305753893Y-209191868D01*
X305732850Y-209204480D01*
X305710671Y-209214970D01*
X305687572Y-209223235D01*
X305663773Y-209229196D01*
X305639505Y-209232796D01*
X305615001Y-209234000D01*
X304964999Y-209234000D01*
X304940495Y-209232796D01*
X304916227Y-209229196D01*
X304892428Y-209223235D01*
X304869329Y-209214970D01*
X304847150Y-209204480D01*
X304826107Y-209191868D01*
X304806401Y-209177253D01*
X304788223Y-209160777D01*
X304771747Y-209142599D01*
X304757132Y-209122893D01*
X304744520Y-209101850D01*
X304734030Y-209079671D01*
X304725765Y-209056572D01*
X304719804Y-209032773D01*
X304716204Y-209008505D01*
X304715000Y-208984001D01*
X304715000Y-208083999D01*
X304716204Y-208059495D01*
X304719804Y-208035227D01*
X304725765Y-208011428D01*
X304734030Y-207988329D01*
X304744520Y-207966150D01*
X304757132Y-207945107D01*
X304771747Y-207925401D01*
X304788223Y-207907223D01*
X304806401Y-207890747D01*
X304826107Y-207876132D01*
X304847150Y-207863520D01*
X304869329Y-207853030D01*
X304892428Y-207844765D01*
X304916227Y-207838804D01*
X304940495Y-207835204D01*
X304964999Y-207834000D01*
X305615001Y-207834000D01*
X305639505Y-207835204D01*
X305639505Y-207835204D01*
G37*
D11*
X305290000Y-208534000D03*
D10*
G36*
X307689505Y-207835204D02*
G01*
X307713773Y-207838804D01*
X307737572Y-207844765D01*
X307760671Y-207853030D01*
X307782850Y-207863520D01*
X307803893Y-207876132D01*
X307823599Y-207890747D01*
X307841777Y-207907223D01*
X307858253Y-207925401D01*
X307872868Y-207945107D01*
X307885480Y-207966150D01*
X307895970Y-207988329D01*
X307904235Y-208011428D01*
X307910196Y-208035227D01*
X307913796Y-208059495D01*
X307915000Y-208083999D01*
X307915000Y-208984001D01*
X307913796Y-209008505D01*
X307910196Y-209032773D01*
X307904235Y-209056572D01*
X307895970Y-209079671D01*
X307885480Y-209101850D01*
X307872868Y-209122893D01*
X307858253Y-209142599D01*
X307841777Y-209160777D01*
X307823599Y-209177253D01*
X307803893Y-209191868D01*
X307782850Y-209204480D01*
X307760671Y-209214970D01*
X307737572Y-209223235D01*
X307713773Y-209229196D01*
X307689505Y-209232796D01*
X307665001Y-209234000D01*
X307014999Y-209234000D01*
X306990495Y-209232796D01*
X306966227Y-209229196D01*
X306942428Y-209223235D01*
X306919329Y-209214970D01*
X306897150Y-209204480D01*
X306876107Y-209191868D01*
X306856401Y-209177253D01*
X306838223Y-209160777D01*
X306821747Y-209142599D01*
X306807132Y-209122893D01*
X306794520Y-209101850D01*
X306784030Y-209079671D01*
X306775765Y-209056572D01*
X306769804Y-209032773D01*
X306766204Y-209008505D01*
X306765000Y-208984001D01*
X306765000Y-208083999D01*
X306766204Y-208059495D01*
X306769804Y-208035227D01*
X306775765Y-208011428D01*
X306784030Y-207988329D01*
X306794520Y-207966150D01*
X306807132Y-207945107D01*
X306821747Y-207925401D01*
X306838223Y-207907223D01*
X306856401Y-207890747D01*
X306876107Y-207876132D01*
X306897150Y-207863520D01*
X306919329Y-207853030D01*
X306942428Y-207844765D01*
X306966227Y-207838804D01*
X306990495Y-207835204D01*
X307014999Y-207834000D01*
X307665001Y-207834000D01*
X307689505Y-207835204D01*
X307689505Y-207835204D01*
G37*
D11*
X307340000Y-208534000D03*
D13*
X134620000Y-347980000D03*
X279400000Y-347980000D03*
X424180000Y-347980000D03*
X424180000Y-58420000D03*
X279400000Y-58420000D03*
X134620000Y-58420000D03*
D12*
X153058000Y-216408000D03*
X153058000Y-220908000D03*
X146558000Y-216408000D03*
X146558000Y-220908000D03*
X153058000Y-175768000D03*
X153058000Y-180268000D03*
X146558000Y-175768000D03*
X146558000Y-180268000D03*
D10*
G36*
X274032505Y-268158204D02*
G01*
X274056773Y-268161804D01*
X274080572Y-268167765D01*
X274103671Y-268176030D01*
X274125850Y-268186520D01*
X274146893Y-268199132D01*
X274166599Y-268213747D01*
X274184777Y-268230223D01*
X274201253Y-268248401D01*
X274215868Y-268268107D01*
X274228480Y-268289150D01*
X274238970Y-268311329D01*
X274247235Y-268334428D01*
X274253196Y-268358227D01*
X274256796Y-268382495D01*
X274258000Y-268406999D01*
X274258000Y-269057001D01*
X274256796Y-269081505D01*
X274253196Y-269105773D01*
X274247235Y-269129572D01*
X274238970Y-269152671D01*
X274228480Y-269174850D01*
X274215868Y-269195893D01*
X274201253Y-269215599D01*
X274184777Y-269233777D01*
X274166599Y-269250253D01*
X274146893Y-269264868D01*
X274125850Y-269277480D01*
X274103671Y-269287970D01*
X274080572Y-269296235D01*
X274056773Y-269302196D01*
X274032505Y-269305796D01*
X274008001Y-269307000D01*
X273107999Y-269307000D01*
X273083495Y-269305796D01*
X273059227Y-269302196D01*
X273035428Y-269296235D01*
X273012329Y-269287970D01*
X272990150Y-269277480D01*
X272969107Y-269264868D01*
X272949401Y-269250253D01*
X272931223Y-269233777D01*
X272914747Y-269215599D01*
X272900132Y-269195893D01*
X272887520Y-269174850D01*
X272877030Y-269152671D01*
X272868765Y-269129572D01*
X272862804Y-269105773D01*
X272859204Y-269081505D01*
X272858000Y-269057001D01*
X272858000Y-268406999D01*
X272859204Y-268382495D01*
X272862804Y-268358227D01*
X272868765Y-268334428D01*
X272877030Y-268311329D01*
X272887520Y-268289150D01*
X272900132Y-268268107D01*
X272914747Y-268248401D01*
X272931223Y-268230223D01*
X272949401Y-268213747D01*
X272969107Y-268199132D01*
X272990150Y-268186520D01*
X273012329Y-268176030D01*
X273035428Y-268167765D01*
X273059227Y-268161804D01*
X273083495Y-268158204D01*
X273107999Y-268157000D01*
X274008001Y-268157000D01*
X274032505Y-268158204D01*
X274032505Y-268158204D01*
G37*
D11*
X273558000Y-268732000D03*
D10*
G36*
X274032505Y-270208204D02*
G01*
X274056773Y-270211804D01*
X274080572Y-270217765D01*
X274103671Y-270226030D01*
X274125850Y-270236520D01*
X274146893Y-270249132D01*
X274166599Y-270263747D01*
X274184777Y-270280223D01*
X274201253Y-270298401D01*
X274215868Y-270318107D01*
X274228480Y-270339150D01*
X274238970Y-270361329D01*
X274247235Y-270384428D01*
X274253196Y-270408227D01*
X274256796Y-270432495D01*
X274258000Y-270456999D01*
X274258000Y-271107001D01*
X274256796Y-271131505D01*
X274253196Y-271155773D01*
X274247235Y-271179572D01*
X274238970Y-271202671D01*
X274228480Y-271224850D01*
X274215868Y-271245893D01*
X274201253Y-271265599D01*
X274184777Y-271283777D01*
X274166599Y-271300253D01*
X274146893Y-271314868D01*
X274125850Y-271327480D01*
X274103671Y-271337970D01*
X274080572Y-271346235D01*
X274056773Y-271352196D01*
X274032505Y-271355796D01*
X274008001Y-271357000D01*
X273107999Y-271357000D01*
X273083495Y-271355796D01*
X273059227Y-271352196D01*
X273035428Y-271346235D01*
X273012329Y-271337970D01*
X272990150Y-271327480D01*
X272969107Y-271314868D01*
X272949401Y-271300253D01*
X272931223Y-271283777D01*
X272914747Y-271265599D01*
X272900132Y-271245893D01*
X272887520Y-271224850D01*
X272877030Y-271202671D01*
X272868765Y-271179572D01*
X272862804Y-271155773D01*
X272859204Y-271131505D01*
X272858000Y-271107001D01*
X272858000Y-270456999D01*
X272859204Y-270432495D01*
X272862804Y-270408227D01*
X272868765Y-270384428D01*
X272877030Y-270361329D01*
X272887520Y-270339150D01*
X272900132Y-270318107D01*
X272914747Y-270298401D01*
X272931223Y-270280223D01*
X272949401Y-270263747D01*
X272969107Y-270249132D01*
X272990150Y-270236520D01*
X273012329Y-270226030D01*
X273035428Y-270217765D01*
X273059227Y-270211804D01*
X273083495Y-270208204D01*
X273107999Y-270207000D01*
X274008001Y-270207000D01*
X274032505Y-270208204D01*
X274032505Y-270208204D01*
G37*
D11*
X273558000Y-270782000D03*
D10*
G36*
X295114505Y-162240204D02*
G01*
X295138773Y-162243804D01*
X295162572Y-162249765D01*
X295185671Y-162258030D01*
X295207850Y-162268520D01*
X295228893Y-162281132D01*
X295248599Y-162295747D01*
X295266777Y-162312223D01*
X295283253Y-162330401D01*
X295297868Y-162350107D01*
X295310480Y-162371150D01*
X295320970Y-162393329D01*
X295329235Y-162416428D01*
X295335196Y-162440227D01*
X295338796Y-162464495D01*
X295340000Y-162488999D01*
X295340000Y-163139001D01*
X295338796Y-163163505D01*
X295335196Y-163187773D01*
X295329235Y-163211572D01*
X295320970Y-163234671D01*
X295310480Y-163256850D01*
X295297868Y-163277893D01*
X295283253Y-163297599D01*
X295266777Y-163315777D01*
X295248599Y-163332253D01*
X295228893Y-163346868D01*
X295207850Y-163359480D01*
X295185671Y-163369970D01*
X295162572Y-163378235D01*
X295138773Y-163384196D01*
X295114505Y-163387796D01*
X295090001Y-163389000D01*
X294189999Y-163389000D01*
X294165495Y-163387796D01*
X294141227Y-163384196D01*
X294117428Y-163378235D01*
X294094329Y-163369970D01*
X294072150Y-163359480D01*
X294051107Y-163346868D01*
X294031401Y-163332253D01*
X294013223Y-163315777D01*
X293996747Y-163297599D01*
X293982132Y-163277893D01*
X293969520Y-163256850D01*
X293959030Y-163234671D01*
X293950765Y-163211572D01*
X293944804Y-163187773D01*
X293941204Y-163163505D01*
X293940000Y-163139001D01*
X293940000Y-162488999D01*
X293941204Y-162464495D01*
X293944804Y-162440227D01*
X293950765Y-162416428D01*
X293959030Y-162393329D01*
X293969520Y-162371150D01*
X293982132Y-162350107D01*
X293996747Y-162330401D01*
X294013223Y-162312223D01*
X294031401Y-162295747D01*
X294051107Y-162281132D01*
X294072150Y-162268520D01*
X294094329Y-162258030D01*
X294117428Y-162249765D01*
X294141227Y-162243804D01*
X294165495Y-162240204D01*
X294189999Y-162239000D01*
X295090001Y-162239000D01*
X295114505Y-162240204D01*
X295114505Y-162240204D01*
G37*
D11*
X294640000Y-162814000D03*
D10*
G36*
X295114505Y-160190204D02*
G01*
X295138773Y-160193804D01*
X295162572Y-160199765D01*
X295185671Y-160208030D01*
X295207850Y-160218520D01*
X295228893Y-160231132D01*
X295248599Y-160245747D01*
X295266777Y-160262223D01*
X295283253Y-160280401D01*
X295297868Y-160300107D01*
X295310480Y-160321150D01*
X295320970Y-160343329D01*
X295329235Y-160366428D01*
X295335196Y-160390227D01*
X295338796Y-160414495D01*
X295340000Y-160438999D01*
X295340000Y-161089001D01*
X295338796Y-161113505D01*
X295335196Y-161137773D01*
X295329235Y-161161572D01*
X295320970Y-161184671D01*
X295310480Y-161206850D01*
X295297868Y-161227893D01*
X295283253Y-161247599D01*
X295266777Y-161265777D01*
X295248599Y-161282253D01*
X295228893Y-161296868D01*
X295207850Y-161309480D01*
X295185671Y-161319970D01*
X295162572Y-161328235D01*
X295138773Y-161334196D01*
X295114505Y-161337796D01*
X295090001Y-161339000D01*
X294189999Y-161339000D01*
X294165495Y-161337796D01*
X294141227Y-161334196D01*
X294117428Y-161328235D01*
X294094329Y-161319970D01*
X294072150Y-161309480D01*
X294051107Y-161296868D01*
X294031401Y-161282253D01*
X294013223Y-161265777D01*
X293996747Y-161247599D01*
X293982132Y-161227893D01*
X293969520Y-161206850D01*
X293959030Y-161184671D01*
X293950765Y-161161572D01*
X293944804Y-161137773D01*
X293941204Y-161113505D01*
X293940000Y-161089001D01*
X293940000Y-160438999D01*
X293941204Y-160414495D01*
X293944804Y-160390227D01*
X293950765Y-160366428D01*
X293959030Y-160343329D01*
X293969520Y-160321150D01*
X293982132Y-160300107D01*
X293996747Y-160280401D01*
X294013223Y-160262223D01*
X294031401Y-160245747D01*
X294051107Y-160231132D01*
X294072150Y-160218520D01*
X294094329Y-160208030D01*
X294117428Y-160199765D01*
X294141227Y-160193804D01*
X294165495Y-160190204D01*
X294189999Y-160189000D01*
X295090001Y-160189000D01*
X295114505Y-160190204D01*
X295114505Y-160190204D01*
G37*
D11*
X294640000Y-160764000D03*
D14*
X208280000Y-81280000D03*
D15*
X294640000Y-159004000D03*
X272542000Y-270764000D03*
X309626000Y-208534000D03*
X408686000Y-108204000D03*
X302768000Y-241299998D03*
X229616000Y-282448000D03*
X283718000Y-252476000D03*
X331978000Y-247650000D03*
X288290000Y-169672000D03*
D16*
X294640000Y-159004000D02*
X294640000Y-160764000D01*
X170512000Y-162814000D02*
X153058000Y-180268000D01*
X294640000Y-162814000D02*
X170512000Y-162814000D01*
X273558000Y-270782000D02*
X272560000Y-270782000D01*
X272560000Y-270782000D02*
X272542000Y-270764000D01*
X200882000Y-268732000D02*
X153058000Y-220908000D01*
X273558000Y-268732000D02*
X200882000Y-268732000D01*
X307340000Y-208534000D02*
X309626000Y-208534000D01*
X407688000Y-108204000D02*
X406926000Y-108966000D01*
X408686000Y-108204000D02*
X407688000Y-108204000D01*
X161004000Y-208534000D02*
X153058000Y-200588000D01*
X305290000Y-208534000D02*
X161004000Y-208534000D01*
X403352000Y-108966000D02*
X404876000Y-108966000D01*
X305290000Y-208534000D02*
X305290000Y-207028000D01*
X305290000Y-207028000D02*
X403352000Y-108966000D01*
X302768000Y-242561000D02*
X302768000Y-241299998D01*
X227856000Y-282448000D02*
X229616000Y-282448000D01*
X281450000Y-252476000D02*
X283718000Y-252476000D01*
X330708000Y-247650000D02*
X331978000Y-247650000D01*
X288290000Y-171178000D02*
X288290000Y-169672000D01*
X194278000Y-282448000D02*
X153058000Y-241228000D01*
X225806000Y-282448000D02*
X222758000Y-282448000D01*
X222758000Y-282448000D02*
X194278000Y-282448000D01*
X278130000Y-252476000D02*
X279400000Y-252476000D01*
X276098000Y-254508000D02*
X278130000Y-252476000D01*
X276098000Y-277368000D02*
X276098000Y-254508000D01*
X273558000Y-279908000D02*
X276098000Y-277368000D01*
X222758000Y-282448000D02*
X225298000Y-279908000D01*
X225298000Y-279908000D02*
X273558000Y-279908000D01*
X279400000Y-252476000D02*
X279400000Y-251460000D01*
X285732000Y-245128000D02*
X302768000Y-245128000D01*
X279400000Y-251460000D02*
X285732000Y-245128000D01*
X305290000Y-247650000D02*
X302768000Y-245128000D01*
X328658000Y-247650000D02*
X305290000Y-247650000D01*
X153058000Y-241228000D02*
X151130000Y-239300000D01*
X151130000Y-239300000D02*
X151130000Y-184912000D01*
X151130000Y-184912000D02*
X171450000Y-164592000D01*
X171450000Y-164592000D02*
X276860000Y-164592000D01*
X285496000Y-173228000D02*
X288290000Y-173228000D01*
X276860000Y-164592000D02*
X285496000Y-173228000D01*
D17*
G36*
X429133000Y-340233000D02*
G01*
X129667000Y-340233000D01*
X129667000Y-241066967D01*
X144923000Y-241066967D01*
X144923000Y-241389033D01*
X144985832Y-241704912D01*
X145109082Y-242002463D01*
X145288013Y-242270252D01*
X145515748Y-242497987D01*
X145783537Y-242676918D01*
X146081088Y-242800168D01*
X146396967Y-242863000D01*
X146719033Y-242863000D01*
X147034912Y-242800168D01*
X147332463Y-242676918D01*
X147600252Y-242497987D01*
X147827987Y-242270252D01*
X148006918Y-242002463D01*
X148130168Y-241704912D01*
X148193000Y-241389033D01*
X148193000Y-241066967D01*
X148130168Y-240751088D01*
X148006918Y-240453537D01*
X147827987Y-240185748D01*
X147600252Y-239958013D01*
X147332463Y-239779082D01*
X147034912Y-239655832D01*
X146719033Y-239593000D01*
X146396967Y-239593000D01*
X146081088Y-239655832D01*
X145783537Y-239779082D01*
X145515748Y-239958013D01*
X145288013Y-240185748D01*
X145109082Y-240453537D01*
X144985832Y-240751088D01*
X144923000Y-241066967D01*
X129667000Y-241066967D01*
X129667000Y-237863413D01*
X145602192Y-237863413D01*
X145697956Y-238127814D01*
X145987571Y-238268704D01*
X146299108Y-238350384D01*
X146620595Y-238369718D01*
X146939675Y-238325961D01*
X147244088Y-238220795D01*
X147418044Y-238127814D01*
X147513808Y-237863413D01*
X146558000Y-236907605D01*
X145602192Y-237863413D01*
X129667000Y-237863413D01*
X129667000Y-236790595D01*
X144916282Y-236790595D01*
X144960039Y-237109675D01*
X145065205Y-237414088D01*
X145158186Y-237588044D01*
X145422587Y-237683808D01*
X146378395Y-236728000D01*
X146737605Y-236728000D01*
X147693413Y-237683808D01*
X147957814Y-237588044D01*
X148098704Y-237298429D01*
X148180384Y-236986892D01*
X148199718Y-236665405D01*
X148155961Y-236346325D01*
X148050795Y-236041912D01*
X147957814Y-235867956D01*
X147693413Y-235772192D01*
X146737605Y-236728000D01*
X146378395Y-236728000D01*
X145422587Y-235772192D01*
X145158186Y-235867956D01*
X145017296Y-236157571D01*
X144935616Y-236469108D01*
X144916282Y-236790595D01*
X129667000Y-236790595D01*
X129667000Y-235592587D01*
X145602192Y-235592587D01*
X146558000Y-236548395D01*
X147513808Y-235592587D01*
X147418044Y-235328186D01*
X147128429Y-235187296D01*
X146816892Y-235105616D01*
X146495405Y-235086282D01*
X146176325Y-235130039D01*
X145871912Y-235235205D01*
X145697956Y-235328186D01*
X145602192Y-235592587D01*
X129667000Y-235592587D01*
X129667000Y-220746967D01*
X144923000Y-220746967D01*
X144923000Y-221069033D01*
X144985832Y-221384912D01*
X145109082Y-221682463D01*
X145288013Y-221950252D01*
X145515748Y-222177987D01*
X145783537Y-222356918D01*
X146081088Y-222480168D01*
X146396967Y-222543000D01*
X146719033Y-222543000D01*
X147034912Y-222480168D01*
X147332463Y-222356918D01*
X147600252Y-222177987D01*
X147827987Y-221950252D01*
X148006918Y-221682463D01*
X148130168Y-221384912D01*
X148193000Y-221069033D01*
X148193000Y-220746967D01*
X148130168Y-220431088D01*
X148006918Y-220133537D01*
X147827987Y-219865748D01*
X147600252Y-219638013D01*
X147332463Y-219459082D01*
X147034912Y-219335832D01*
X146719033Y-219273000D01*
X146396967Y-219273000D01*
X146081088Y-219335832D01*
X145783537Y-219459082D01*
X145515748Y-219638013D01*
X145288013Y-219865748D01*
X145109082Y-220133537D01*
X144985832Y-220431088D01*
X144923000Y-220746967D01*
X129667000Y-220746967D01*
X129667000Y-217543413D01*
X145602192Y-217543413D01*
X145697956Y-217807814D01*
X145987571Y-217948704D01*
X146299108Y-218030384D01*
X146620595Y-218049718D01*
X146939675Y-218005961D01*
X147244088Y-217900795D01*
X147418044Y-217807814D01*
X147513808Y-217543413D01*
X146558000Y-216587605D01*
X145602192Y-217543413D01*
X129667000Y-217543413D01*
X129667000Y-216470595D01*
X144916282Y-216470595D01*
X144960039Y-216789675D01*
X145065205Y-217094088D01*
X145158186Y-217268044D01*
X145422587Y-217363808D01*
X146378395Y-216408000D01*
X146737605Y-216408000D01*
X147693413Y-217363808D01*
X147957814Y-217268044D01*
X148098704Y-216978429D01*
X148180384Y-216666892D01*
X148199718Y-216345405D01*
X148155961Y-216026325D01*
X148050795Y-215721912D01*
X147957814Y-215547956D01*
X147693413Y-215452192D01*
X146737605Y-216408000D01*
X146378395Y-216408000D01*
X145422587Y-215452192D01*
X145158186Y-215547956D01*
X145017296Y-215837571D01*
X144935616Y-216149108D01*
X144916282Y-216470595D01*
X129667000Y-216470595D01*
X129667000Y-215272587D01*
X145602192Y-215272587D01*
X146558000Y-216228395D01*
X147513808Y-215272587D01*
X147418044Y-215008186D01*
X147128429Y-214867296D01*
X146816892Y-214785616D01*
X146495405Y-214766282D01*
X146176325Y-214810039D01*
X145871912Y-214915205D01*
X145697956Y-215008186D01*
X145602192Y-215272587D01*
X129667000Y-215272587D01*
X129667000Y-200426967D01*
X144923000Y-200426967D01*
X144923000Y-200749033D01*
X144985832Y-201064912D01*
X145109082Y-201362463D01*
X145288013Y-201630252D01*
X145515748Y-201857987D01*
X145783537Y-202036918D01*
X146081088Y-202160168D01*
X146396967Y-202223000D01*
X146719033Y-202223000D01*
X147034912Y-202160168D01*
X147332463Y-202036918D01*
X147600252Y-201857987D01*
X147827987Y-201630252D01*
X148006918Y-201362463D01*
X148130168Y-201064912D01*
X148193000Y-200749033D01*
X148193000Y-200426967D01*
X148130168Y-200111088D01*
X148006918Y-199813537D01*
X147827987Y-199545748D01*
X147600252Y-199318013D01*
X147332463Y-199139082D01*
X147034912Y-199015832D01*
X146719033Y-198953000D01*
X146396967Y-198953000D01*
X146081088Y-199015832D01*
X145783537Y-199139082D01*
X145515748Y-199318013D01*
X145288013Y-199545748D01*
X145109082Y-199813537D01*
X144985832Y-200111088D01*
X144923000Y-200426967D01*
X129667000Y-200426967D01*
X129667000Y-197223413D01*
X145602192Y-197223413D01*
X145697956Y-197487814D01*
X145987571Y-197628704D01*
X146299108Y-197710384D01*
X146620595Y-197729718D01*
X146939675Y-197685961D01*
X147244088Y-197580795D01*
X147418044Y-197487814D01*
X147513808Y-197223413D01*
X146558000Y-196267605D01*
X145602192Y-197223413D01*
X129667000Y-197223413D01*
X129667000Y-196150595D01*
X144916282Y-196150595D01*
X144960039Y-196469675D01*
X145065205Y-196774088D01*
X145158186Y-196948044D01*
X145422587Y-197043808D01*
X146378395Y-196088000D01*
X146737605Y-196088000D01*
X147693413Y-197043808D01*
X147957814Y-196948044D01*
X148098704Y-196658429D01*
X148180384Y-196346892D01*
X148199718Y-196025405D01*
X148155961Y-195706325D01*
X148050795Y-195401912D01*
X147957814Y-195227956D01*
X147693413Y-195132192D01*
X146737605Y-196088000D01*
X146378395Y-196088000D01*
X145422587Y-195132192D01*
X145158186Y-195227956D01*
X145017296Y-195517571D01*
X144935616Y-195829108D01*
X144916282Y-196150595D01*
X129667000Y-196150595D01*
X129667000Y-194952587D01*
X145602192Y-194952587D01*
X146558000Y-195908395D01*
X147513808Y-194952587D01*
X147418044Y-194688186D01*
X147128429Y-194547296D01*
X146816892Y-194465616D01*
X146495405Y-194446282D01*
X146176325Y-194490039D01*
X145871912Y-194595205D01*
X145697956Y-194688186D01*
X145602192Y-194952587D01*
X129667000Y-194952587D01*
X129667000Y-184912000D01*
X150236700Y-184912000D01*
X150241001Y-184955670D01*
X150241000Y-239256340D01*
X150236700Y-239300000D01*
X150241000Y-239343660D01*
X150241000Y-239343666D01*
X150253864Y-239474273D01*
X150304697Y-239641850D01*
X150387247Y-239796290D01*
X150498341Y-239931659D01*
X150532264Y-239959499D01*
X151458958Y-240886193D01*
X151423000Y-241066967D01*
X151423000Y-241389033D01*
X151485832Y-241704912D01*
X151609082Y-242002463D01*
X151788013Y-242270252D01*
X152015748Y-242497987D01*
X152283537Y-242676918D01*
X152581088Y-242800168D01*
X152896967Y-242863000D01*
X153219033Y-242863000D01*
X153399807Y-242827042D01*
X193618506Y-283045742D01*
X193646341Y-283079659D01*
X193781709Y-283190753D01*
X193936149Y-283273303D01*
X194030758Y-283302002D01*
X194103725Y-283324136D01*
X194122073Y-283325943D01*
X194234333Y-283337000D01*
X194234339Y-283337000D01*
X194277999Y-283341300D01*
X194321659Y-283337000D01*
X222714340Y-283337000D01*
X222758000Y-283341300D01*
X222801660Y-283337000D01*
X224713524Y-283337000D01*
X224742595Y-283391387D01*
X224853038Y-283525962D01*
X224987613Y-283636405D01*
X225141149Y-283718472D01*
X225307745Y-283769008D01*
X225480999Y-283786072D01*
X226131001Y-283786072D01*
X226304255Y-283769008D01*
X226470851Y-283718472D01*
X226624387Y-283636405D01*
X226758962Y-283525962D01*
X226831000Y-283438184D01*
X226903038Y-283525962D01*
X227037613Y-283636405D01*
X227191149Y-283718472D01*
X227357745Y-283769008D01*
X227530999Y-283786072D01*
X228181001Y-283786072D01*
X228354255Y-283769008D01*
X228520851Y-283718472D01*
X228674387Y-283636405D01*
X228808962Y-283525962D01*
X228919405Y-283391387D01*
X228948476Y-283337000D01*
X229117731Y-283337000D01*
X229134744Y-283348368D01*
X229319644Y-283424956D01*
X229515933Y-283464000D01*
X229716067Y-283464000D01*
X229912356Y-283424956D01*
X230097256Y-283348368D01*
X230263662Y-283237179D01*
X230405179Y-283095662D01*
X230516368Y-282929256D01*
X230592956Y-282744356D01*
X230632000Y-282548067D01*
X230632000Y-282347933D01*
X230592956Y-282151644D01*
X230516368Y-281966744D01*
X230405179Y-281800338D01*
X230263662Y-281658821D01*
X230097256Y-281547632D01*
X229912356Y-281471044D01*
X229716067Y-281432000D01*
X229515933Y-281432000D01*
X229319644Y-281471044D01*
X229134744Y-281547632D01*
X229117731Y-281559000D01*
X228948476Y-281559000D01*
X228919405Y-281504613D01*
X228808962Y-281370038D01*
X228674387Y-281259595D01*
X228520851Y-281177528D01*
X228354255Y-281126992D01*
X228181001Y-281109928D01*
X227530999Y-281109928D01*
X227357745Y-281126992D01*
X227191149Y-281177528D01*
X227037613Y-281259595D01*
X226903038Y-281370038D01*
X226831000Y-281457816D01*
X226758962Y-281370038D01*
X226624387Y-281259595D01*
X226470851Y-281177528D01*
X226304255Y-281126992D01*
X226131001Y-281109928D01*
X225480999Y-281109928D01*
X225339357Y-281123878D01*
X225666236Y-280797000D01*
X273514340Y-280797000D01*
X273558000Y-280801300D01*
X273601660Y-280797000D01*
X273601667Y-280797000D01*
X273732274Y-280784136D01*
X273899851Y-280733303D01*
X274054291Y-280650753D01*
X274189659Y-280539659D01*
X274217499Y-280505736D01*
X276695743Y-278027493D01*
X276729659Y-277999659D01*
X276840753Y-277864291D01*
X276923303Y-277709851D01*
X276943296Y-277643942D01*
X276974136Y-277542276D01*
X276977406Y-277509076D01*
X276987000Y-277411667D01*
X276987000Y-277411661D01*
X276991300Y-277368001D01*
X276987000Y-277324341D01*
X276987000Y-254876235D01*
X278384940Y-253478296D01*
X278447038Y-253553962D01*
X278581613Y-253664405D01*
X278735149Y-253746472D01*
X278901745Y-253797008D01*
X279074999Y-253814072D01*
X279725001Y-253814072D01*
X279898255Y-253797008D01*
X280064851Y-253746472D01*
X280218387Y-253664405D01*
X280352962Y-253553962D01*
X280425000Y-253466184D01*
X280497038Y-253553962D01*
X280631613Y-253664405D01*
X280785149Y-253746472D01*
X280951745Y-253797008D01*
X281124999Y-253814072D01*
X281775001Y-253814072D01*
X281948255Y-253797008D01*
X282114851Y-253746472D01*
X282268387Y-253664405D01*
X282402962Y-253553962D01*
X282513405Y-253419387D01*
X282542476Y-253365000D01*
X283219731Y-253365000D01*
X283236744Y-253376368D01*
X283421644Y-253452956D01*
X283617933Y-253492000D01*
X283818067Y-253492000D01*
X284014356Y-253452956D01*
X284199256Y-253376368D01*
X284365662Y-253265179D01*
X284507179Y-253123662D01*
X284618368Y-252957256D01*
X284694956Y-252772356D01*
X284734000Y-252576067D01*
X284734000Y-252375933D01*
X284694956Y-252179644D01*
X284618368Y-251994744D01*
X284507179Y-251828338D01*
X284365662Y-251686821D01*
X284199256Y-251575632D01*
X284014356Y-251499044D01*
X283818067Y-251460000D01*
X283617933Y-251460000D01*
X283421644Y-251499044D01*
X283236744Y-251575632D01*
X283219731Y-251587000D01*
X282542476Y-251587000D01*
X282513405Y-251532613D01*
X282402962Y-251398038D01*
X282268387Y-251287595D01*
X282114851Y-251205528D01*
X281948255Y-251154992D01*
X281775001Y-251137928D01*
X281124999Y-251137928D01*
X280963390Y-251153845D01*
X286100235Y-246017000D01*
X301637546Y-246017000D01*
X301690038Y-246080962D01*
X301824613Y-246191405D01*
X301978149Y-246273472D01*
X302144745Y-246324008D01*
X302317999Y-246341072D01*
X302723837Y-246341072D01*
X304630506Y-248247742D01*
X304658341Y-248281659D01*
X304793709Y-248392753D01*
X304948149Y-248475303D01*
X305064892Y-248510716D01*
X305115725Y-248526136D01*
X305290000Y-248543301D01*
X305333668Y-248539000D01*
X327565524Y-248539000D01*
X327594595Y-248593387D01*
X327705038Y-248727962D01*
X327839613Y-248838405D01*
X327993149Y-248920472D01*
X328159745Y-248971008D01*
X328332999Y-248988072D01*
X328983001Y-248988072D01*
X329156255Y-248971008D01*
X329322851Y-248920472D01*
X329476387Y-248838405D01*
X329610962Y-248727962D01*
X329683000Y-248640184D01*
X329755038Y-248727962D01*
X329889613Y-248838405D01*
X330043149Y-248920472D01*
X330209745Y-248971008D01*
X330382999Y-248988072D01*
X331033001Y-248988072D01*
X331206255Y-248971008D01*
X331372851Y-248920472D01*
X331526387Y-248838405D01*
X331660962Y-248727962D01*
X331735125Y-248637594D01*
X331877933Y-248666000D01*
X332078067Y-248666000D01*
X332274356Y-248626956D01*
X332459256Y-248550368D01*
X332625662Y-248439179D01*
X332767179Y-248297662D01*
X332878368Y-248131256D01*
X332954956Y-247946356D01*
X332994000Y-247750067D01*
X332994000Y-247549933D01*
X332954956Y-247353644D01*
X332878368Y-247168744D01*
X332767179Y-247002338D01*
X332625662Y-246860821D01*
X332459256Y-246749632D01*
X332274356Y-246673044D01*
X332078067Y-246634000D01*
X331877933Y-246634000D01*
X331735125Y-246662406D01*
X331660962Y-246572038D01*
X331526387Y-246461595D01*
X331372851Y-246379528D01*
X331206255Y-246328992D01*
X331033001Y-246311928D01*
X330382999Y-246311928D01*
X330209745Y-246328992D01*
X330043149Y-246379528D01*
X329889613Y-246461595D01*
X329755038Y-246572038D01*
X329683000Y-246659816D01*
X329610962Y-246572038D01*
X329476387Y-246461595D01*
X329322851Y-246379528D01*
X329156255Y-246328992D01*
X328983001Y-246311928D01*
X328332999Y-246311928D01*
X328159745Y-246328992D01*
X327993149Y-246379528D01*
X327839613Y-246461595D01*
X327705038Y-246572038D01*
X327594595Y-246706613D01*
X327565524Y-246761000D01*
X305658236Y-246761000D01*
X304106072Y-245208837D01*
X304106072Y-244802999D01*
X304089008Y-244629745D01*
X304038472Y-244463149D01*
X303956405Y-244309613D01*
X303845962Y-244175038D01*
X303758184Y-244103000D01*
X303845962Y-244030962D01*
X303956405Y-243896387D01*
X304038472Y-243742851D01*
X304089008Y-243576255D01*
X304106072Y-243403001D01*
X304106072Y-242752999D01*
X304089008Y-242579745D01*
X304038472Y-242413149D01*
X303956405Y-242259613D01*
X303845962Y-242125038D01*
X303711387Y-242014595D01*
X303657000Y-241985524D01*
X303657000Y-241798267D01*
X303668368Y-241781254D01*
X303744956Y-241596354D01*
X303784000Y-241400065D01*
X303784000Y-241199931D01*
X303744956Y-241003642D01*
X303668368Y-240818742D01*
X303557179Y-240652336D01*
X303415662Y-240510819D01*
X303249256Y-240399630D01*
X303064356Y-240323042D01*
X302868067Y-240283998D01*
X302667933Y-240283998D01*
X302471644Y-240323042D01*
X302286744Y-240399630D01*
X302120338Y-240510819D01*
X301978821Y-240652336D01*
X301867632Y-240818742D01*
X301791044Y-241003642D01*
X301752000Y-241199931D01*
X301752000Y-241400065D01*
X301791044Y-241596354D01*
X301867632Y-241781254D01*
X301879001Y-241798268D01*
X301879000Y-241985524D01*
X301824613Y-242014595D01*
X301690038Y-242125038D01*
X301579595Y-242259613D01*
X301497528Y-242413149D01*
X301446992Y-242579745D01*
X301429928Y-242752999D01*
X301429928Y-243403001D01*
X301446992Y-243576255D01*
X301497528Y-243742851D01*
X301579595Y-243896387D01*
X301690038Y-244030962D01*
X301777816Y-244103000D01*
X301690038Y-244175038D01*
X301637546Y-244239000D01*
X285775659Y-244239000D01*
X285731999Y-244234700D01*
X285688339Y-244239000D01*
X285688333Y-244239000D01*
X285590924Y-244248594D01*
X285557724Y-244251864D01*
X285456058Y-244282704D01*
X285390149Y-244302697D01*
X285235709Y-244385247D01*
X285100341Y-244496341D01*
X285072501Y-244530264D01*
X278802259Y-250800506D01*
X278768342Y-250828341D01*
X278740507Y-250862258D01*
X278740505Y-250862260D01*
X278657248Y-250963709D01*
X278574698Y-251118148D01*
X278523864Y-251285726D01*
X278518586Y-251339320D01*
X278447038Y-251398038D01*
X278336595Y-251532613D01*
X278307524Y-251587000D01*
X278173660Y-251587000D01*
X278130000Y-251582700D01*
X278086340Y-251587000D01*
X278086333Y-251587000D01*
X277972325Y-251598229D01*
X277955725Y-251599864D01*
X277882758Y-251621998D01*
X277788149Y-251650697D01*
X277633709Y-251733247D01*
X277498341Y-251844341D01*
X277470506Y-251878258D01*
X275500259Y-253848506D01*
X275466342Y-253876341D01*
X275438507Y-253910258D01*
X275438505Y-253910260D01*
X275355248Y-254011709D01*
X275272698Y-254166148D01*
X275221864Y-254333726D01*
X275204700Y-254508000D01*
X275209001Y-254551670D01*
X275209000Y-276999764D01*
X273189765Y-279019000D01*
X225341659Y-279019000D01*
X225297999Y-279014700D01*
X225254339Y-279019000D01*
X225254333Y-279019000D01*
X225156924Y-279028594D01*
X225123724Y-279031864D01*
X225022058Y-279062704D01*
X224956149Y-279082697D01*
X224801709Y-279165247D01*
X224666341Y-279276341D01*
X224638506Y-279310258D01*
X222389765Y-281559000D01*
X194646236Y-281559000D01*
X154657042Y-241569807D01*
X154693000Y-241389033D01*
X154693000Y-241066967D01*
X154630168Y-240751088D01*
X154506918Y-240453537D01*
X154327987Y-240185748D01*
X154100252Y-239958013D01*
X153832463Y-239779082D01*
X153534912Y-239655832D01*
X153219033Y-239593000D01*
X152896967Y-239593000D01*
X152716193Y-239628958D01*
X152019000Y-238931765D01*
X152019000Y-237946608D01*
X152102193Y-237863415D01*
X152197956Y-238127814D01*
X152487571Y-238268704D01*
X152799108Y-238350384D01*
X153120595Y-238369718D01*
X153439675Y-238325961D01*
X153744088Y-238220795D01*
X153918044Y-238127814D01*
X154013808Y-237863413D01*
X153058000Y-236907605D01*
X153043858Y-236921748D01*
X152864253Y-236742143D01*
X152878395Y-236728000D01*
X153237605Y-236728000D01*
X154193413Y-237683808D01*
X154457814Y-237588044D01*
X154598704Y-237298429D01*
X154680384Y-236986892D01*
X154699718Y-236665405D01*
X154655961Y-236346325D01*
X154550795Y-236041912D01*
X154457814Y-235867956D01*
X154193413Y-235772192D01*
X153237605Y-236728000D01*
X152878395Y-236728000D01*
X152864253Y-236713858D01*
X153043858Y-236534253D01*
X153058000Y-236548395D01*
X154013808Y-235592587D01*
X153918044Y-235328186D01*
X153628429Y-235187296D01*
X153316892Y-235105616D01*
X152995405Y-235086282D01*
X152676325Y-235130039D01*
X152371912Y-235235205D01*
X152197956Y-235328186D01*
X152102193Y-235592585D01*
X152019000Y-235509392D01*
X152019000Y-222180160D01*
X152283537Y-222356918D01*
X152581088Y-222480168D01*
X152896967Y-222543000D01*
X153219033Y-222543000D01*
X153399807Y-222507042D01*
X200222501Y-269329736D01*
X200250341Y-269363659D01*
X200385709Y-269474753D01*
X200540149Y-269557303D01*
X200606058Y-269577296D01*
X200707724Y-269608136D01*
X200740924Y-269611406D01*
X200838333Y-269621000D01*
X200838339Y-269621000D01*
X200881999Y-269625300D01*
X200925659Y-269621000D01*
X272427546Y-269621000D01*
X272480038Y-269684962D01*
X272556850Y-269748000D01*
X272441933Y-269748000D01*
X272245644Y-269787044D01*
X272060744Y-269863632D01*
X271894338Y-269974821D01*
X271752821Y-270116338D01*
X271641632Y-270282744D01*
X271565044Y-270467644D01*
X271526000Y-270663933D01*
X271526000Y-270864067D01*
X271565044Y-271060356D01*
X271641632Y-271245256D01*
X271752821Y-271411662D01*
X271894338Y-271553179D01*
X272060744Y-271664368D01*
X272245644Y-271740956D01*
X272441933Y-271780000D01*
X272534917Y-271780000D01*
X272614613Y-271845405D01*
X272768149Y-271927472D01*
X272934745Y-271978008D01*
X273107999Y-271995072D01*
X274008001Y-271995072D01*
X274181255Y-271978008D01*
X274347851Y-271927472D01*
X274501387Y-271845405D01*
X274635962Y-271734962D01*
X274746405Y-271600387D01*
X274828472Y-271446851D01*
X274879008Y-271280255D01*
X274896072Y-271107001D01*
X274896072Y-270456999D01*
X274879008Y-270283745D01*
X274828472Y-270117149D01*
X274746405Y-269963613D01*
X274635962Y-269829038D01*
X274548184Y-269757000D01*
X274635962Y-269684962D01*
X274746405Y-269550387D01*
X274828472Y-269396851D01*
X274879008Y-269230255D01*
X274896072Y-269057001D01*
X274896072Y-268406999D01*
X274879008Y-268233745D01*
X274828472Y-268067149D01*
X274746405Y-267913613D01*
X274635962Y-267779038D01*
X274501387Y-267668595D01*
X274347851Y-267586528D01*
X274181255Y-267535992D01*
X274008001Y-267518928D01*
X273107999Y-267518928D01*
X272934745Y-267535992D01*
X272768149Y-267586528D01*
X272614613Y-267668595D01*
X272480038Y-267779038D01*
X272427546Y-267843000D01*
X201250235Y-267843000D01*
X154657042Y-221249807D01*
X154693000Y-221069033D01*
X154693000Y-220746967D01*
X154630168Y-220431088D01*
X154506918Y-220133537D01*
X154327987Y-219865748D01*
X154100252Y-219638013D01*
X153832463Y-219459082D01*
X153534912Y-219335832D01*
X153219033Y-219273000D01*
X152896967Y-219273000D01*
X152581088Y-219335832D01*
X152283537Y-219459082D01*
X152019000Y-219635840D01*
X152019000Y-217626608D01*
X152102193Y-217543415D01*
X152197956Y-217807814D01*
X152487571Y-217948704D01*
X152799108Y-218030384D01*
X153120595Y-218049718D01*
X153439675Y-218005961D01*
X153744088Y-217900795D01*
X153918044Y-217807814D01*
X154013808Y-217543413D01*
X153058000Y-216587605D01*
X153043858Y-216601748D01*
X152864253Y-216422143D01*
X152878395Y-216408000D01*
X153237605Y-216408000D01*
X154193413Y-217363808D01*
X154457814Y-217268044D01*
X154598704Y-216978429D01*
X154680384Y-216666892D01*
X154699718Y-216345405D01*
X154655961Y-216026325D01*
X154550795Y-215721912D01*
X154457814Y-215547956D01*
X154193413Y-215452192D01*
X153237605Y-216408000D01*
X152878395Y-216408000D01*
X152864253Y-216393858D01*
X153043858Y-216214253D01*
X153058000Y-216228395D01*
X154013808Y-215272587D01*
X153918044Y-215008186D01*
X153628429Y-214867296D01*
X153316892Y-214785616D01*
X152995405Y-214766282D01*
X152676325Y-214810039D01*
X152371912Y-214915205D01*
X152197956Y-215008186D01*
X152102193Y-215272585D01*
X152019000Y-215189392D01*
X152019000Y-201860160D01*
X152283537Y-202036918D01*
X152581088Y-202160168D01*
X152896967Y-202223000D01*
X153219033Y-202223000D01*
X153399807Y-202187042D01*
X160344506Y-209131742D01*
X160372341Y-209165659D01*
X160507709Y-209276753D01*
X160662149Y-209359303D01*
X160756758Y-209388002D01*
X160829725Y-209410136D01*
X160846325Y-209411771D01*
X160960333Y-209423000D01*
X160960340Y-209423000D01*
X161004000Y-209427300D01*
X161047660Y-209423000D01*
X304197524Y-209423000D01*
X304226595Y-209477387D01*
X304337038Y-209611962D01*
X304471613Y-209722405D01*
X304625149Y-209804472D01*
X304791745Y-209855008D01*
X304964999Y-209872072D01*
X305615001Y-209872072D01*
X305788255Y-209855008D01*
X305954851Y-209804472D01*
X306108387Y-209722405D01*
X306242962Y-209611962D01*
X306315000Y-209524184D01*
X306387038Y-209611962D01*
X306521613Y-209722405D01*
X306675149Y-209804472D01*
X306841745Y-209855008D01*
X307014999Y-209872072D01*
X307665001Y-209872072D01*
X307838255Y-209855008D01*
X308004851Y-209804472D01*
X308158387Y-209722405D01*
X308292962Y-209611962D01*
X308403405Y-209477387D01*
X308432476Y-209423000D01*
X309127731Y-209423000D01*
X309144744Y-209434368D01*
X309329644Y-209510956D01*
X309525933Y-209550000D01*
X309726067Y-209550000D01*
X309922356Y-209510956D01*
X310107256Y-209434368D01*
X310273662Y-209323179D01*
X310415179Y-209181662D01*
X310526368Y-209015256D01*
X310602956Y-208830356D01*
X310642000Y-208634067D01*
X310642000Y-208433933D01*
X310602956Y-208237644D01*
X310526368Y-208052744D01*
X310415179Y-207886338D01*
X310273662Y-207744821D01*
X310107256Y-207633632D01*
X309922356Y-207557044D01*
X309726067Y-207518000D01*
X309525933Y-207518000D01*
X309329644Y-207557044D01*
X309144744Y-207633632D01*
X309127731Y-207645000D01*
X308432476Y-207645000D01*
X308403405Y-207590613D01*
X308292962Y-207456038D01*
X308158387Y-207345595D01*
X308004851Y-207263528D01*
X307838255Y-207212992D01*
X307665001Y-207195928D01*
X307014999Y-207195928D01*
X306841745Y-207212992D01*
X306675149Y-207263528D01*
X306521613Y-207345595D01*
X306387038Y-207456038D01*
X306315000Y-207543816D01*
X306242962Y-207456038D01*
X306179000Y-207403546D01*
X306179000Y-207396235D01*
X403720235Y-109855000D01*
X403783524Y-109855000D01*
X403812595Y-109909387D01*
X403923038Y-110043962D01*
X404057613Y-110154405D01*
X404211149Y-110236472D01*
X404377745Y-110287008D01*
X404550999Y-110304072D01*
X405201001Y-110304072D01*
X405374255Y-110287008D01*
X405540851Y-110236472D01*
X405694387Y-110154405D01*
X405828962Y-110043962D01*
X405901000Y-109956184D01*
X405973038Y-110043962D01*
X406107613Y-110154405D01*
X406261149Y-110236472D01*
X406427745Y-110287008D01*
X406600999Y-110304072D01*
X407251001Y-110304072D01*
X407424255Y-110287008D01*
X407590851Y-110236472D01*
X407744387Y-110154405D01*
X407878962Y-110043962D01*
X407989405Y-109909387D01*
X408071472Y-109755851D01*
X408122008Y-109589255D01*
X408139072Y-109416001D01*
X408139072Y-109093000D01*
X408187731Y-109093000D01*
X408204744Y-109104368D01*
X408389644Y-109180956D01*
X408585933Y-109220000D01*
X408786067Y-109220000D01*
X408982356Y-109180956D01*
X409167256Y-109104368D01*
X409333662Y-108993179D01*
X409475179Y-108851662D01*
X409586368Y-108685256D01*
X409662956Y-108500356D01*
X409702000Y-108304067D01*
X409702000Y-108103933D01*
X409662956Y-107907644D01*
X409586368Y-107722744D01*
X409475179Y-107556338D01*
X409333662Y-107414821D01*
X409167256Y-107303632D01*
X408982356Y-107227044D01*
X408786067Y-107188000D01*
X408585933Y-107188000D01*
X408389644Y-107227044D01*
X408204744Y-107303632D01*
X408187731Y-107315000D01*
X407731660Y-107315000D01*
X407688000Y-107310700D01*
X407644340Y-107315000D01*
X407644333Y-107315000D01*
X407530325Y-107326229D01*
X407513725Y-107327864D01*
X407462892Y-107343284D01*
X407346149Y-107378697D01*
X407191709Y-107461247D01*
X407056341Y-107572341D01*
X407028505Y-107606259D01*
X407006836Y-107627928D01*
X406600999Y-107627928D01*
X406427745Y-107644992D01*
X406261149Y-107695528D01*
X406107613Y-107777595D01*
X405973038Y-107888038D01*
X405901000Y-107975816D01*
X405828962Y-107888038D01*
X405694387Y-107777595D01*
X405540851Y-107695528D01*
X405374255Y-107644992D01*
X405201001Y-107627928D01*
X404550999Y-107627928D01*
X404377745Y-107644992D01*
X404211149Y-107695528D01*
X404057613Y-107777595D01*
X403923038Y-107888038D01*
X403812595Y-108022613D01*
X403783524Y-108077000D01*
X403395659Y-108077000D01*
X403351999Y-108072700D01*
X403308339Y-108077000D01*
X403308333Y-108077000D01*
X403210924Y-108086594D01*
X403177724Y-108089864D01*
X403076058Y-108120704D01*
X403010149Y-108140697D01*
X402855709Y-108223247D01*
X402720341Y-108334341D01*
X402692501Y-108368264D01*
X304692259Y-206368506D01*
X304658342Y-206396341D01*
X304630507Y-206430258D01*
X304630505Y-206430260D01*
X304547248Y-206531709D01*
X304464698Y-206686148D01*
X304413864Y-206853726D01*
X304396700Y-207028000D01*
X304401001Y-207071669D01*
X304401001Y-207403545D01*
X304337038Y-207456038D01*
X304226595Y-207590613D01*
X304197524Y-207645000D01*
X161372236Y-207645000D01*
X154657042Y-200929807D01*
X154693000Y-200749033D01*
X154693000Y-200426967D01*
X154630168Y-200111088D01*
X154506918Y-199813537D01*
X154327987Y-199545748D01*
X154100252Y-199318013D01*
X153832463Y-199139082D01*
X153534912Y-199015832D01*
X153219033Y-198953000D01*
X152896967Y-198953000D01*
X152581088Y-199015832D01*
X152283537Y-199139082D01*
X152019000Y-199315840D01*
X152019000Y-197306608D01*
X152102193Y-197223415D01*
X152197956Y-197487814D01*
X152487571Y-197628704D01*
X152799108Y-197710384D01*
X153120595Y-197729718D01*
X153439675Y-197685961D01*
X153744088Y-197580795D01*
X153918044Y-197487814D01*
X154013808Y-197223413D01*
X153058000Y-196267605D01*
X153043858Y-196281748D01*
X152864253Y-196102143D01*
X152878395Y-196088000D01*
X153237605Y-196088000D01*
X154193413Y-197043808D01*
X154457814Y-196948044D01*
X154598704Y-196658429D01*
X154680384Y-196346892D01*
X154699718Y-196025405D01*
X154655961Y-195706325D01*
X154550795Y-195401912D01*
X154457814Y-195227956D01*
X154193413Y-195132192D01*
X153237605Y-196088000D01*
X152878395Y-196088000D01*
X152864253Y-196073858D01*
X153043858Y-195894253D01*
X153058000Y-195908395D01*
X154013808Y-194952587D01*
X153918044Y-194688186D01*
X153628429Y-194547296D01*
X153316892Y-194465616D01*
X152995405Y-194446282D01*
X152676325Y-194490039D01*
X152371912Y-194595205D01*
X152197956Y-194688186D01*
X152102193Y-194952585D01*
X152019000Y-194869392D01*
X152019000Y-185280235D01*
X171818236Y-165481000D01*
X276491765Y-165481000D01*
X284836501Y-173825736D01*
X284864341Y-173859659D01*
X284999709Y-173970753D01*
X285154149Y-174053303D01*
X285220058Y-174073296D01*
X285321724Y-174104136D01*
X285354924Y-174107406D01*
X285452333Y-174117000D01*
X285452339Y-174117000D01*
X285495999Y-174121300D01*
X285539659Y-174117000D01*
X287159546Y-174117000D01*
X287212038Y-174180962D01*
X287346613Y-174291405D01*
X287500149Y-174373472D01*
X287666745Y-174424008D01*
X287839999Y-174441072D01*
X288740001Y-174441072D01*
X288913255Y-174424008D01*
X289079851Y-174373472D01*
X289233387Y-174291405D01*
X289367962Y-174180962D01*
X289478405Y-174046387D01*
X289560472Y-173892851D01*
X289611008Y-173726255D01*
X289628072Y-173553001D01*
X289628072Y-172902999D01*
X289611008Y-172729745D01*
X289560472Y-172563149D01*
X289478405Y-172409613D01*
X289367962Y-172275038D01*
X289280184Y-172203000D01*
X289367962Y-172130962D01*
X289478405Y-171996387D01*
X289560472Y-171842851D01*
X289611008Y-171676255D01*
X289628072Y-171503001D01*
X289628072Y-170852999D01*
X289611008Y-170679745D01*
X289560472Y-170513149D01*
X289478405Y-170359613D01*
X289367962Y-170225038D01*
X289233387Y-170114595D01*
X289211277Y-170102777D01*
X289266956Y-169968356D01*
X289306000Y-169772067D01*
X289306000Y-169571933D01*
X289266956Y-169375644D01*
X289190368Y-169190744D01*
X289079179Y-169024338D01*
X288937662Y-168882821D01*
X288771256Y-168771632D01*
X288586356Y-168695044D01*
X288390067Y-168656000D01*
X288189933Y-168656000D01*
X287993644Y-168695044D01*
X287808744Y-168771632D01*
X287642338Y-168882821D01*
X287500821Y-169024338D01*
X287389632Y-169190744D01*
X287313044Y-169375644D01*
X287274000Y-169571933D01*
X287274000Y-169772067D01*
X287313044Y-169968356D01*
X287368723Y-170102777D01*
X287346613Y-170114595D01*
X287212038Y-170225038D01*
X287101595Y-170359613D01*
X287019528Y-170513149D01*
X286968992Y-170679745D01*
X286951928Y-170852999D01*
X286951928Y-171503001D01*
X286968992Y-171676255D01*
X287019528Y-171842851D01*
X287101595Y-171996387D01*
X287212038Y-172130962D01*
X287299816Y-172203000D01*
X287212038Y-172275038D01*
X287159546Y-172339000D01*
X285864235Y-172339000D01*
X277519499Y-163994264D01*
X277491659Y-163960341D01*
X277356291Y-163849247D01*
X277201851Y-163766697D01*
X277034274Y-163715864D01*
X276903667Y-163703000D01*
X293509546Y-163703000D01*
X293562038Y-163766962D01*
X293696613Y-163877405D01*
X293850149Y-163959472D01*
X294016745Y-164010008D01*
X294189999Y-164027072D01*
X295090001Y-164027072D01*
X295263255Y-164010008D01*
X295429851Y-163959472D01*
X295583387Y-163877405D01*
X295717962Y-163766962D01*
X295828405Y-163632387D01*
X295910472Y-163478851D01*
X295961008Y-163312255D01*
X295978072Y-163139001D01*
X295978072Y-162488999D01*
X295961008Y-162315745D01*
X295910472Y-162149149D01*
X295828405Y-161995613D01*
X295717962Y-161861038D01*
X295630184Y-161789000D01*
X295717962Y-161716962D01*
X295828405Y-161582387D01*
X295910472Y-161428851D01*
X295961008Y-161262255D01*
X295978072Y-161089001D01*
X295978072Y-160438999D01*
X295961008Y-160265745D01*
X295910472Y-160099149D01*
X295828405Y-159945613D01*
X295717962Y-159811038D01*
X295583387Y-159700595D01*
X295529000Y-159671524D01*
X295529000Y-159502269D01*
X295540368Y-159485256D01*
X295616956Y-159300356D01*
X295656000Y-159104067D01*
X295656000Y-158903933D01*
X295616956Y-158707644D01*
X295540368Y-158522744D01*
X295429179Y-158356338D01*
X295287662Y-158214821D01*
X295121256Y-158103632D01*
X294936356Y-158027044D01*
X294740067Y-157988000D01*
X294539933Y-157988000D01*
X294343644Y-158027044D01*
X294158744Y-158103632D01*
X293992338Y-158214821D01*
X293850821Y-158356338D01*
X293739632Y-158522744D01*
X293663044Y-158707644D01*
X293624000Y-158903933D01*
X293624000Y-159104067D01*
X293663044Y-159300356D01*
X293739632Y-159485256D01*
X293751000Y-159502270D01*
X293751000Y-159671524D01*
X293696613Y-159700595D01*
X293562038Y-159811038D01*
X293451595Y-159945613D01*
X293369528Y-160099149D01*
X293318992Y-160265745D01*
X293301928Y-160438999D01*
X293301928Y-161089001D01*
X293318992Y-161262255D01*
X293369528Y-161428851D01*
X293451595Y-161582387D01*
X293562038Y-161716962D01*
X293649816Y-161789000D01*
X293562038Y-161861038D01*
X293509546Y-161925000D01*
X170555668Y-161925000D01*
X170512000Y-161920699D01*
X170337725Y-161937864D01*
X170286892Y-161953284D01*
X170170149Y-161988697D01*
X170015709Y-162071247D01*
X169880341Y-162182341D01*
X169852506Y-162216258D01*
X153399807Y-178668958D01*
X153219033Y-178633000D01*
X152896967Y-178633000D01*
X152581088Y-178695832D01*
X152283537Y-178819082D01*
X152015748Y-178998013D01*
X151788013Y-179225748D01*
X151609082Y-179493537D01*
X151485832Y-179791088D01*
X151423000Y-180106967D01*
X151423000Y-180429033D01*
X151485832Y-180744912D01*
X151609082Y-181042463D01*
X151788013Y-181310252D01*
X152015748Y-181537987D01*
X152283537Y-181716918D01*
X152581088Y-181840168D01*
X152884287Y-181900478D01*
X150532259Y-184252506D01*
X150498342Y-184280341D01*
X150470507Y-184314258D01*
X150470505Y-184314260D01*
X150387248Y-184415709D01*
X150304698Y-184570148D01*
X150253864Y-184737726D01*
X150236700Y-184912000D01*
X129667000Y-184912000D01*
X129667000Y-180106967D01*
X144923000Y-180106967D01*
X144923000Y-180429033D01*
X144985832Y-180744912D01*
X145109082Y-181042463D01*
X145288013Y-181310252D01*
X145515748Y-181537987D01*
X145783537Y-181716918D01*
X146081088Y-181840168D01*
X146396967Y-181903000D01*
X146719033Y-181903000D01*
X147034912Y-181840168D01*
X147332463Y-181716918D01*
X147600252Y-181537987D01*
X147827987Y-181310252D01*
X148006918Y-181042463D01*
X148130168Y-180744912D01*
X148193000Y-180429033D01*
X148193000Y-180106967D01*
X148130168Y-179791088D01*
X148006918Y-179493537D01*
X147827987Y-179225748D01*
X147600252Y-178998013D01*
X147332463Y-178819082D01*
X147034912Y-178695832D01*
X146719033Y-178633000D01*
X146396967Y-178633000D01*
X146081088Y-178695832D01*
X145783537Y-178819082D01*
X145515748Y-178998013D01*
X145288013Y-179225748D01*
X145109082Y-179493537D01*
X144985832Y-179791088D01*
X144923000Y-180106967D01*
X129667000Y-180106967D01*
X129667000Y-176903413D01*
X145602192Y-176903413D01*
X145697956Y-177167814D01*
X145987571Y-177308704D01*
X146299108Y-177390384D01*
X146620595Y-177409718D01*
X146939675Y-177365961D01*
X147244088Y-177260795D01*
X147418044Y-177167814D01*
X147513808Y-176903413D01*
X152102192Y-176903413D01*
X152197956Y-177167814D01*
X152487571Y-177308704D01*
X152799108Y-177390384D01*
X153120595Y-177409718D01*
X153439675Y-177365961D01*
X153744088Y-177260795D01*
X153918044Y-177167814D01*
X154013808Y-176903413D01*
X153058000Y-175947605D01*
X152102192Y-176903413D01*
X147513808Y-176903413D01*
X146558000Y-175947605D01*
X145602192Y-176903413D01*
X129667000Y-176903413D01*
X129667000Y-175830595D01*
X144916282Y-175830595D01*
X144960039Y-176149675D01*
X145065205Y-176454088D01*
X145158186Y-176628044D01*
X145422587Y-176723808D01*
X146378395Y-175768000D01*
X146737605Y-175768000D01*
X147693413Y-176723808D01*
X147957814Y-176628044D01*
X148098704Y-176338429D01*
X148180384Y-176026892D01*
X148192189Y-175830595D01*
X151416282Y-175830595D01*
X151460039Y-176149675D01*
X151565205Y-176454088D01*
X151658186Y-176628044D01*
X151922587Y-176723808D01*
X152878395Y-175768000D01*
X153237605Y-175768000D01*
X154193413Y-176723808D01*
X154457814Y-176628044D01*
X154598704Y-176338429D01*
X154680384Y-176026892D01*
X154699718Y-175705405D01*
X154655961Y-175386325D01*
X154550795Y-175081912D01*
X154457814Y-174907956D01*
X154193413Y-174812192D01*
X153237605Y-175768000D01*
X152878395Y-175768000D01*
X151922587Y-174812192D01*
X151658186Y-174907956D01*
X151517296Y-175197571D01*
X151435616Y-175509108D01*
X151416282Y-175830595D01*
X148192189Y-175830595D01*
X148199718Y-175705405D01*
X148155961Y-175386325D01*
X148050795Y-175081912D01*
X147957814Y-174907956D01*
X147693413Y-174812192D01*
X146737605Y-175768000D01*
X146378395Y-175768000D01*
X145422587Y-174812192D01*
X145158186Y-174907956D01*
X145017296Y-175197571D01*
X144935616Y-175509108D01*
X144916282Y-175830595D01*
X129667000Y-175830595D01*
X129667000Y-174632587D01*
X145602192Y-174632587D01*
X146558000Y-175588395D01*
X147513808Y-174632587D01*
X152102192Y-174632587D01*
X153058000Y-175588395D01*
X154013808Y-174632587D01*
X153918044Y-174368186D01*
X153628429Y-174227296D01*
X153316892Y-174145616D01*
X152995405Y-174126282D01*
X152676325Y-174170039D01*
X152371912Y-174275205D01*
X152197956Y-174368186D01*
X152102192Y-174632587D01*
X147513808Y-174632587D01*
X147418044Y-174368186D01*
X147128429Y-174227296D01*
X146816892Y-174145616D01*
X146495405Y-174126282D01*
X146176325Y-174170039D01*
X145871912Y-174275205D01*
X145697956Y-174368186D01*
X145602192Y-174632587D01*
X129667000Y-174632587D01*
X129667000Y-89047560D01*
X224040000Y-89047560D01*
X224040000Y-89512440D01*
X224130694Y-89968387D01*
X224308595Y-90397879D01*
X224566868Y-90784412D01*
X224895588Y-91113132D01*
X225282121Y-91371405D01*
X225711613Y-91549306D01*
X226167560Y-91640000D01*
X226632440Y-91640000D01*
X227088387Y-91549306D01*
X227517879Y-91371405D01*
X227904412Y-91113132D01*
X228233132Y-90784412D01*
X228491405Y-90397879D01*
X228669306Y-89968387D01*
X228760000Y-89512440D01*
X228760000Y-89099761D01*
X288100000Y-89099761D01*
X288100000Y-89460239D01*
X288170325Y-89813791D01*
X288308275Y-90146830D01*
X288508546Y-90446557D01*
X288763443Y-90701454D01*
X289063170Y-90901725D01*
X289396209Y-91039675D01*
X289749761Y-91110000D01*
X290110239Y-91110000D01*
X290463791Y-91039675D01*
X290796830Y-90901725D01*
X291096557Y-90701454D01*
X291351454Y-90446557D01*
X291551725Y-90146830D01*
X291689675Y-89813791D01*
X291760000Y-89460239D01*
X291760000Y-89099761D01*
X291689675Y-88746209D01*
X291551725Y-88413170D01*
X291351454Y-88113443D01*
X291096557Y-87858546D01*
X290796830Y-87658275D01*
X290463791Y-87520325D01*
X290110239Y-87450000D01*
X289749761Y-87450000D01*
X289396209Y-87520325D01*
X289063170Y-87658275D01*
X288763443Y-87858546D01*
X288508546Y-88113443D01*
X288308275Y-88413170D01*
X288170325Y-88746209D01*
X288100000Y-89099761D01*
X228760000Y-89099761D01*
X228760000Y-89047560D01*
X228669306Y-88591613D01*
X228491405Y-88162121D01*
X228233132Y-87775588D01*
X227904412Y-87446868D01*
X227517879Y-87188595D01*
X227088387Y-87010694D01*
X226632440Y-86920000D01*
X226167560Y-86920000D01*
X225711613Y-87010694D01*
X225282121Y-87188595D01*
X224895588Y-87446868D01*
X224566868Y-87775588D01*
X224308595Y-88162121D01*
X224130694Y-88591613D01*
X224040000Y-89047560D01*
X129667000Y-89047560D01*
X129667000Y-73047560D01*
X279240000Y-73047560D01*
X279240000Y-73512440D01*
X279330694Y-73968387D01*
X279508595Y-74397879D01*
X279766868Y-74784412D01*
X280095588Y-75113132D01*
X280482121Y-75371405D01*
X280911613Y-75549306D01*
X281367560Y-75640000D01*
X281832440Y-75640000D01*
X282288387Y-75549306D01*
X282717879Y-75371405D01*
X283104412Y-75113132D01*
X283433132Y-74784412D01*
X283691405Y-74397879D01*
X283869306Y-73968387D01*
X283960000Y-73512440D01*
X283960000Y-73047560D01*
X283869306Y-72591613D01*
X283691405Y-72162121D01*
X283433132Y-71775588D01*
X283104412Y-71446868D01*
X282717879Y-71188595D01*
X282288387Y-71010694D01*
X281832440Y-70920000D01*
X281367560Y-70920000D01*
X280911613Y-71010694D01*
X280482121Y-71188595D01*
X280095588Y-71446868D01*
X279766868Y-71775588D01*
X279508595Y-72162121D01*
X279330694Y-72591613D01*
X279240000Y-73047560D01*
X129667000Y-73047560D01*
X129667000Y-66167000D01*
X429133000Y-66167000D01*
X429133000Y-340233000D01*
X429133000Y-340233000D01*
G37*
X429133000Y-340233000D02*
X129667000Y-340233000D01*
X129667000Y-241066967D01*
X144923000Y-241066967D01*
X144923000Y-241389033D01*
X144985832Y-241704912D01*
X145109082Y-242002463D01*
X145288013Y-242270252D01*
X145515748Y-242497987D01*
X145783537Y-242676918D01*
X146081088Y-242800168D01*
X146396967Y-242863000D01*
X146719033Y-242863000D01*
X147034912Y-242800168D01*
X147332463Y-242676918D01*
X147600252Y-242497987D01*
X147827987Y-242270252D01*
X148006918Y-242002463D01*
X148130168Y-241704912D01*
X148193000Y-241389033D01*
X148193000Y-241066967D01*
X148130168Y-240751088D01*
X148006918Y-240453537D01*
X147827987Y-240185748D01*
X147600252Y-239958013D01*
X147332463Y-239779082D01*
X147034912Y-239655832D01*
X146719033Y-239593000D01*
X146396967Y-239593000D01*
X146081088Y-239655832D01*
X145783537Y-239779082D01*
X145515748Y-239958013D01*
X145288013Y-240185748D01*
X145109082Y-240453537D01*
X144985832Y-240751088D01*
X144923000Y-241066967D01*
X129667000Y-241066967D01*
X129667000Y-237863413D01*
X145602192Y-237863413D01*
X145697956Y-238127814D01*
X145987571Y-238268704D01*
X146299108Y-238350384D01*
X146620595Y-238369718D01*
X146939675Y-238325961D01*
X147244088Y-238220795D01*
X147418044Y-238127814D01*
X147513808Y-237863413D01*
X146558000Y-236907605D01*
X145602192Y-237863413D01*
X129667000Y-237863413D01*
X129667000Y-236790595D01*
X144916282Y-236790595D01*
X144960039Y-237109675D01*
X145065205Y-237414088D01*
X145158186Y-237588044D01*
X145422587Y-237683808D01*
X146378395Y-236728000D01*
X146737605Y-236728000D01*
X147693413Y-237683808D01*
X147957814Y-237588044D01*
X148098704Y-237298429D01*
X148180384Y-236986892D01*
X148199718Y-236665405D01*
X148155961Y-236346325D01*
X148050795Y-236041912D01*
X147957814Y-235867956D01*
X147693413Y-235772192D01*
X146737605Y-236728000D01*
X146378395Y-236728000D01*
X145422587Y-235772192D01*
X145158186Y-235867956D01*
X145017296Y-236157571D01*
X144935616Y-236469108D01*
X144916282Y-236790595D01*
X129667000Y-236790595D01*
X129667000Y-235592587D01*
X145602192Y-235592587D01*
X146558000Y-236548395D01*
X147513808Y-235592587D01*
X147418044Y-235328186D01*
X147128429Y-235187296D01*
X146816892Y-235105616D01*
X146495405Y-235086282D01*
X146176325Y-235130039D01*
X145871912Y-235235205D01*
X145697956Y-235328186D01*
X145602192Y-235592587D01*
X129667000Y-235592587D01*
X129667000Y-220746967D01*
X144923000Y-220746967D01*
X144923000Y-221069033D01*
X144985832Y-221384912D01*
X145109082Y-221682463D01*
X145288013Y-221950252D01*
X145515748Y-222177987D01*
X145783537Y-222356918D01*
X146081088Y-222480168D01*
X146396967Y-222543000D01*
X146719033Y-222543000D01*
X147034912Y-222480168D01*
X147332463Y-222356918D01*
X147600252Y-222177987D01*
X147827987Y-221950252D01*
X148006918Y-221682463D01*
X148130168Y-221384912D01*
X148193000Y-221069033D01*
X148193000Y-220746967D01*
X148130168Y-220431088D01*
X148006918Y-220133537D01*
X147827987Y-219865748D01*
X147600252Y-219638013D01*
X147332463Y-219459082D01*
X147034912Y-219335832D01*
X146719033Y-219273000D01*
X146396967Y-219273000D01*
X146081088Y-219335832D01*
X145783537Y-219459082D01*
X145515748Y-219638013D01*
X145288013Y-219865748D01*
X145109082Y-220133537D01*
X144985832Y-220431088D01*
X144923000Y-220746967D01*
X129667000Y-220746967D01*
X129667000Y-217543413D01*
X145602192Y-217543413D01*
X145697956Y-217807814D01*
X145987571Y-217948704D01*
X146299108Y-218030384D01*
X146620595Y-218049718D01*
X146939675Y-218005961D01*
X147244088Y-217900795D01*
X147418044Y-217807814D01*
X147513808Y-217543413D01*
X146558000Y-216587605D01*
X145602192Y-217543413D01*
X129667000Y-217543413D01*
X129667000Y-216470595D01*
X144916282Y-216470595D01*
X144960039Y-216789675D01*
X145065205Y-217094088D01*
X145158186Y-217268044D01*
X145422587Y-217363808D01*
X146378395Y-216408000D01*
X146737605Y-216408000D01*
X147693413Y-217363808D01*
X147957814Y-217268044D01*
X148098704Y-216978429D01*
X148180384Y-216666892D01*
X148199718Y-216345405D01*
X148155961Y-216026325D01*
X148050795Y-215721912D01*
X147957814Y-215547956D01*
X147693413Y-215452192D01*
X146737605Y-216408000D01*
X146378395Y-216408000D01*
X145422587Y-215452192D01*
X145158186Y-215547956D01*
X145017296Y-215837571D01*
X144935616Y-216149108D01*
X144916282Y-216470595D01*
X129667000Y-216470595D01*
X129667000Y-215272587D01*
X145602192Y-215272587D01*
X146558000Y-216228395D01*
X147513808Y-215272587D01*
X147418044Y-215008186D01*
X147128429Y-214867296D01*
X146816892Y-214785616D01*
X146495405Y-214766282D01*
X146176325Y-214810039D01*
X145871912Y-214915205D01*
X145697956Y-215008186D01*
X145602192Y-215272587D01*
X129667000Y-215272587D01*
X129667000Y-200426967D01*
X144923000Y-200426967D01*
X144923000Y-200749033D01*
X144985832Y-201064912D01*
X145109082Y-201362463D01*
X145288013Y-201630252D01*
X145515748Y-201857987D01*
X145783537Y-202036918D01*
X146081088Y-202160168D01*
X146396967Y-202223000D01*
X146719033Y-202223000D01*
X147034912Y-202160168D01*
X147332463Y-202036918D01*
X147600252Y-201857987D01*
X147827987Y-201630252D01*
X148006918Y-201362463D01*
X148130168Y-201064912D01*
X148193000Y-200749033D01*
X148193000Y-200426967D01*
X148130168Y-200111088D01*
X148006918Y-199813537D01*
X147827987Y-199545748D01*
X147600252Y-199318013D01*
X147332463Y-199139082D01*
X147034912Y-199015832D01*
X146719033Y-198953000D01*
X146396967Y-198953000D01*
X146081088Y-199015832D01*
X145783537Y-199139082D01*
X145515748Y-199318013D01*
X145288013Y-199545748D01*
X145109082Y-199813537D01*
X144985832Y-200111088D01*
X144923000Y-200426967D01*
X129667000Y-200426967D01*
X129667000Y-197223413D01*
X145602192Y-197223413D01*
X145697956Y-197487814D01*
X145987571Y-197628704D01*
X146299108Y-197710384D01*
X146620595Y-197729718D01*
X146939675Y-197685961D01*
X147244088Y-197580795D01*
X147418044Y-197487814D01*
X147513808Y-197223413D01*
X146558000Y-196267605D01*
X145602192Y-197223413D01*
X129667000Y-197223413D01*
X129667000Y-196150595D01*
X144916282Y-196150595D01*
X144960039Y-196469675D01*
X145065205Y-196774088D01*
X145158186Y-196948044D01*
X145422587Y-197043808D01*
X146378395Y-196088000D01*
X146737605Y-196088000D01*
X147693413Y-197043808D01*
X147957814Y-196948044D01*
X148098704Y-196658429D01*
X148180384Y-196346892D01*
X148199718Y-196025405D01*
X148155961Y-195706325D01*
X148050795Y-195401912D01*
X147957814Y-195227956D01*
X147693413Y-195132192D01*
X146737605Y-196088000D01*
X146378395Y-196088000D01*
X145422587Y-195132192D01*
X145158186Y-195227956D01*
X145017296Y-195517571D01*
X144935616Y-195829108D01*
X144916282Y-196150595D01*
X129667000Y-196150595D01*
X129667000Y-194952587D01*
X145602192Y-194952587D01*
X146558000Y-195908395D01*
X147513808Y-194952587D01*
X147418044Y-194688186D01*
X147128429Y-194547296D01*
X146816892Y-194465616D01*
X146495405Y-194446282D01*
X146176325Y-194490039D01*
X145871912Y-194595205D01*
X145697956Y-194688186D01*
X145602192Y-194952587D01*
X129667000Y-194952587D01*
X129667000Y-184912000D01*
X150236700Y-184912000D01*
X150241001Y-184955670D01*
X150241000Y-239256340D01*
X150236700Y-239300000D01*
X150241000Y-239343660D01*
X150241000Y-239343666D01*
X150253864Y-239474273D01*
X150304697Y-239641850D01*
X150387247Y-239796290D01*
X150498341Y-239931659D01*
X150532264Y-239959499D01*
X151458958Y-240886193D01*
X151423000Y-241066967D01*
X151423000Y-241389033D01*
X151485832Y-241704912D01*
X151609082Y-242002463D01*
X151788013Y-242270252D01*
X152015748Y-242497987D01*
X152283537Y-242676918D01*
X152581088Y-242800168D01*
X152896967Y-242863000D01*
X153219033Y-242863000D01*
X153399807Y-242827042D01*
X193618506Y-283045742D01*
X193646341Y-283079659D01*
X193781709Y-283190753D01*
X193936149Y-283273303D01*
X194030758Y-283302002D01*
X194103725Y-283324136D01*
X194122073Y-283325943D01*
X194234333Y-283337000D01*
X194234339Y-283337000D01*
X194277999Y-283341300D01*
X194321659Y-283337000D01*
X222714340Y-283337000D01*
X222758000Y-283341300D01*
X222801660Y-283337000D01*
X224713524Y-283337000D01*
X224742595Y-283391387D01*
X224853038Y-283525962D01*
X224987613Y-283636405D01*
X225141149Y-283718472D01*
X225307745Y-283769008D01*
X225480999Y-283786072D01*
X226131001Y-283786072D01*
X226304255Y-283769008D01*
X226470851Y-283718472D01*
X226624387Y-283636405D01*
X226758962Y-283525962D01*
X226831000Y-283438184D01*
X226903038Y-283525962D01*
X227037613Y-283636405D01*
X227191149Y-283718472D01*
X227357745Y-283769008D01*
X227530999Y-283786072D01*
X228181001Y-283786072D01*
X228354255Y-283769008D01*
X228520851Y-283718472D01*
X228674387Y-283636405D01*
X228808962Y-283525962D01*
X228919405Y-283391387D01*
X228948476Y-283337000D01*
X229117731Y-283337000D01*
X229134744Y-283348368D01*
X229319644Y-283424956D01*
X229515933Y-283464000D01*
X229716067Y-283464000D01*
X229912356Y-283424956D01*
X230097256Y-283348368D01*
X230263662Y-283237179D01*
X230405179Y-283095662D01*
X230516368Y-282929256D01*
X230592956Y-282744356D01*
X230632000Y-282548067D01*
X230632000Y-282347933D01*
X230592956Y-282151644D01*
X230516368Y-281966744D01*
X230405179Y-281800338D01*
X230263662Y-281658821D01*
X230097256Y-281547632D01*
X229912356Y-281471044D01*
X229716067Y-281432000D01*
X229515933Y-281432000D01*
X229319644Y-281471044D01*
X229134744Y-281547632D01*
X229117731Y-281559000D01*
X228948476Y-281559000D01*
X228919405Y-281504613D01*
X228808962Y-281370038D01*
X228674387Y-281259595D01*
X228520851Y-281177528D01*
X228354255Y-281126992D01*
X228181001Y-281109928D01*
X227530999Y-281109928D01*
X227357745Y-281126992D01*
X227191149Y-281177528D01*
X227037613Y-281259595D01*
X226903038Y-281370038D01*
X226831000Y-281457816D01*
X226758962Y-281370038D01*
X226624387Y-281259595D01*
X226470851Y-281177528D01*
X226304255Y-281126992D01*
X226131001Y-281109928D01*
X225480999Y-281109928D01*
X225339357Y-281123878D01*
X225666236Y-280797000D01*
X273514340Y-280797000D01*
X273558000Y-280801300D01*
X273601660Y-280797000D01*
X273601667Y-280797000D01*
X273732274Y-280784136D01*
X273899851Y-280733303D01*
X274054291Y-280650753D01*
X274189659Y-280539659D01*
X274217499Y-280505736D01*
X276695743Y-278027493D01*
X276729659Y-277999659D01*
X276840753Y-277864291D01*
X276923303Y-277709851D01*
X276943296Y-277643942D01*
X276974136Y-277542276D01*
X276977406Y-277509076D01*
X276987000Y-277411667D01*
X276987000Y-277411661D01*
X276991300Y-277368001D01*
X276987000Y-277324341D01*
X276987000Y-254876235D01*
X278384940Y-253478296D01*
X278447038Y-253553962D01*
X278581613Y-253664405D01*
X278735149Y-253746472D01*
X278901745Y-253797008D01*
X279074999Y-253814072D01*
X279725001Y-253814072D01*
X279898255Y-253797008D01*
X280064851Y-253746472D01*
X280218387Y-253664405D01*
X280352962Y-253553962D01*
X280425000Y-253466184D01*
X280497038Y-253553962D01*
X280631613Y-253664405D01*
X280785149Y-253746472D01*
X280951745Y-253797008D01*
X281124999Y-253814072D01*
X281775001Y-253814072D01*
X281948255Y-253797008D01*
X282114851Y-253746472D01*
X282268387Y-253664405D01*
X282402962Y-253553962D01*
X282513405Y-253419387D01*
X282542476Y-253365000D01*
X283219731Y-253365000D01*
X283236744Y-253376368D01*
X283421644Y-253452956D01*
X283617933Y-253492000D01*
X283818067Y-253492000D01*
X284014356Y-253452956D01*
X284199256Y-253376368D01*
X284365662Y-253265179D01*
X284507179Y-253123662D01*
X284618368Y-252957256D01*
X284694956Y-252772356D01*
X284734000Y-252576067D01*
X284734000Y-252375933D01*
X284694956Y-252179644D01*
X284618368Y-251994744D01*
X284507179Y-251828338D01*
X284365662Y-251686821D01*
X284199256Y-251575632D01*
X284014356Y-251499044D01*
X283818067Y-251460000D01*
X283617933Y-251460000D01*
X283421644Y-251499044D01*
X283236744Y-251575632D01*
X283219731Y-251587000D01*
X282542476Y-251587000D01*
X282513405Y-251532613D01*
X282402962Y-251398038D01*
X282268387Y-251287595D01*
X282114851Y-251205528D01*
X281948255Y-251154992D01*
X281775001Y-251137928D01*
X281124999Y-251137928D01*
X280963390Y-251153845D01*
X286100235Y-246017000D01*
X301637546Y-246017000D01*
X301690038Y-246080962D01*
X301824613Y-246191405D01*
X301978149Y-246273472D01*
X302144745Y-246324008D01*
X302317999Y-246341072D01*
X302723837Y-246341072D01*
X304630506Y-248247742D01*
X304658341Y-248281659D01*
X304793709Y-248392753D01*
X304948149Y-248475303D01*
X305064892Y-248510716D01*
X305115725Y-248526136D01*
X305290000Y-248543301D01*
X305333668Y-248539000D01*
X327565524Y-248539000D01*
X327594595Y-248593387D01*
X327705038Y-248727962D01*
X327839613Y-248838405D01*
X327993149Y-248920472D01*
X328159745Y-248971008D01*
X328332999Y-248988072D01*
X328983001Y-248988072D01*
X329156255Y-248971008D01*
X329322851Y-248920472D01*
X329476387Y-248838405D01*
X329610962Y-248727962D01*
X329683000Y-248640184D01*
X329755038Y-248727962D01*
X329889613Y-248838405D01*
X330043149Y-248920472D01*
X330209745Y-248971008D01*
X330382999Y-248988072D01*
X331033001Y-248988072D01*
X331206255Y-248971008D01*
X331372851Y-248920472D01*
X331526387Y-248838405D01*
X331660962Y-248727962D01*
X331735125Y-248637594D01*
X331877933Y-248666000D01*
X332078067Y-248666000D01*
X332274356Y-248626956D01*
X332459256Y-248550368D01*
X332625662Y-248439179D01*
X332767179Y-248297662D01*
X332878368Y-248131256D01*
X332954956Y-247946356D01*
X332994000Y-247750067D01*
X332994000Y-247549933D01*
X332954956Y-247353644D01*
X332878368Y-247168744D01*
X332767179Y-247002338D01*
X332625662Y-246860821D01*
X332459256Y-246749632D01*
X332274356Y-246673044D01*
X332078067Y-246634000D01*
X331877933Y-246634000D01*
X331735125Y-246662406D01*
X331660962Y-246572038D01*
X331526387Y-246461595D01*
X331372851Y-246379528D01*
X331206255Y-246328992D01*
X331033001Y-246311928D01*
X330382999Y-246311928D01*
X330209745Y-246328992D01*
X330043149Y-246379528D01*
X329889613Y-246461595D01*
X329755038Y-246572038D01*
X329683000Y-246659816D01*
X329610962Y-246572038D01*
X329476387Y-246461595D01*
X329322851Y-246379528D01*
X329156255Y-246328992D01*
X328983001Y-246311928D01*
X328332999Y-246311928D01*
X328159745Y-246328992D01*
X327993149Y-246379528D01*
X327839613Y-246461595D01*
X327705038Y-246572038D01*
X327594595Y-246706613D01*
X327565524Y-246761000D01*
X305658236Y-246761000D01*
X304106072Y-245208837D01*
X304106072Y-244802999D01*
X304089008Y-244629745D01*
X304038472Y-244463149D01*
X303956405Y-244309613D01*
X303845962Y-244175038D01*
X303758184Y-244103000D01*
X303845962Y-244030962D01*
X303956405Y-243896387D01*
X304038472Y-243742851D01*
X304089008Y-243576255D01*
X304106072Y-243403001D01*
X304106072Y-242752999D01*
X304089008Y-242579745D01*
X304038472Y-242413149D01*
X303956405Y-242259613D01*
X303845962Y-242125038D01*
X303711387Y-242014595D01*
X303657000Y-241985524D01*
X303657000Y-241798267D01*
X303668368Y-241781254D01*
X303744956Y-241596354D01*
X303784000Y-241400065D01*
X303784000Y-241199931D01*
X303744956Y-241003642D01*
X303668368Y-240818742D01*
X303557179Y-240652336D01*
X303415662Y-240510819D01*
X303249256Y-240399630D01*
X303064356Y-240323042D01*
X302868067Y-240283998D01*
X302667933Y-240283998D01*
X302471644Y-240323042D01*
X302286744Y-240399630D01*
X302120338Y-240510819D01*
X301978821Y-240652336D01*
X301867632Y-240818742D01*
X301791044Y-241003642D01*
X301752000Y-241199931D01*
X301752000Y-241400065D01*
X301791044Y-241596354D01*
X301867632Y-241781254D01*
X301879001Y-241798268D01*
X301879000Y-241985524D01*
X301824613Y-242014595D01*
X301690038Y-242125038D01*
X301579595Y-242259613D01*
X301497528Y-242413149D01*
X301446992Y-242579745D01*
X301429928Y-242752999D01*
X301429928Y-243403001D01*
X301446992Y-243576255D01*
X301497528Y-243742851D01*
X301579595Y-243896387D01*
X301690038Y-244030962D01*
X301777816Y-244103000D01*
X301690038Y-244175038D01*
X301637546Y-244239000D01*
X285775659Y-244239000D01*
X285731999Y-244234700D01*
X285688339Y-244239000D01*
X285688333Y-244239000D01*
X285590924Y-244248594D01*
X285557724Y-244251864D01*
X285456058Y-244282704D01*
X285390149Y-244302697D01*
X285235709Y-244385247D01*
X285100341Y-244496341D01*
X285072501Y-244530264D01*
X278802259Y-250800506D01*
X278768342Y-250828341D01*
X278740507Y-250862258D01*
X278740505Y-250862260D01*
X278657248Y-250963709D01*
X278574698Y-251118148D01*
X278523864Y-251285726D01*
X278518586Y-251339320D01*
X278447038Y-251398038D01*
X278336595Y-251532613D01*
X278307524Y-251587000D01*
X278173660Y-251587000D01*
X278130000Y-251582700D01*
X278086340Y-251587000D01*
X278086333Y-251587000D01*
X277972325Y-251598229D01*
X277955725Y-251599864D01*
X277882758Y-251621998D01*
X277788149Y-251650697D01*
X277633709Y-251733247D01*
X277498341Y-251844341D01*
X277470506Y-251878258D01*
X275500259Y-253848506D01*
X275466342Y-253876341D01*
X275438507Y-253910258D01*
X275438505Y-253910260D01*
X275355248Y-254011709D01*
X275272698Y-254166148D01*
X275221864Y-254333726D01*
X275204700Y-254508000D01*
X275209001Y-254551670D01*
X275209000Y-276999764D01*
X273189765Y-279019000D01*
X225341659Y-279019000D01*
X225297999Y-279014700D01*
X225254339Y-279019000D01*
X225254333Y-279019000D01*
X225156924Y-279028594D01*
X225123724Y-279031864D01*
X225022058Y-279062704D01*
X224956149Y-279082697D01*
X224801709Y-279165247D01*
X224666341Y-279276341D01*
X224638506Y-279310258D01*
X222389765Y-281559000D01*
X194646236Y-281559000D01*
X154657042Y-241569807D01*
X154693000Y-241389033D01*
X154693000Y-241066967D01*
X154630168Y-240751088D01*
X154506918Y-240453537D01*
X154327987Y-240185748D01*
X154100252Y-239958013D01*
X153832463Y-239779082D01*
X153534912Y-239655832D01*
X153219033Y-239593000D01*
X152896967Y-239593000D01*
X152716193Y-239628958D01*
X152019000Y-238931765D01*
X152019000Y-237946608D01*
X152102193Y-237863415D01*
X152197956Y-238127814D01*
X152487571Y-238268704D01*
X152799108Y-238350384D01*
X153120595Y-238369718D01*
X153439675Y-238325961D01*
X153744088Y-238220795D01*
X153918044Y-238127814D01*
X154013808Y-237863413D01*
X153058000Y-236907605D01*
X153043858Y-236921748D01*
X152864253Y-236742143D01*
X152878395Y-236728000D01*
X153237605Y-236728000D01*
X154193413Y-237683808D01*
X154457814Y-237588044D01*
X154598704Y-237298429D01*
X154680384Y-236986892D01*
X154699718Y-236665405D01*
X154655961Y-236346325D01*
X154550795Y-236041912D01*
X154457814Y-235867956D01*
X154193413Y-235772192D01*
X153237605Y-236728000D01*
X152878395Y-236728000D01*
X152864253Y-236713858D01*
X153043858Y-236534253D01*
X153058000Y-236548395D01*
X154013808Y-235592587D01*
X153918044Y-235328186D01*
X153628429Y-235187296D01*
X153316892Y-235105616D01*
X152995405Y-235086282D01*
X152676325Y-235130039D01*
X152371912Y-235235205D01*
X152197956Y-235328186D01*
X152102193Y-235592585D01*
X152019000Y-235509392D01*
X152019000Y-222180160D01*
X152283537Y-222356918D01*
X152581088Y-222480168D01*
X152896967Y-222543000D01*
X153219033Y-222543000D01*
X153399807Y-222507042D01*
X200222501Y-269329736D01*
X200250341Y-269363659D01*
X200385709Y-269474753D01*
X200540149Y-269557303D01*
X200606058Y-269577296D01*
X200707724Y-269608136D01*
X200740924Y-269611406D01*
X200838333Y-269621000D01*
X200838339Y-269621000D01*
X200881999Y-269625300D01*
X200925659Y-269621000D01*
X272427546Y-269621000D01*
X272480038Y-269684962D01*
X272556850Y-269748000D01*
X272441933Y-269748000D01*
X272245644Y-269787044D01*
X272060744Y-269863632D01*
X271894338Y-269974821D01*
X271752821Y-270116338D01*
X271641632Y-270282744D01*
X271565044Y-270467644D01*
X271526000Y-270663933D01*
X271526000Y-270864067D01*
X271565044Y-271060356D01*
X271641632Y-271245256D01*
X271752821Y-271411662D01*
X271894338Y-271553179D01*
X272060744Y-271664368D01*
X272245644Y-271740956D01*
X272441933Y-271780000D01*
X272534917Y-271780000D01*
X272614613Y-271845405D01*
X272768149Y-271927472D01*
X272934745Y-271978008D01*
X273107999Y-271995072D01*
X274008001Y-271995072D01*
X274181255Y-271978008D01*
X274347851Y-271927472D01*
X274501387Y-271845405D01*
X274635962Y-271734962D01*
X274746405Y-271600387D01*
X274828472Y-271446851D01*
X274879008Y-271280255D01*
X274896072Y-271107001D01*
X274896072Y-270456999D01*
X274879008Y-270283745D01*
X274828472Y-270117149D01*
X274746405Y-269963613D01*
X274635962Y-269829038D01*
X274548184Y-269757000D01*
X274635962Y-269684962D01*
X274746405Y-269550387D01*
X274828472Y-269396851D01*
X274879008Y-269230255D01*
X274896072Y-269057001D01*
X274896072Y-268406999D01*
X274879008Y-268233745D01*
X274828472Y-268067149D01*
X274746405Y-267913613D01*
X274635962Y-267779038D01*
X274501387Y-267668595D01*
X274347851Y-267586528D01*
X274181255Y-267535992D01*
X274008001Y-267518928D01*
X273107999Y-267518928D01*
X272934745Y-267535992D01*
X272768149Y-267586528D01*
X272614613Y-267668595D01*
X272480038Y-267779038D01*
X272427546Y-267843000D01*
X201250235Y-267843000D01*
X154657042Y-221249807D01*
X154693000Y-221069033D01*
X154693000Y-220746967D01*
X154630168Y-220431088D01*
X154506918Y-220133537D01*
X154327987Y-219865748D01*
X154100252Y-219638013D01*
X153832463Y-219459082D01*
X153534912Y-219335832D01*
X153219033Y-219273000D01*
X152896967Y-219273000D01*
X152581088Y-219335832D01*
X152283537Y-219459082D01*
X152019000Y-219635840D01*
X152019000Y-217626608D01*
X152102193Y-217543415D01*
X152197956Y-217807814D01*
X152487571Y-217948704D01*
X152799108Y-218030384D01*
X153120595Y-218049718D01*
X153439675Y-218005961D01*
X153744088Y-217900795D01*
X153918044Y-217807814D01*
X154013808Y-217543413D01*
X153058000Y-216587605D01*
X153043858Y-216601748D01*
X152864253Y-216422143D01*
X152878395Y-216408000D01*
X153237605Y-216408000D01*
X154193413Y-217363808D01*
X154457814Y-217268044D01*
X154598704Y-216978429D01*
X154680384Y-216666892D01*
X154699718Y-216345405D01*
X154655961Y-216026325D01*
X154550795Y-215721912D01*
X154457814Y-215547956D01*
X154193413Y-215452192D01*
X153237605Y-216408000D01*
X152878395Y-216408000D01*
X152864253Y-216393858D01*
X153043858Y-216214253D01*
X153058000Y-216228395D01*
X154013808Y-215272587D01*
X153918044Y-215008186D01*
X153628429Y-214867296D01*
X153316892Y-214785616D01*
X152995405Y-214766282D01*
X152676325Y-214810039D01*
X152371912Y-214915205D01*
X152197956Y-215008186D01*
X152102193Y-215272585D01*
X152019000Y-215189392D01*
X152019000Y-201860160D01*
X152283537Y-202036918D01*
X152581088Y-202160168D01*
X152896967Y-202223000D01*
X153219033Y-202223000D01*
X153399807Y-202187042D01*
X160344506Y-209131742D01*
X160372341Y-209165659D01*
X160507709Y-209276753D01*
X160662149Y-209359303D01*
X160756758Y-209388002D01*
X160829725Y-209410136D01*
X160846325Y-209411771D01*
X160960333Y-209423000D01*
X160960340Y-209423000D01*
X161004000Y-209427300D01*
X161047660Y-209423000D01*
X304197524Y-209423000D01*
X304226595Y-209477387D01*
X304337038Y-209611962D01*
X304471613Y-209722405D01*
X304625149Y-209804472D01*
X304791745Y-209855008D01*
X304964999Y-209872072D01*
X305615001Y-209872072D01*
X305788255Y-209855008D01*
X305954851Y-209804472D01*
X306108387Y-209722405D01*
X306242962Y-209611962D01*
X306315000Y-209524184D01*
X306387038Y-209611962D01*
X306521613Y-209722405D01*
X306675149Y-209804472D01*
X306841745Y-209855008D01*
X307014999Y-209872072D01*
X307665001Y-209872072D01*
X307838255Y-209855008D01*
X308004851Y-209804472D01*
X308158387Y-209722405D01*
X308292962Y-209611962D01*
X308403405Y-209477387D01*
X308432476Y-209423000D01*
X309127731Y-209423000D01*
X309144744Y-209434368D01*
X309329644Y-209510956D01*
X309525933Y-209550000D01*
X309726067Y-209550000D01*
X309922356Y-209510956D01*
X310107256Y-209434368D01*
X310273662Y-209323179D01*
X310415179Y-209181662D01*
X310526368Y-209015256D01*
X310602956Y-208830356D01*
X310642000Y-208634067D01*
X310642000Y-208433933D01*
X310602956Y-208237644D01*
X310526368Y-208052744D01*
X310415179Y-207886338D01*
X310273662Y-207744821D01*
X310107256Y-207633632D01*
X309922356Y-207557044D01*
X309726067Y-207518000D01*
X309525933Y-207518000D01*
X309329644Y-207557044D01*
X309144744Y-207633632D01*
X309127731Y-207645000D01*
X308432476Y-207645000D01*
X308403405Y-207590613D01*
X308292962Y-207456038D01*
X308158387Y-207345595D01*
X308004851Y-207263528D01*
X307838255Y-207212992D01*
X307665001Y-207195928D01*
X307014999Y-207195928D01*
X306841745Y-207212992D01*
X306675149Y-207263528D01*
X306521613Y-207345595D01*
X306387038Y-207456038D01*
X306315000Y-207543816D01*
X306242962Y-207456038D01*
X306179000Y-207403546D01*
X306179000Y-207396235D01*
X403720235Y-109855000D01*
X403783524Y-109855000D01*
X403812595Y-109909387D01*
X403923038Y-110043962D01*
X404057613Y-110154405D01*
X404211149Y-110236472D01*
X404377745Y-110287008D01*
X404550999Y-110304072D01*
X405201001Y-110304072D01*
X405374255Y-110287008D01*
X405540851Y-110236472D01*
X405694387Y-110154405D01*
X405828962Y-110043962D01*
X405901000Y-109956184D01*
X405973038Y-110043962D01*
X406107613Y-110154405D01*
X406261149Y-110236472D01*
X406427745Y-110287008D01*
X406600999Y-110304072D01*
X407251001Y-110304072D01*
X407424255Y-110287008D01*
X407590851Y-110236472D01*
X407744387Y-110154405D01*
X407878962Y-110043962D01*
X407989405Y-109909387D01*
X408071472Y-109755851D01*
X408122008Y-109589255D01*
X408139072Y-109416001D01*
X408139072Y-109093000D01*
X408187731Y-109093000D01*
X408204744Y-109104368D01*
X408389644Y-109180956D01*
X408585933Y-109220000D01*
X408786067Y-109220000D01*
X408982356Y-109180956D01*
X409167256Y-109104368D01*
X409333662Y-108993179D01*
X409475179Y-108851662D01*
X409586368Y-108685256D01*
X409662956Y-108500356D01*
X409702000Y-108304067D01*
X409702000Y-108103933D01*
X409662956Y-107907644D01*
X409586368Y-107722744D01*
X409475179Y-107556338D01*
X409333662Y-107414821D01*
X409167256Y-107303632D01*
X408982356Y-107227044D01*
X408786067Y-107188000D01*
X408585933Y-107188000D01*
X408389644Y-107227044D01*
X408204744Y-107303632D01*
X408187731Y-107315000D01*
X407731660Y-107315000D01*
X407688000Y-107310700D01*
X407644340Y-107315000D01*
X407644333Y-107315000D01*
X407530325Y-107326229D01*
X407513725Y-107327864D01*
X407462892Y-107343284D01*
X407346149Y-107378697D01*
X407191709Y-107461247D01*
X407056341Y-107572341D01*
X407028505Y-107606259D01*
X407006836Y-107627928D01*
X406600999Y-107627928D01*
X406427745Y-107644992D01*
X406261149Y-107695528D01*
X406107613Y-107777595D01*
X405973038Y-107888038D01*
X405901000Y-107975816D01*
X405828962Y-107888038D01*
X405694387Y-107777595D01*
X405540851Y-107695528D01*
X405374255Y-107644992D01*
X405201001Y-107627928D01*
X404550999Y-107627928D01*
X404377745Y-107644992D01*
X404211149Y-107695528D01*
X404057613Y-107777595D01*
X403923038Y-107888038D01*
X403812595Y-108022613D01*
X403783524Y-108077000D01*
X403395659Y-108077000D01*
X403351999Y-108072700D01*
X403308339Y-108077000D01*
X403308333Y-108077000D01*
X403210924Y-108086594D01*
X403177724Y-108089864D01*
X403076058Y-108120704D01*
X403010149Y-108140697D01*
X402855709Y-108223247D01*
X402720341Y-108334341D01*
X402692501Y-108368264D01*
X304692259Y-206368506D01*
X304658342Y-206396341D01*
X304630507Y-206430258D01*
X304630505Y-206430260D01*
X304547248Y-206531709D01*
X304464698Y-206686148D01*
X304413864Y-206853726D01*
X304396700Y-207028000D01*
X304401001Y-207071669D01*
X304401001Y-207403545D01*
X304337038Y-207456038D01*
X304226595Y-207590613D01*
X304197524Y-207645000D01*
X161372236Y-207645000D01*
X154657042Y-200929807D01*
X154693000Y-200749033D01*
X154693000Y-200426967D01*
X154630168Y-200111088D01*
X154506918Y-199813537D01*
X154327987Y-199545748D01*
X154100252Y-199318013D01*
X153832463Y-199139082D01*
X153534912Y-199015832D01*
X153219033Y-198953000D01*
X152896967Y-198953000D01*
X152581088Y-199015832D01*
X152283537Y-199139082D01*
X152019000Y-199315840D01*
X152019000Y-197306608D01*
X152102193Y-197223415D01*
X152197956Y-197487814D01*
X152487571Y-197628704D01*
X152799108Y-197710384D01*
X153120595Y-197729718D01*
X153439675Y-197685961D01*
X153744088Y-197580795D01*
X153918044Y-197487814D01*
X154013808Y-197223413D01*
X153058000Y-196267605D01*
X153043858Y-196281748D01*
X152864253Y-196102143D01*
X152878395Y-196088000D01*
X153237605Y-196088000D01*
X154193413Y-197043808D01*
X154457814Y-196948044D01*
X154598704Y-196658429D01*
X154680384Y-196346892D01*
X154699718Y-196025405D01*
X154655961Y-195706325D01*
X154550795Y-195401912D01*
X154457814Y-195227956D01*
X154193413Y-195132192D01*
X153237605Y-196088000D01*
X152878395Y-196088000D01*
X152864253Y-196073858D01*
X153043858Y-195894253D01*
X153058000Y-195908395D01*
X154013808Y-194952587D01*
X153918044Y-194688186D01*
X153628429Y-194547296D01*
X153316892Y-194465616D01*
X152995405Y-194446282D01*
X152676325Y-194490039D01*
X152371912Y-194595205D01*
X152197956Y-194688186D01*
X152102193Y-194952585D01*
X152019000Y-194869392D01*
X152019000Y-185280235D01*
X171818236Y-165481000D01*
X276491765Y-165481000D01*
X284836501Y-173825736D01*
X284864341Y-173859659D01*
X284999709Y-173970753D01*
X285154149Y-174053303D01*
X285220058Y-174073296D01*
X285321724Y-174104136D01*
X285354924Y-174107406D01*
X285452333Y-174117000D01*
X285452339Y-174117000D01*
X285495999Y-174121300D01*
X285539659Y-174117000D01*
X287159546Y-174117000D01*
X287212038Y-174180962D01*
X287346613Y-174291405D01*
X287500149Y-174373472D01*
X287666745Y-174424008D01*
X287839999Y-174441072D01*
X288740001Y-174441072D01*
X288913255Y-174424008D01*
X289079851Y-174373472D01*
X289233387Y-174291405D01*
X289367962Y-174180962D01*
X289478405Y-174046387D01*
X289560472Y-173892851D01*
X289611008Y-173726255D01*
X289628072Y-173553001D01*
X289628072Y-172902999D01*
X289611008Y-172729745D01*
X289560472Y-172563149D01*
X289478405Y-172409613D01*
X289367962Y-172275038D01*
X289280184Y-172203000D01*
X289367962Y-172130962D01*
X289478405Y-171996387D01*
X289560472Y-171842851D01*
X289611008Y-171676255D01*
X289628072Y-171503001D01*
X289628072Y-170852999D01*
X289611008Y-170679745D01*
X289560472Y-170513149D01*
X289478405Y-170359613D01*
X289367962Y-170225038D01*
X289233387Y-170114595D01*
X289211277Y-170102777D01*
X289266956Y-169968356D01*
X289306000Y-169772067D01*
X289306000Y-169571933D01*
X289266956Y-169375644D01*
X289190368Y-169190744D01*
X289079179Y-169024338D01*
X288937662Y-168882821D01*
X288771256Y-168771632D01*
X288586356Y-168695044D01*
X288390067Y-168656000D01*
X288189933Y-168656000D01*
X287993644Y-168695044D01*
X287808744Y-168771632D01*
X287642338Y-168882821D01*
X287500821Y-169024338D01*
X287389632Y-169190744D01*
X287313044Y-169375644D01*
X287274000Y-169571933D01*
X287274000Y-169772067D01*
X287313044Y-169968356D01*
X287368723Y-170102777D01*
X287346613Y-170114595D01*
X287212038Y-170225038D01*
X287101595Y-170359613D01*
X287019528Y-170513149D01*
X286968992Y-170679745D01*
X286951928Y-170852999D01*
X286951928Y-171503001D01*
X286968992Y-171676255D01*
X287019528Y-171842851D01*
X287101595Y-171996387D01*
X287212038Y-172130962D01*
X287299816Y-172203000D01*
X287212038Y-172275038D01*
X287159546Y-172339000D01*
X285864235Y-172339000D01*
X277519499Y-163994264D01*
X277491659Y-163960341D01*
X277356291Y-163849247D01*
X277201851Y-163766697D01*
X277034274Y-163715864D01*
X276903667Y-163703000D01*
X293509546Y-163703000D01*
X293562038Y-163766962D01*
X293696613Y-163877405D01*
X293850149Y-163959472D01*
X294016745Y-164010008D01*
X294189999Y-164027072D01*
X295090001Y-164027072D01*
X295263255Y-164010008D01*
X295429851Y-163959472D01*
X295583387Y-163877405D01*
X295717962Y-163766962D01*
X295828405Y-163632387D01*
X295910472Y-163478851D01*
X295961008Y-163312255D01*
X295978072Y-163139001D01*
X295978072Y-162488999D01*
X295961008Y-162315745D01*
X295910472Y-162149149D01*
X295828405Y-161995613D01*
X295717962Y-161861038D01*
X295630184Y-161789000D01*
X295717962Y-161716962D01*
X295828405Y-161582387D01*
X295910472Y-161428851D01*
X295961008Y-161262255D01*
X295978072Y-161089001D01*
X295978072Y-160438999D01*
X295961008Y-160265745D01*
X295910472Y-160099149D01*
X295828405Y-159945613D01*
X295717962Y-159811038D01*
X295583387Y-159700595D01*
X295529000Y-159671524D01*
X295529000Y-159502269D01*
X295540368Y-159485256D01*
X295616956Y-159300356D01*
X295656000Y-159104067D01*
X295656000Y-158903933D01*
X295616956Y-158707644D01*
X295540368Y-158522744D01*
X295429179Y-158356338D01*
X295287662Y-158214821D01*
X295121256Y-158103632D01*
X294936356Y-158027044D01*
X294740067Y-157988000D01*
X294539933Y-157988000D01*
X294343644Y-158027044D01*
X294158744Y-158103632D01*
X293992338Y-158214821D01*
X293850821Y-158356338D01*
X293739632Y-158522744D01*
X293663044Y-158707644D01*
X293624000Y-158903933D01*
X293624000Y-159104067D01*
X293663044Y-159300356D01*
X293739632Y-159485256D01*
X293751000Y-159502270D01*
X293751000Y-159671524D01*
X293696613Y-159700595D01*
X293562038Y-159811038D01*
X293451595Y-159945613D01*
X293369528Y-160099149D01*
X293318992Y-160265745D01*
X293301928Y-160438999D01*
X293301928Y-161089001D01*
X293318992Y-161262255D01*
X293369528Y-161428851D01*
X293451595Y-161582387D01*
X293562038Y-161716962D01*
X293649816Y-161789000D01*
X293562038Y-161861038D01*
X293509546Y-161925000D01*
X170555668Y-161925000D01*
X170512000Y-161920699D01*
X170337725Y-161937864D01*
X170286892Y-161953284D01*
X170170149Y-161988697D01*
X170015709Y-162071247D01*
X169880341Y-162182341D01*
X169852506Y-162216258D01*
X153399807Y-178668958D01*
X153219033Y-178633000D01*
X152896967Y-178633000D01*
X152581088Y-178695832D01*
X152283537Y-178819082D01*
X152015748Y-178998013D01*
X151788013Y-179225748D01*
X151609082Y-179493537D01*
X151485832Y-179791088D01*
X151423000Y-180106967D01*
X151423000Y-180429033D01*
X151485832Y-180744912D01*
X151609082Y-181042463D01*
X151788013Y-181310252D01*
X152015748Y-181537987D01*
X152283537Y-181716918D01*
X152581088Y-181840168D01*
X152884287Y-181900478D01*
X150532259Y-184252506D01*
X150498342Y-184280341D01*
X150470507Y-184314258D01*
X150470505Y-184314260D01*
X150387248Y-184415709D01*
X150304698Y-184570148D01*
X150253864Y-184737726D01*
X150236700Y-184912000D01*
X129667000Y-184912000D01*
X129667000Y-180106967D01*
X144923000Y-180106967D01*
X144923000Y-180429033D01*
X144985832Y-180744912D01*
X145109082Y-181042463D01*
X145288013Y-181310252D01*
X145515748Y-181537987D01*
X145783537Y-181716918D01*
X146081088Y-181840168D01*
X146396967Y-181903000D01*
X146719033Y-181903000D01*
X147034912Y-181840168D01*
X147332463Y-181716918D01*
X147600252Y-181537987D01*
X147827987Y-181310252D01*
X148006918Y-181042463D01*
X148130168Y-180744912D01*
X148193000Y-180429033D01*
X148193000Y-180106967D01*
X148130168Y-179791088D01*
X148006918Y-179493537D01*
X147827987Y-179225748D01*
X147600252Y-178998013D01*
X147332463Y-178819082D01*
X147034912Y-178695832D01*
X146719033Y-178633000D01*
X146396967Y-178633000D01*
X146081088Y-178695832D01*
X145783537Y-178819082D01*
X145515748Y-178998013D01*
X145288013Y-179225748D01*
X145109082Y-179493537D01*
X144985832Y-179791088D01*
X144923000Y-180106967D01*
X129667000Y-180106967D01*
X129667000Y-176903413D01*
X145602192Y-176903413D01*
X145697956Y-177167814D01*
X145987571Y-177308704D01*
X146299108Y-177390384D01*
X146620595Y-177409718D01*
X146939675Y-177365961D01*
X147244088Y-177260795D01*
X147418044Y-177167814D01*
X147513808Y-176903413D01*
X152102192Y-176903413D01*
X152197956Y-177167814D01*
X152487571Y-177308704D01*
X152799108Y-177390384D01*
X153120595Y-177409718D01*
X153439675Y-177365961D01*
X153744088Y-177260795D01*
X153918044Y-177167814D01*
X154013808Y-176903413D01*
X153058000Y-175947605D01*
X152102192Y-176903413D01*
X147513808Y-176903413D01*
X146558000Y-175947605D01*
X145602192Y-176903413D01*
X129667000Y-176903413D01*
X129667000Y-175830595D01*
X144916282Y-175830595D01*
X144960039Y-176149675D01*
X145065205Y-176454088D01*
X145158186Y-176628044D01*
X145422587Y-176723808D01*
X146378395Y-175768000D01*
X146737605Y-175768000D01*
X147693413Y-176723808D01*
X147957814Y-176628044D01*
X148098704Y-176338429D01*
X148180384Y-176026892D01*
X148192189Y-175830595D01*
X151416282Y-175830595D01*
X151460039Y-176149675D01*
X151565205Y-176454088D01*
X151658186Y-176628044D01*
X151922587Y-176723808D01*
X152878395Y-175768000D01*
X153237605Y-175768000D01*
X154193413Y-176723808D01*
X154457814Y-176628044D01*
X154598704Y-176338429D01*
X154680384Y-176026892D01*
X154699718Y-175705405D01*
X154655961Y-175386325D01*
X154550795Y-175081912D01*
X154457814Y-174907956D01*
X154193413Y-174812192D01*
X153237605Y-175768000D01*
X152878395Y-175768000D01*
X151922587Y-174812192D01*
X151658186Y-174907956D01*
X151517296Y-175197571D01*
X151435616Y-175509108D01*
X151416282Y-175830595D01*
X148192189Y-175830595D01*
X148199718Y-175705405D01*
X148155961Y-175386325D01*
X148050795Y-175081912D01*
X147957814Y-174907956D01*
X147693413Y-174812192D01*
X146737605Y-175768000D01*
X146378395Y-175768000D01*
X145422587Y-174812192D01*
X145158186Y-174907956D01*
X145017296Y-175197571D01*
X144935616Y-175509108D01*
X144916282Y-175830595D01*
X129667000Y-175830595D01*
X129667000Y-174632587D01*
X145602192Y-174632587D01*
X146558000Y-175588395D01*
X147513808Y-174632587D01*
X152102192Y-174632587D01*
X153058000Y-175588395D01*
X154013808Y-174632587D01*
X153918044Y-174368186D01*
X153628429Y-174227296D01*
X153316892Y-174145616D01*
X152995405Y-174126282D01*
X152676325Y-174170039D01*
X152371912Y-174275205D01*
X152197956Y-174368186D01*
X152102192Y-174632587D01*
X147513808Y-174632587D01*
X147418044Y-174368186D01*
X147128429Y-174227296D01*
X146816892Y-174145616D01*
X146495405Y-174126282D01*
X146176325Y-174170039D01*
X145871912Y-174275205D01*
X145697956Y-174368186D01*
X145602192Y-174632587D01*
X129667000Y-174632587D01*
X129667000Y-89047560D01*
X224040000Y-89047560D01*
X224040000Y-89512440D01*
X224130694Y-89968387D01*
X224308595Y-90397879D01*
X224566868Y-90784412D01*
X224895588Y-91113132D01*
X225282121Y-91371405D01*
X225711613Y-91549306D01*
X226167560Y-91640000D01*
X226632440Y-91640000D01*
X227088387Y-91549306D01*
X227517879Y-91371405D01*
X227904412Y-91113132D01*
X228233132Y-90784412D01*
X228491405Y-90397879D01*
X228669306Y-89968387D01*
X228760000Y-89512440D01*
X228760000Y-89099761D01*
X288100000Y-89099761D01*
X288100000Y-89460239D01*
X288170325Y-89813791D01*
X288308275Y-90146830D01*
X288508546Y-90446557D01*
X288763443Y-90701454D01*
X289063170Y-90901725D01*
X289396209Y-91039675D01*
X289749761Y-91110000D01*
X290110239Y-91110000D01*
X290463791Y-91039675D01*
X290796830Y-90901725D01*
X291096557Y-90701454D01*
X291351454Y-90446557D01*
X291551725Y-90146830D01*
X291689675Y-89813791D01*
X291760000Y-89460239D01*
X291760000Y-89099761D01*
X291689675Y-88746209D01*
X291551725Y-88413170D01*
X291351454Y-88113443D01*
X291096557Y-87858546D01*
X290796830Y-87658275D01*
X290463791Y-87520325D01*
X290110239Y-87450000D01*
X289749761Y-87450000D01*
X289396209Y-87520325D01*
X289063170Y-87658275D01*
X288763443Y-87858546D01*
X288508546Y-88113443D01*
X288308275Y-88413170D01*
X288170325Y-88746209D01*
X288100000Y-89099761D01*
X228760000Y-89099761D01*
X228760000Y-89047560D01*
X228669306Y-88591613D01*
X228491405Y-88162121D01*
X228233132Y-87775588D01*
X227904412Y-87446868D01*
X227517879Y-87188595D01*
X227088387Y-87010694D01*
X226632440Y-86920000D01*
X226167560Y-86920000D01*
X225711613Y-87010694D01*
X225282121Y-87188595D01*
X224895588Y-87446868D01*
X224566868Y-87775588D01*
X224308595Y-88162121D01*
X224130694Y-88591613D01*
X224040000Y-89047560D01*
X129667000Y-89047560D01*
X129667000Y-73047560D01*
X279240000Y-73047560D01*
X279240000Y-73512440D01*
X279330694Y-73968387D01*
X279508595Y-74397879D01*
X279766868Y-74784412D01*
X280095588Y-75113132D01*
X280482121Y-75371405D01*
X280911613Y-75549306D01*
X281367560Y-75640000D01*
X281832440Y-75640000D01*
X282288387Y-75549306D01*
X282717879Y-75371405D01*
X283104412Y-75113132D01*
X283433132Y-74784412D01*
X283691405Y-74397879D01*
X283869306Y-73968387D01*
X283960000Y-73512440D01*
X283960000Y-73047560D01*
X283869306Y-72591613D01*
X283691405Y-72162121D01*
X283433132Y-71775588D01*
X283104412Y-71446868D01*
X282717879Y-71188595D01*
X282288387Y-71010694D01*
X281832440Y-70920000D01*
X281367560Y-70920000D01*
X280911613Y-71010694D01*
X280482121Y-71188595D01*
X280095588Y-71446868D01*
X279766868Y-71775588D01*
X279508595Y-72162121D01*
X279330694Y-72591613D01*
X279240000Y-73047560D01*
X129667000Y-73047560D01*
X129667000Y-66167000D01*
X429133000Y-66167000D01*
X429133000Y-340233000D01*
M02*
