G04 #@! TF.GenerationSoftware,KiCad,Pcbnew,(5.1.2)-1*
G04 #@! TF.CreationDate,2019-05-29T16:25:34-07:00*
G04 #@! TF.ProjectId,h186-final,68313836-2d66-4696-9e61-6c2e6b696361,rev?*
G04 #@! TF.SameCoordinates,Original*
G04 #@! TF.FileFunction,Soldermask,Top*
G04 #@! TF.FilePolarity,Negative*
%FSLAX46Y46*%
G04 Gerber Fmt 4.6, Leading zero omitted, Abs format (unit mm)*
G04 Created by KiCad (PCBNEW (5.1.2)-1) date 2019-05-29 16:25:34*
%MOMM*%
%LPD*%
G04 APERTURE LIST*
%ADD10C,0.100000*%
G04 APERTURE END LIST*
D10*
G36*
X136020399Y-343363499D02*
G01*
X136894125Y-343725408D01*
X136894126Y-343725409D01*
X137680459Y-344250820D01*
X138349180Y-344919541D01*
X138700249Y-345444953D01*
X138874592Y-345705875D01*
X139236501Y-346579601D01*
X139421000Y-347507141D01*
X139421000Y-348452859D01*
X139236501Y-349380399D01*
X138874592Y-350254125D01*
X138874591Y-350254126D01*
X138349180Y-351040459D01*
X137680459Y-351709180D01*
X137155047Y-352060249D01*
X136894125Y-352234592D01*
X136020399Y-352596501D01*
X135092859Y-352781000D01*
X134147141Y-352781000D01*
X133219601Y-352596501D01*
X132345875Y-352234592D01*
X132084953Y-352060249D01*
X131559541Y-351709180D01*
X130890820Y-351040459D01*
X130365409Y-350254126D01*
X130365408Y-350254125D01*
X130003499Y-349380399D01*
X129819000Y-348452859D01*
X129819000Y-347507141D01*
X130003499Y-346579601D01*
X130365408Y-345705875D01*
X130539751Y-345444953D01*
X130890820Y-344919541D01*
X131559541Y-344250820D01*
X132345874Y-343725409D01*
X132345875Y-343725408D01*
X133219601Y-343363499D01*
X134147141Y-343179000D01*
X135092859Y-343179000D01*
X136020399Y-343363499D01*
X136020399Y-343363499D01*
G37*
G36*
X280800399Y-343363499D02*
G01*
X281674125Y-343725408D01*
X281674126Y-343725409D01*
X282460459Y-344250820D01*
X283129180Y-344919541D01*
X283480249Y-345444953D01*
X283654592Y-345705875D01*
X284016501Y-346579601D01*
X284201000Y-347507141D01*
X284201000Y-348452859D01*
X284016501Y-349380399D01*
X283654592Y-350254125D01*
X283654591Y-350254126D01*
X283129180Y-351040459D01*
X282460459Y-351709180D01*
X281935047Y-352060249D01*
X281674125Y-352234592D01*
X280800399Y-352596501D01*
X279872859Y-352781000D01*
X278927141Y-352781000D01*
X277999601Y-352596501D01*
X277125875Y-352234592D01*
X276864953Y-352060249D01*
X276339541Y-351709180D01*
X275670820Y-351040459D01*
X275145409Y-350254126D01*
X275145408Y-350254125D01*
X274783499Y-349380399D01*
X274599000Y-348452859D01*
X274599000Y-347507141D01*
X274783499Y-346579601D01*
X275145408Y-345705875D01*
X275319751Y-345444953D01*
X275670820Y-344919541D01*
X276339541Y-344250820D01*
X277125874Y-343725409D01*
X277125875Y-343725408D01*
X277999601Y-343363499D01*
X278927141Y-343179000D01*
X279872859Y-343179000D01*
X280800399Y-343363499D01*
X280800399Y-343363499D01*
G37*
G36*
X425580399Y-343363499D02*
G01*
X426454125Y-343725408D01*
X426454126Y-343725409D01*
X427240459Y-344250820D01*
X427909180Y-344919541D01*
X428260249Y-345444953D01*
X428434592Y-345705875D01*
X428796501Y-346579601D01*
X428981000Y-347507141D01*
X428981000Y-348452859D01*
X428796501Y-349380399D01*
X428434592Y-350254125D01*
X428434591Y-350254126D01*
X427909180Y-351040459D01*
X427240459Y-351709180D01*
X426715047Y-352060249D01*
X426454125Y-352234592D01*
X425580399Y-352596501D01*
X424652859Y-352781000D01*
X423707141Y-352781000D01*
X422779601Y-352596501D01*
X421905875Y-352234592D01*
X421644953Y-352060249D01*
X421119541Y-351709180D01*
X420450820Y-351040459D01*
X419925409Y-350254126D01*
X419925408Y-350254125D01*
X419563499Y-349380399D01*
X419379000Y-348452859D01*
X419379000Y-347507141D01*
X419563499Y-346579601D01*
X419925408Y-345705875D01*
X420099751Y-345444953D01*
X420450820Y-344919541D01*
X421119541Y-344250820D01*
X421905874Y-343725409D01*
X421905875Y-343725408D01*
X422779601Y-343363499D01*
X423707141Y-343179000D01*
X424652859Y-343179000D01*
X425580399Y-343363499D01*
X425580399Y-343363499D01*
G37*
G36*
X229742009Y-282032601D02*
G01*
X229820627Y-282065166D01*
X229820629Y-282065167D01*
X229891384Y-282112444D01*
X229951556Y-282172616D01*
X229951557Y-282172618D01*
X229998834Y-282243373D01*
X230031399Y-282321991D01*
X230048000Y-282405450D01*
X230048000Y-282490550D01*
X230031399Y-282574009D01*
X229998834Y-282652627D01*
X229998833Y-282652629D01*
X229951556Y-282723384D01*
X229891384Y-282783556D01*
X229820629Y-282830833D01*
X229820628Y-282830834D01*
X229820627Y-282830834D01*
X229742009Y-282863399D01*
X229658550Y-282880000D01*
X229573450Y-282880000D01*
X229489991Y-282863399D01*
X229411373Y-282830834D01*
X229411372Y-282830834D01*
X229411371Y-282830833D01*
X229340616Y-282783556D01*
X229280444Y-282723384D01*
X229233167Y-282652629D01*
X229233166Y-282652627D01*
X229200601Y-282574009D01*
X229184000Y-282490550D01*
X229184000Y-282405450D01*
X229200601Y-282321991D01*
X229233166Y-282243373D01*
X229280443Y-282172618D01*
X229280444Y-282172616D01*
X229340616Y-282112444D01*
X229411371Y-282065167D01*
X229411373Y-282065166D01*
X229489991Y-282032601D01*
X229573450Y-282016000D01*
X229658550Y-282016000D01*
X229742009Y-282032601D01*
X229742009Y-282032601D01*
G37*
G36*
X258001674Y-278907465D02*
G01*
X258039367Y-278918899D01*
X258074103Y-278937466D01*
X258104548Y-278962452D01*
X258129534Y-278992897D01*
X258148101Y-279027633D01*
X258159535Y-279065326D01*
X258164000Y-279110661D01*
X258164000Y-280197339D01*
X258159535Y-280242674D01*
X258148101Y-280280367D01*
X258129534Y-280315103D01*
X258104548Y-280345548D01*
X258074103Y-280370534D01*
X258039367Y-280389101D01*
X258001674Y-280400535D01*
X257956339Y-280405000D01*
X257119661Y-280405000D01*
X257074326Y-280400535D01*
X257036633Y-280389101D01*
X257001897Y-280370534D01*
X256971452Y-280345548D01*
X256946466Y-280315103D01*
X256927899Y-280280367D01*
X256916465Y-280242674D01*
X256912000Y-280197339D01*
X256912000Y-279110661D01*
X256916465Y-279065326D01*
X256927899Y-279027633D01*
X256946466Y-278992897D01*
X256971452Y-278962452D01*
X257001897Y-278937466D01*
X257036633Y-278918899D01*
X257074326Y-278907465D01*
X257119661Y-278903000D01*
X257956339Y-278903000D01*
X258001674Y-278907465D01*
X258001674Y-278907465D01*
G37*
G36*
X260051674Y-278907465D02*
G01*
X260089367Y-278918899D01*
X260124103Y-278937466D01*
X260154548Y-278962452D01*
X260179534Y-278992897D01*
X260198101Y-279027633D01*
X260209535Y-279065326D01*
X260214000Y-279110661D01*
X260214000Y-280197339D01*
X260209535Y-280242674D01*
X260198101Y-280280367D01*
X260179534Y-280315103D01*
X260154548Y-280345548D01*
X260124103Y-280370534D01*
X260089367Y-280389101D01*
X260051674Y-280400535D01*
X260006339Y-280405000D01*
X259169661Y-280405000D01*
X259124326Y-280400535D01*
X259086633Y-280389101D01*
X259051897Y-280370534D01*
X259021452Y-280345548D01*
X258996466Y-280315103D01*
X258977899Y-280280367D01*
X258966465Y-280242674D01*
X258962000Y-280197339D01*
X258962000Y-279110661D01*
X258966465Y-279065326D01*
X258977899Y-279027633D01*
X258996466Y-278992897D01*
X259021452Y-278962452D01*
X259051897Y-278937466D01*
X259086633Y-278918899D01*
X259124326Y-278907465D01*
X259169661Y-278903000D01*
X260006339Y-278903000D01*
X260051674Y-278907465D01*
X260051674Y-278907465D01*
G37*
G36*
X243777674Y-278907465D02*
G01*
X243815367Y-278918899D01*
X243850103Y-278937466D01*
X243880548Y-278962452D01*
X243905534Y-278992897D01*
X243924101Y-279027633D01*
X243935535Y-279065326D01*
X243940000Y-279110661D01*
X243940000Y-280197339D01*
X243935535Y-280242674D01*
X243924101Y-280280367D01*
X243905534Y-280315103D01*
X243880548Y-280345548D01*
X243850103Y-280370534D01*
X243815367Y-280389101D01*
X243777674Y-280400535D01*
X243732339Y-280405000D01*
X242895661Y-280405000D01*
X242850326Y-280400535D01*
X242812633Y-280389101D01*
X242777897Y-280370534D01*
X242747452Y-280345548D01*
X242722466Y-280315103D01*
X242703899Y-280280367D01*
X242692465Y-280242674D01*
X242688000Y-280197339D01*
X242688000Y-279110661D01*
X242692465Y-279065326D01*
X242703899Y-279027633D01*
X242722466Y-278992897D01*
X242747452Y-278962452D01*
X242777897Y-278937466D01*
X242812633Y-278918899D01*
X242850326Y-278907465D01*
X242895661Y-278903000D01*
X243732339Y-278903000D01*
X243777674Y-278907465D01*
X243777674Y-278907465D01*
G37*
G36*
X230578674Y-278907465D02*
G01*
X230616367Y-278918899D01*
X230651103Y-278937466D01*
X230681548Y-278962452D01*
X230706534Y-278992897D01*
X230725101Y-279027633D01*
X230736535Y-279065326D01*
X230741000Y-279110661D01*
X230741000Y-280197339D01*
X230736535Y-280242674D01*
X230725101Y-280280367D01*
X230706534Y-280315103D01*
X230681548Y-280345548D01*
X230651103Y-280370534D01*
X230616367Y-280389101D01*
X230578674Y-280400535D01*
X230533339Y-280405000D01*
X229696661Y-280405000D01*
X229651326Y-280400535D01*
X229613633Y-280389101D01*
X229578897Y-280370534D01*
X229548452Y-280345548D01*
X229523466Y-280315103D01*
X229504899Y-280280367D01*
X229493465Y-280242674D01*
X229489000Y-280197339D01*
X229489000Y-279110661D01*
X229493465Y-279065326D01*
X229504899Y-279027633D01*
X229523466Y-278992897D01*
X229548452Y-278962452D01*
X229578897Y-278937466D01*
X229613633Y-278918899D01*
X229651326Y-278907465D01*
X229696661Y-278903000D01*
X230533339Y-278903000D01*
X230578674Y-278907465D01*
X230578674Y-278907465D01*
G37*
G36*
X232628674Y-278907465D02*
G01*
X232666367Y-278918899D01*
X232701103Y-278937466D01*
X232731548Y-278962452D01*
X232756534Y-278992897D01*
X232775101Y-279027633D01*
X232786535Y-279065326D01*
X232791000Y-279110661D01*
X232791000Y-280197339D01*
X232786535Y-280242674D01*
X232775101Y-280280367D01*
X232756534Y-280315103D01*
X232731548Y-280345548D01*
X232701103Y-280370534D01*
X232666367Y-280389101D01*
X232628674Y-280400535D01*
X232583339Y-280405000D01*
X231746661Y-280405000D01*
X231701326Y-280400535D01*
X231663633Y-280389101D01*
X231628897Y-280370534D01*
X231598452Y-280345548D01*
X231573466Y-280315103D01*
X231554899Y-280280367D01*
X231543465Y-280242674D01*
X231539000Y-280197339D01*
X231539000Y-279110661D01*
X231543465Y-279065326D01*
X231554899Y-279027633D01*
X231573466Y-278992897D01*
X231598452Y-278962452D01*
X231628897Y-278937466D01*
X231663633Y-278918899D01*
X231701326Y-278907465D01*
X231746661Y-278903000D01*
X232583339Y-278903000D01*
X232628674Y-278907465D01*
X232628674Y-278907465D01*
G37*
G36*
X245827674Y-278907465D02*
G01*
X245865367Y-278918899D01*
X245900103Y-278937466D01*
X245930548Y-278962452D01*
X245955534Y-278992897D01*
X245974101Y-279027633D01*
X245985535Y-279065326D01*
X245990000Y-279110661D01*
X245990000Y-280197339D01*
X245985535Y-280242674D01*
X245974101Y-280280367D01*
X245955534Y-280315103D01*
X245930548Y-280345548D01*
X245900103Y-280370534D01*
X245865367Y-280389101D01*
X245827674Y-280400535D01*
X245782339Y-280405000D01*
X244945661Y-280405000D01*
X244900326Y-280400535D01*
X244862633Y-280389101D01*
X244827897Y-280370534D01*
X244797452Y-280345548D01*
X244772466Y-280315103D01*
X244753899Y-280280367D01*
X244742465Y-280242674D01*
X244738000Y-280197339D01*
X244738000Y-279110661D01*
X244742465Y-279065326D01*
X244753899Y-279027633D01*
X244772466Y-278992897D01*
X244797452Y-278962452D01*
X244827897Y-278937466D01*
X244862633Y-278918899D01*
X244900326Y-278907465D01*
X244945661Y-278903000D01*
X245782339Y-278903000D01*
X245827674Y-278907465D01*
X245827674Y-278907465D01*
G37*
G36*
X275924674Y-277009465D02*
G01*
X275962367Y-277020899D01*
X275997103Y-277039466D01*
X276027548Y-277064452D01*
X276052534Y-277094897D01*
X276071101Y-277129633D01*
X276082535Y-277167326D01*
X276087000Y-277212661D01*
X276087000Y-278049339D01*
X276082535Y-278094674D01*
X276071101Y-278132367D01*
X276052534Y-278167103D01*
X276027548Y-278197548D01*
X275997103Y-278222534D01*
X275962367Y-278241101D01*
X275924674Y-278252535D01*
X275879339Y-278257000D01*
X274792661Y-278257000D01*
X274747326Y-278252535D01*
X274709633Y-278241101D01*
X274674897Y-278222534D01*
X274644452Y-278197548D01*
X274619466Y-278167103D01*
X274600899Y-278132367D01*
X274589465Y-278094674D01*
X274585000Y-278049339D01*
X274585000Y-277212661D01*
X274589465Y-277167326D01*
X274600899Y-277129633D01*
X274619466Y-277094897D01*
X274644452Y-277064452D01*
X274674897Y-277039466D01*
X274709633Y-277020899D01*
X274747326Y-277009465D01*
X274792661Y-277005000D01*
X275879339Y-277005000D01*
X275924674Y-277009465D01*
X275924674Y-277009465D01*
G37*
G36*
X266780674Y-277000465D02*
G01*
X266818367Y-277011899D01*
X266853103Y-277030466D01*
X266883548Y-277055452D01*
X266908534Y-277085897D01*
X266927101Y-277120633D01*
X266938535Y-277158326D01*
X266943000Y-277203661D01*
X266943000Y-278040339D01*
X266938535Y-278085674D01*
X266927101Y-278123367D01*
X266908534Y-278158103D01*
X266883548Y-278188548D01*
X266853103Y-278213534D01*
X266818367Y-278232101D01*
X266780674Y-278243535D01*
X266735339Y-278248000D01*
X265648661Y-278248000D01*
X265603326Y-278243535D01*
X265565633Y-278232101D01*
X265530897Y-278213534D01*
X265500452Y-278188548D01*
X265475466Y-278158103D01*
X265456899Y-278123367D01*
X265445465Y-278085674D01*
X265441000Y-278040339D01*
X265441000Y-277203661D01*
X265445465Y-277158326D01*
X265456899Y-277120633D01*
X265475466Y-277085897D01*
X265500452Y-277055452D01*
X265530897Y-277030466D01*
X265565633Y-277011899D01*
X265603326Y-277000465D01*
X265648661Y-276996000D01*
X266735339Y-276996000D01*
X266780674Y-277000465D01*
X266780674Y-277000465D01*
G37*
G36*
X282274674Y-277000465D02*
G01*
X282312367Y-277011899D01*
X282347103Y-277030466D01*
X282377548Y-277055452D01*
X282402534Y-277085897D01*
X282421101Y-277120633D01*
X282432535Y-277158326D01*
X282437000Y-277203661D01*
X282437000Y-278040339D01*
X282432535Y-278085674D01*
X282421101Y-278123367D01*
X282402534Y-278158103D01*
X282377548Y-278188548D01*
X282347103Y-278213534D01*
X282312367Y-278232101D01*
X282274674Y-278243535D01*
X282229339Y-278248000D01*
X281142661Y-278248000D01*
X281097326Y-278243535D01*
X281059633Y-278232101D01*
X281024897Y-278213534D01*
X280994452Y-278188548D01*
X280969466Y-278158103D01*
X280950899Y-278123367D01*
X280939465Y-278085674D01*
X280935000Y-278040339D01*
X280935000Y-277203661D01*
X280939465Y-277158326D01*
X280950899Y-277120633D01*
X280969466Y-277085897D01*
X280994452Y-277055452D01*
X281024897Y-277030466D01*
X281059633Y-277011899D01*
X281097326Y-277000465D01*
X281142661Y-276996000D01*
X282229339Y-276996000D01*
X282274674Y-277000465D01*
X282274674Y-277000465D01*
G37*
G36*
X275924674Y-274959465D02*
G01*
X275962367Y-274970899D01*
X275997103Y-274989466D01*
X276027548Y-275014452D01*
X276052534Y-275044897D01*
X276071101Y-275079633D01*
X276082535Y-275117326D01*
X276087000Y-275162661D01*
X276087000Y-275999339D01*
X276082535Y-276044674D01*
X276071101Y-276082367D01*
X276052534Y-276117103D01*
X276027548Y-276147548D01*
X275997103Y-276172534D01*
X275962367Y-276191101D01*
X275924674Y-276202535D01*
X275879339Y-276207000D01*
X274792661Y-276207000D01*
X274747326Y-276202535D01*
X274709633Y-276191101D01*
X274674897Y-276172534D01*
X274644452Y-276147548D01*
X274619466Y-276117103D01*
X274600899Y-276082367D01*
X274589465Y-276044674D01*
X274585000Y-275999339D01*
X274585000Y-275162661D01*
X274589465Y-275117326D01*
X274600899Y-275079633D01*
X274619466Y-275044897D01*
X274644452Y-275014452D01*
X274674897Y-274989466D01*
X274709633Y-274970899D01*
X274747326Y-274959465D01*
X274792661Y-274955000D01*
X275879339Y-274955000D01*
X275924674Y-274959465D01*
X275924674Y-274959465D01*
G37*
G36*
X266780674Y-274950465D02*
G01*
X266818367Y-274961899D01*
X266853103Y-274980466D01*
X266883548Y-275005452D01*
X266908534Y-275035897D01*
X266927101Y-275070633D01*
X266938535Y-275108326D01*
X266943000Y-275153661D01*
X266943000Y-275990339D01*
X266938535Y-276035674D01*
X266927101Y-276073367D01*
X266908534Y-276108103D01*
X266883548Y-276138548D01*
X266853103Y-276163534D01*
X266818367Y-276182101D01*
X266780674Y-276193535D01*
X266735339Y-276198000D01*
X265648661Y-276198000D01*
X265603326Y-276193535D01*
X265565633Y-276182101D01*
X265530897Y-276163534D01*
X265500452Y-276138548D01*
X265475466Y-276108103D01*
X265456899Y-276073367D01*
X265445465Y-276035674D01*
X265441000Y-275990339D01*
X265441000Y-275153661D01*
X265445465Y-275108326D01*
X265456899Y-275070633D01*
X265475466Y-275035897D01*
X265500452Y-275005452D01*
X265530897Y-274980466D01*
X265565633Y-274961899D01*
X265603326Y-274950465D01*
X265648661Y-274946000D01*
X266735339Y-274946000D01*
X266780674Y-274950465D01*
X266780674Y-274950465D01*
G37*
G36*
X282274674Y-274950465D02*
G01*
X282312367Y-274961899D01*
X282347103Y-274980466D01*
X282377548Y-275005452D01*
X282402534Y-275035897D01*
X282421101Y-275070633D01*
X282432535Y-275108326D01*
X282437000Y-275153661D01*
X282437000Y-275990339D01*
X282432535Y-276035674D01*
X282421101Y-276073367D01*
X282402534Y-276108103D01*
X282377548Y-276138548D01*
X282347103Y-276163534D01*
X282312367Y-276182101D01*
X282274674Y-276193535D01*
X282229339Y-276198000D01*
X281142661Y-276198000D01*
X281097326Y-276193535D01*
X281059633Y-276182101D01*
X281024897Y-276163534D01*
X280994452Y-276138548D01*
X280969466Y-276108103D01*
X280950899Y-276073367D01*
X280939465Y-276035674D01*
X280935000Y-275990339D01*
X280935000Y-275153661D01*
X280939465Y-275108326D01*
X280950899Y-275070633D01*
X280969466Y-275035897D01*
X280994452Y-275005452D01*
X281024897Y-274980466D01*
X281059633Y-274961899D01*
X281097326Y-274950465D01*
X281142661Y-274946000D01*
X282229339Y-274946000D01*
X282274674Y-274950465D01*
X282274674Y-274950465D01*
G37*
G36*
X262716674Y-271176465D02*
G01*
X262754367Y-271187899D01*
X262789103Y-271206466D01*
X262819548Y-271231452D01*
X262844534Y-271261897D01*
X262863101Y-271296633D01*
X262874535Y-271334326D01*
X262879000Y-271379661D01*
X262879000Y-272216339D01*
X262874535Y-272261674D01*
X262863101Y-272299367D01*
X262844534Y-272334103D01*
X262819548Y-272364548D01*
X262789103Y-272389534D01*
X262754367Y-272408101D01*
X262716674Y-272419535D01*
X262671339Y-272424000D01*
X261584661Y-272424000D01*
X261539326Y-272419535D01*
X261501633Y-272408101D01*
X261466897Y-272389534D01*
X261436452Y-272364548D01*
X261411466Y-272334103D01*
X261392899Y-272299367D01*
X261381465Y-272261674D01*
X261377000Y-272216339D01*
X261377000Y-271379661D01*
X261381465Y-271334326D01*
X261392899Y-271296633D01*
X261411466Y-271261897D01*
X261436452Y-271231452D01*
X261466897Y-271206466D01*
X261501633Y-271187899D01*
X261539326Y-271176465D01*
X261584661Y-271172000D01*
X262671339Y-271172000D01*
X262716674Y-271176465D01*
X262716674Y-271176465D01*
G37*
G36*
X270844674Y-271176465D02*
G01*
X270882367Y-271187899D01*
X270917103Y-271206466D01*
X270947548Y-271231452D01*
X270972534Y-271261897D01*
X270991101Y-271296633D01*
X271002535Y-271334326D01*
X271007000Y-271379661D01*
X271007000Y-272216339D01*
X271002535Y-272261674D01*
X270991101Y-272299367D01*
X270972534Y-272334103D01*
X270947548Y-272364548D01*
X270917103Y-272389534D01*
X270882367Y-272408101D01*
X270844674Y-272419535D01*
X270799339Y-272424000D01*
X269712661Y-272424000D01*
X269667326Y-272419535D01*
X269629633Y-272408101D01*
X269594897Y-272389534D01*
X269564452Y-272364548D01*
X269539466Y-272334103D01*
X269520899Y-272299367D01*
X269509465Y-272261674D01*
X269505000Y-272216339D01*
X269505000Y-271379661D01*
X269509465Y-271334326D01*
X269520899Y-271296633D01*
X269539466Y-271261897D01*
X269564452Y-271231452D01*
X269594897Y-271206466D01*
X269629633Y-271187899D01*
X269667326Y-271176465D01*
X269712661Y-271172000D01*
X270799339Y-271172000D01*
X270844674Y-271176465D01*
X270844674Y-271176465D01*
G37*
G36*
X272668009Y-270348601D02*
G01*
X272746627Y-270381166D01*
X272746629Y-270381167D01*
X272817384Y-270428444D01*
X272877556Y-270488616D01*
X272877557Y-270488618D01*
X272924834Y-270559373D01*
X272957399Y-270637991D01*
X272974000Y-270721450D01*
X272974000Y-270806550D01*
X272957399Y-270890009D01*
X272924834Y-270968627D01*
X272924833Y-270968629D01*
X272877556Y-271039384D01*
X272817384Y-271099556D01*
X272746629Y-271146833D01*
X272746628Y-271146834D01*
X272746627Y-271146834D01*
X272668009Y-271179399D01*
X272584550Y-271196000D01*
X272499450Y-271196000D01*
X272415991Y-271179399D01*
X272337373Y-271146834D01*
X272337372Y-271146834D01*
X272337371Y-271146833D01*
X272266616Y-271099556D01*
X272206444Y-271039384D01*
X272159167Y-270968629D01*
X272159166Y-270968627D01*
X272126601Y-270890009D01*
X272110000Y-270806550D01*
X272110000Y-270721450D01*
X272126601Y-270637991D01*
X272159166Y-270559373D01*
X272206443Y-270488618D01*
X272206444Y-270488616D01*
X272266616Y-270428444D01*
X272337371Y-270381167D01*
X272337373Y-270381166D01*
X272415991Y-270348601D01*
X272499450Y-270332000D01*
X272584550Y-270332000D01*
X272668009Y-270348601D01*
X272668009Y-270348601D01*
G37*
G36*
X262716674Y-269126465D02*
G01*
X262754367Y-269137899D01*
X262789103Y-269156466D01*
X262819548Y-269181452D01*
X262844534Y-269211897D01*
X262863101Y-269246633D01*
X262874535Y-269284326D01*
X262879000Y-269329661D01*
X262879000Y-270166339D01*
X262874535Y-270211674D01*
X262863101Y-270249367D01*
X262844534Y-270284103D01*
X262819548Y-270314548D01*
X262789103Y-270339534D01*
X262754367Y-270358101D01*
X262716674Y-270369535D01*
X262671339Y-270374000D01*
X261584661Y-270374000D01*
X261539326Y-270369535D01*
X261501633Y-270358101D01*
X261466897Y-270339534D01*
X261436452Y-270314548D01*
X261411466Y-270284103D01*
X261392899Y-270249367D01*
X261381465Y-270211674D01*
X261377000Y-270166339D01*
X261377000Y-269329661D01*
X261381465Y-269284326D01*
X261392899Y-269246633D01*
X261411466Y-269211897D01*
X261436452Y-269181452D01*
X261466897Y-269156466D01*
X261501633Y-269137899D01*
X261539326Y-269126465D01*
X261584661Y-269122000D01*
X262671339Y-269122000D01*
X262716674Y-269126465D01*
X262716674Y-269126465D01*
G37*
G36*
X270844674Y-269126465D02*
G01*
X270882367Y-269137899D01*
X270917103Y-269156466D01*
X270947548Y-269181452D01*
X270972534Y-269211897D01*
X270991101Y-269246633D01*
X271002535Y-269284326D01*
X271007000Y-269329661D01*
X271007000Y-270166339D01*
X271002535Y-270211674D01*
X270991101Y-270249367D01*
X270972534Y-270284103D01*
X270947548Y-270314548D01*
X270917103Y-270339534D01*
X270882367Y-270358101D01*
X270844674Y-270369535D01*
X270799339Y-270374000D01*
X269712661Y-270374000D01*
X269667326Y-270369535D01*
X269629633Y-270358101D01*
X269594897Y-270339534D01*
X269564452Y-270314548D01*
X269539466Y-270284103D01*
X269520899Y-270249367D01*
X269509465Y-270211674D01*
X269505000Y-270166339D01*
X269505000Y-269329661D01*
X269509465Y-269284326D01*
X269520899Y-269246633D01*
X269539466Y-269211897D01*
X269564452Y-269181452D01*
X269594897Y-269156466D01*
X269629633Y-269137899D01*
X269667326Y-269126465D01*
X269712661Y-269122000D01*
X270799339Y-269122000D01*
X270844674Y-269126465D01*
X270844674Y-269126465D01*
G37*
G36*
X266780674Y-264826465D02*
G01*
X266818367Y-264837899D01*
X266853103Y-264856466D01*
X266883548Y-264881452D01*
X266908534Y-264911897D01*
X266927101Y-264946633D01*
X266938535Y-264984326D01*
X266943000Y-265029661D01*
X266943000Y-265866339D01*
X266938535Y-265911674D01*
X266927101Y-265949367D01*
X266908534Y-265984103D01*
X266883548Y-266014548D01*
X266853103Y-266039534D01*
X266818367Y-266058101D01*
X266780674Y-266069535D01*
X266735339Y-266074000D01*
X265648661Y-266074000D01*
X265603326Y-266069535D01*
X265565633Y-266058101D01*
X265530897Y-266039534D01*
X265500452Y-266014548D01*
X265475466Y-265984103D01*
X265456899Y-265949367D01*
X265445465Y-265911674D01*
X265441000Y-265866339D01*
X265441000Y-265029661D01*
X265445465Y-264984326D01*
X265456899Y-264946633D01*
X265475466Y-264911897D01*
X265500452Y-264881452D01*
X265530897Y-264856466D01*
X265565633Y-264837899D01*
X265603326Y-264826465D01*
X265648661Y-264822000D01*
X266735339Y-264822000D01*
X266780674Y-264826465D01*
X266780674Y-264826465D01*
G37*
G36*
X270590674Y-264826465D02*
G01*
X270628367Y-264837899D01*
X270663103Y-264856466D01*
X270693548Y-264881452D01*
X270718534Y-264911897D01*
X270737101Y-264946633D01*
X270748535Y-264984326D01*
X270753000Y-265029661D01*
X270753000Y-265866339D01*
X270748535Y-265911674D01*
X270737101Y-265949367D01*
X270718534Y-265984103D01*
X270693548Y-266014548D01*
X270663103Y-266039534D01*
X270628367Y-266058101D01*
X270590674Y-266069535D01*
X270545339Y-266074000D01*
X269458661Y-266074000D01*
X269413326Y-266069535D01*
X269375633Y-266058101D01*
X269340897Y-266039534D01*
X269310452Y-266014548D01*
X269285466Y-265984103D01*
X269266899Y-265949367D01*
X269255465Y-265911674D01*
X269251000Y-265866339D01*
X269251000Y-265029661D01*
X269255465Y-264984326D01*
X269266899Y-264946633D01*
X269285466Y-264911897D01*
X269310452Y-264881452D01*
X269340897Y-264856466D01*
X269375633Y-264837899D01*
X269413326Y-264826465D01*
X269458661Y-264822000D01*
X270545339Y-264822000D01*
X270590674Y-264826465D01*
X270590674Y-264826465D01*
G37*
G36*
X270590674Y-262776465D02*
G01*
X270628367Y-262787899D01*
X270663103Y-262806466D01*
X270693548Y-262831452D01*
X270718534Y-262861897D01*
X270737101Y-262896633D01*
X270748535Y-262934326D01*
X270753000Y-262979661D01*
X270753000Y-263816339D01*
X270748535Y-263861674D01*
X270737101Y-263899367D01*
X270718534Y-263934103D01*
X270693548Y-263964548D01*
X270663103Y-263989534D01*
X270628367Y-264008101D01*
X270590674Y-264019535D01*
X270545339Y-264024000D01*
X269458661Y-264024000D01*
X269413326Y-264019535D01*
X269375633Y-264008101D01*
X269340897Y-263989534D01*
X269310452Y-263964548D01*
X269285466Y-263934103D01*
X269266899Y-263899367D01*
X269255465Y-263861674D01*
X269251000Y-263816339D01*
X269251000Y-262979661D01*
X269255465Y-262934326D01*
X269266899Y-262896633D01*
X269285466Y-262861897D01*
X269310452Y-262831452D01*
X269340897Y-262806466D01*
X269375633Y-262787899D01*
X269413326Y-262776465D01*
X269458661Y-262772000D01*
X270545339Y-262772000D01*
X270590674Y-262776465D01*
X270590674Y-262776465D01*
G37*
G36*
X266780674Y-262776465D02*
G01*
X266818367Y-262787899D01*
X266853103Y-262806466D01*
X266883548Y-262831452D01*
X266908534Y-262861897D01*
X266927101Y-262896633D01*
X266938535Y-262934326D01*
X266943000Y-262979661D01*
X266943000Y-263816339D01*
X266938535Y-263861674D01*
X266927101Y-263899367D01*
X266908534Y-263934103D01*
X266883548Y-263964548D01*
X266853103Y-263989534D01*
X266818367Y-264008101D01*
X266780674Y-264019535D01*
X266735339Y-264024000D01*
X265648661Y-264024000D01*
X265603326Y-264019535D01*
X265565633Y-264008101D01*
X265530897Y-263989534D01*
X265500452Y-263964548D01*
X265475466Y-263934103D01*
X265456899Y-263899367D01*
X265445465Y-263861674D01*
X265441000Y-263816339D01*
X265441000Y-262979661D01*
X265445465Y-262934326D01*
X265456899Y-262896633D01*
X265475466Y-262861897D01*
X265500452Y-262831452D01*
X265530897Y-262806466D01*
X265565633Y-262787899D01*
X265603326Y-262776465D01*
X265648661Y-262772000D01*
X266735339Y-262772000D01*
X266780674Y-262776465D01*
X266780674Y-262776465D01*
G37*
G36*
X331734941Y-262000268D02*
G01*
X331772377Y-262012522D01*
X331812072Y-262034866D01*
X332497436Y-262514763D01*
X332532015Y-262544427D01*
X332556330Y-262575409D01*
X332574136Y-262610545D01*
X332584744Y-262648475D01*
X332587749Y-262687750D01*
X332583035Y-262726850D01*
X332570781Y-262764286D01*
X332548437Y-262803981D01*
X331925146Y-263694133D01*
X331895482Y-263728712D01*
X331864500Y-263753027D01*
X331829364Y-263770833D01*
X331791434Y-263781441D01*
X331752159Y-263784446D01*
X331713059Y-263779732D01*
X331675623Y-263767478D01*
X331635928Y-263745134D01*
X330950564Y-263265237D01*
X330915985Y-263235573D01*
X330891670Y-263204591D01*
X330873864Y-263169455D01*
X330863256Y-263131525D01*
X330860251Y-263092250D01*
X330864965Y-263053150D01*
X330877219Y-263015714D01*
X330899563Y-262976019D01*
X331522854Y-262085867D01*
X331552518Y-262051288D01*
X331583500Y-262026973D01*
X331618636Y-262009167D01*
X331656566Y-261998559D01*
X331695841Y-261995554D01*
X331734941Y-262000268D01*
X331734941Y-262000268D01*
G37*
G36*
X379939674Y-261127465D02*
G01*
X379977367Y-261138899D01*
X380012103Y-261157466D01*
X380042548Y-261182452D01*
X380067534Y-261212897D01*
X380086101Y-261247633D01*
X380097535Y-261285326D01*
X380102000Y-261330661D01*
X380102000Y-262417339D01*
X380097535Y-262462674D01*
X380086101Y-262500367D01*
X380067534Y-262535103D01*
X380042548Y-262565548D01*
X380012103Y-262590534D01*
X379977367Y-262609101D01*
X379939674Y-262620535D01*
X379894339Y-262625000D01*
X379057661Y-262625000D01*
X379012326Y-262620535D01*
X378974633Y-262609101D01*
X378939897Y-262590534D01*
X378909452Y-262565548D01*
X378884466Y-262535103D01*
X378865899Y-262500367D01*
X378854465Y-262462674D01*
X378850000Y-262417339D01*
X378850000Y-261330661D01*
X378854465Y-261285326D01*
X378865899Y-261247633D01*
X378884466Y-261212897D01*
X378909452Y-261182452D01*
X378939897Y-261157466D01*
X378974633Y-261138899D01*
X379012326Y-261127465D01*
X379057661Y-261123000D01*
X379894339Y-261123000D01*
X379939674Y-261127465D01*
X379939674Y-261127465D01*
G37*
G36*
X381989674Y-261127465D02*
G01*
X382027367Y-261138899D01*
X382062103Y-261157466D01*
X382092548Y-261182452D01*
X382117534Y-261212897D01*
X382136101Y-261247633D01*
X382147535Y-261285326D01*
X382152000Y-261330661D01*
X382152000Y-262417339D01*
X382147535Y-262462674D01*
X382136101Y-262500367D01*
X382117534Y-262535103D01*
X382092548Y-262565548D01*
X382062103Y-262590534D01*
X382027367Y-262609101D01*
X381989674Y-262620535D01*
X381944339Y-262625000D01*
X381107661Y-262625000D01*
X381062326Y-262620535D01*
X381024633Y-262609101D01*
X380989897Y-262590534D01*
X380959452Y-262565548D01*
X380934466Y-262535103D01*
X380915899Y-262500367D01*
X380904465Y-262462674D01*
X380900000Y-262417339D01*
X380900000Y-261330661D01*
X380904465Y-261285326D01*
X380915899Y-261247633D01*
X380934466Y-261212897D01*
X380959452Y-261182452D01*
X380989897Y-261157466D01*
X381024633Y-261138899D01*
X381062326Y-261127465D01*
X381107661Y-261123000D01*
X381944339Y-261123000D01*
X381989674Y-261127465D01*
X381989674Y-261127465D01*
G37*
G36*
X330055679Y-260824436D02*
G01*
X330093115Y-260836690D01*
X330132810Y-260859034D01*
X330818174Y-261338931D01*
X330852753Y-261368595D01*
X330877068Y-261399577D01*
X330894874Y-261434713D01*
X330905482Y-261472643D01*
X330908487Y-261511918D01*
X330903773Y-261551018D01*
X330891519Y-261588454D01*
X330869175Y-261628149D01*
X330245884Y-262518301D01*
X330216220Y-262552880D01*
X330185238Y-262577195D01*
X330150102Y-262595001D01*
X330112172Y-262605609D01*
X330072897Y-262608614D01*
X330033797Y-262603900D01*
X329996361Y-262591646D01*
X329956666Y-262569302D01*
X329271302Y-262089405D01*
X329236723Y-262059741D01*
X329212408Y-262028759D01*
X329194602Y-261993623D01*
X329183994Y-261955693D01*
X329180989Y-261916418D01*
X329185703Y-261877318D01*
X329197957Y-261839882D01*
X329220301Y-261800187D01*
X329843592Y-260910035D01*
X329873256Y-260875456D01*
X329904238Y-260851141D01*
X329939374Y-260833335D01*
X329977304Y-260822727D01*
X330016579Y-260819722D01*
X330055679Y-260824436D01*
X330055679Y-260824436D01*
G37*
G36*
X261954674Y-256190465D02*
G01*
X261992367Y-256201899D01*
X262027103Y-256220466D01*
X262057548Y-256245452D01*
X262082534Y-256275897D01*
X262101101Y-256310633D01*
X262112535Y-256348326D01*
X262117000Y-256393661D01*
X262117000Y-257230339D01*
X262112535Y-257275674D01*
X262101101Y-257313367D01*
X262082534Y-257348103D01*
X262057548Y-257378548D01*
X262027103Y-257403534D01*
X261992367Y-257422101D01*
X261954674Y-257433535D01*
X261909339Y-257438000D01*
X260822661Y-257438000D01*
X260777326Y-257433535D01*
X260739633Y-257422101D01*
X260704897Y-257403534D01*
X260674452Y-257378548D01*
X260649466Y-257348103D01*
X260630899Y-257313367D01*
X260619465Y-257275674D01*
X260615000Y-257230339D01*
X260615000Y-256393661D01*
X260619465Y-256348326D01*
X260630899Y-256310633D01*
X260649466Y-256275897D01*
X260674452Y-256245452D01*
X260704897Y-256220466D01*
X260739633Y-256201899D01*
X260777326Y-256190465D01*
X260822661Y-256186000D01*
X261909339Y-256186000D01*
X261954674Y-256190465D01*
X261954674Y-256190465D01*
G37*
G36*
X261954674Y-254140465D02*
G01*
X261992367Y-254151899D01*
X262027103Y-254170466D01*
X262057548Y-254195452D01*
X262082534Y-254225897D01*
X262101101Y-254260633D01*
X262112535Y-254298326D01*
X262117000Y-254343661D01*
X262117000Y-255180339D01*
X262112535Y-255225674D01*
X262101101Y-255263367D01*
X262082534Y-255298103D01*
X262057548Y-255328548D01*
X262027103Y-255353534D01*
X261992367Y-255372101D01*
X261954674Y-255383535D01*
X261909339Y-255388000D01*
X260822661Y-255388000D01*
X260777326Y-255383535D01*
X260739633Y-255372101D01*
X260704897Y-255353534D01*
X260674452Y-255328548D01*
X260649466Y-255298103D01*
X260630899Y-255263367D01*
X260619465Y-255225674D01*
X260615000Y-255180339D01*
X260615000Y-254343661D01*
X260619465Y-254298326D01*
X260630899Y-254260633D01*
X260649466Y-254225897D01*
X260674452Y-254195452D01*
X260704897Y-254170466D01*
X260739633Y-254151899D01*
X260777326Y-254140465D01*
X260822661Y-254136000D01*
X261909339Y-254136000D01*
X261954674Y-254140465D01*
X261954674Y-254140465D01*
G37*
G36*
X318858572Y-252936184D02*
G01*
X318896008Y-252948438D01*
X318935703Y-252970782D01*
X319621067Y-253450679D01*
X319655646Y-253480343D01*
X319679961Y-253511325D01*
X319697767Y-253546461D01*
X319708375Y-253584391D01*
X319711380Y-253623666D01*
X319706666Y-253662766D01*
X319694412Y-253700202D01*
X319672068Y-253739897D01*
X319048777Y-254630049D01*
X319019113Y-254664628D01*
X318988131Y-254688943D01*
X318952995Y-254706749D01*
X318915065Y-254717357D01*
X318875790Y-254720362D01*
X318836690Y-254715648D01*
X318799254Y-254703394D01*
X318759559Y-254681050D01*
X318074195Y-254201153D01*
X318039616Y-254171489D01*
X318015301Y-254140507D01*
X317997495Y-254105371D01*
X317986887Y-254067441D01*
X317983882Y-254028166D01*
X317988596Y-253989066D01*
X318000850Y-253951630D01*
X318023194Y-253911935D01*
X318646485Y-253021783D01*
X318676149Y-252987204D01*
X318707131Y-252962889D01*
X318742267Y-252945083D01*
X318780197Y-252934475D01*
X318819472Y-252931470D01*
X318858572Y-252936184D01*
X318858572Y-252936184D01*
G37*
G36*
X317179310Y-251760352D02*
G01*
X317216746Y-251772606D01*
X317256441Y-251794950D01*
X317941805Y-252274847D01*
X317976384Y-252304511D01*
X318000699Y-252335493D01*
X318018505Y-252370629D01*
X318029113Y-252408559D01*
X318032118Y-252447834D01*
X318027404Y-252486934D01*
X318015150Y-252524370D01*
X317992806Y-252564065D01*
X317369515Y-253454217D01*
X317339851Y-253488796D01*
X317308869Y-253513111D01*
X317273733Y-253530917D01*
X317235803Y-253541525D01*
X317196528Y-253544530D01*
X317157428Y-253539816D01*
X317119992Y-253527562D01*
X317080297Y-253505218D01*
X316394933Y-253025321D01*
X316360354Y-252995657D01*
X316336039Y-252964675D01*
X316318233Y-252929539D01*
X316307625Y-252891609D01*
X316304620Y-252852334D01*
X316309334Y-252813234D01*
X316321588Y-252775798D01*
X316343932Y-252736103D01*
X316967223Y-251845951D01*
X316996887Y-251811372D01*
X317027869Y-251787057D01*
X317063005Y-251769251D01*
X317100935Y-251758643D01*
X317140210Y-251755638D01*
X317179310Y-251760352D01*
X317179310Y-251760352D01*
G37*
G36*
X283844009Y-252060601D02*
G01*
X283922627Y-252093166D01*
X283922629Y-252093167D01*
X283993384Y-252140444D01*
X284053556Y-252200616D01*
X284100833Y-252271371D01*
X284100834Y-252271373D01*
X284133399Y-252349991D01*
X284150000Y-252433450D01*
X284150000Y-252518550D01*
X284133399Y-252602009D01*
X284127226Y-252616911D01*
X284100833Y-252680629D01*
X284053556Y-252751384D01*
X283993384Y-252811556D01*
X283922629Y-252858833D01*
X283922628Y-252858834D01*
X283922627Y-252858834D01*
X283844009Y-252891399D01*
X283760550Y-252908000D01*
X283675450Y-252908000D01*
X283591991Y-252891399D01*
X283513373Y-252858834D01*
X283513372Y-252858834D01*
X283513371Y-252858833D01*
X283442616Y-252811556D01*
X283382444Y-252751384D01*
X283335167Y-252680629D01*
X283308774Y-252616911D01*
X283302601Y-252602009D01*
X283286000Y-252518550D01*
X283286000Y-252433450D01*
X283302601Y-252349991D01*
X283335166Y-252271373D01*
X283335167Y-252271371D01*
X283382444Y-252200616D01*
X283442616Y-252140444D01*
X283513371Y-252093167D01*
X283513373Y-252093166D01*
X283591991Y-252060601D01*
X283675450Y-252044000D01*
X283760550Y-252044000D01*
X283844009Y-252060601D01*
X283844009Y-252060601D01*
G37*
G36*
X298641674Y-249189465D02*
G01*
X298679367Y-249200899D01*
X298714103Y-249219466D01*
X298744548Y-249244452D01*
X298769534Y-249274897D01*
X298788101Y-249309633D01*
X298799535Y-249347326D01*
X298804000Y-249392661D01*
X298804000Y-250479339D01*
X298799535Y-250524674D01*
X298788101Y-250562367D01*
X298769534Y-250597103D01*
X298744548Y-250627548D01*
X298714103Y-250652534D01*
X298679367Y-250671101D01*
X298641674Y-250682535D01*
X298596339Y-250687000D01*
X297759661Y-250687000D01*
X297714326Y-250682535D01*
X297676633Y-250671101D01*
X297641897Y-250652534D01*
X297611452Y-250627548D01*
X297586466Y-250597103D01*
X297567899Y-250562367D01*
X297556465Y-250524674D01*
X297552000Y-250479339D01*
X297552000Y-249392661D01*
X297556465Y-249347326D01*
X297567899Y-249309633D01*
X297586466Y-249274897D01*
X297611452Y-249244452D01*
X297641897Y-249219466D01*
X297676633Y-249200899D01*
X297714326Y-249189465D01*
X297759661Y-249185000D01*
X298596339Y-249185000D01*
X298641674Y-249189465D01*
X298641674Y-249189465D01*
G37*
G36*
X300691674Y-249189465D02*
G01*
X300729367Y-249200899D01*
X300764103Y-249219466D01*
X300794548Y-249244452D01*
X300819534Y-249274897D01*
X300838101Y-249309633D01*
X300849535Y-249347326D01*
X300854000Y-249392661D01*
X300854000Y-250479339D01*
X300849535Y-250524674D01*
X300838101Y-250562367D01*
X300819534Y-250597103D01*
X300794548Y-250627548D01*
X300764103Y-250652534D01*
X300729367Y-250671101D01*
X300691674Y-250682535D01*
X300646339Y-250687000D01*
X299809661Y-250687000D01*
X299764326Y-250682535D01*
X299726633Y-250671101D01*
X299691897Y-250652534D01*
X299661452Y-250627548D01*
X299636466Y-250597103D01*
X299617899Y-250562367D01*
X299606465Y-250524674D01*
X299602000Y-250479339D01*
X299602000Y-249392661D01*
X299606465Y-249347326D01*
X299617899Y-249309633D01*
X299636466Y-249274897D01*
X299661452Y-249244452D01*
X299691897Y-249219466D01*
X299726633Y-249200899D01*
X299764326Y-249189465D01*
X299809661Y-249185000D01*
X300646339Y-249185000D01*
X300691674Y-249189465D01*
X300691674Y-249189465D01*
G37*
G36*
X340061674Y-248173465D02*
G01*
X340099367Y-248184899D01*
X340134103Y-248203466D01*
X340164548Y-248228452D01*
X340189534Y-248258897D01*
X340208101Y-248293633D01*
X340219535Y-248331326D01*
X340224000Y-248376661D01*
X340224000Y-249463339D01*
X340219535Y-249508674D01*
X340208101Y-249546367D01*
X340189534Y-249581103D01*
X340164548Y-249611548D01*
X340134103Y-249636534D01*
X340099367Y-249655101D01*
X340061674Y-249666535D01*
X340016339Y-249671000D01*
X339179661Y-249671000D01*
X339134326Y-249666535D01*
X339096633Y-249655101D01*
X339061897Y-249636534D01*
X339031452Y-249611548D01*
X339006466Y-249581103D01*
X338987899Y-249546367D01*
X338976465Y-249508674D01*
X338972000Y-249463339D01*
X338972000Y-248376661D01*
X338976465Y-248331326D01*
X338987899Y-248293633D01*
X339006466Y-248258897D01*
X339031452Y-248228452D01*
X339061897Y-248203466D01*
X339096633Y-248184899D01*
X339134326Y-248173465D01*
X339179661Y-248169000D01*
X340016339Y-248169000D01*
X340061674Y-248173465D01*
X340061674Y-248173465D01*
G37*
G36*
X338011674Y-248173465D02*
G01*
X338049367Y-248184899D01*
X338084103Y-248203466D01*
X338114548Y-248228452D01*
X338139534Y-248258897D01*
X338158101Y-248293633D01*
X338169535Y-248331326D01*
X338174000Y-248376661D01*
X338174000Y-249463339D01*
X338169535Y-249508674D01*
X338158101Y-249546367D01*
X338139534Y-249581103D01*
X338114548Y-249611548D01*
X338084103Y-249636534D01*
X338049367Y-249655101D01*
X338011674Y-249666535D01*
X337966339Y-249671000D01*
X337129661Y-249671000D01*
X337084326Y-249666535D01*
X337046633Y-249655101D01*
X337011897Y-249636534D01*
X336981452Y-249611548D01*
X336956466Y-249581103D01*
X336937899Y-249546367D01*
X336926465Y-249508674D01*
X336922000Y-249463339D01*
X336922000Y-248376661D01*
X336926465Y-248331326D01*
X336937899Y-248293633D01*
X336956466Y-248258897D01*
X336981452Y-248228452D01*
X337011897Y-248203466D01*
X337046633Y-248184899D01*
X337084326Y-248173465D01*
X337129661Y-248169000D01*
X337966339Y-248169000D01*
X338011674Y-248173465D01*
X338011674Y-248173465D01*
G37*
G36*
X367765674Y-247157465D02*
G01*
X367803367Y-247168899D01*
X367838103Y-247187466D01*
X367868548Y-247212452D01*
X367893534Y-247242897D01*
X367912101Y-247277633D01*
X367923535Y-247315326D01*
X367928000Y-247360661D01*
X367928000Y-248447339D01*
X367923535Y-248492674D01*
X367912101Y-248530367D01*
X367893534Y-248565103D01*
X367868548Y-248595548D01*
X367838103Y-248620534D01*
X367803367Y-248639101D01*
X367765674Y-248650535D01*
X367720339Y-248655000D01*
X366883661Y-248655000D01*
X366838326Y-248650535D01*
X366800633Y-248639101D01*
X366765897Y-248620534D01*
X366735452Y-248595548D01*
X366710466Y-248565103D01*
X366691899Y-248530367D01*
X366680465Y-248492674D01*
X366676000Y-248447339D01*
X366676000Y-247360661D01*
X366680465Y-247315326D01*
X366691899Y-247277633D01*
X366710466Y-247242897D01*
X366735452Y-247212452D01*
X366765897Y-247187466D01*
X366800633Y-247168899D01*
X366838326Y-247157465D01*
X366883661Y-247153000D01*
X367720339Y-247153000D01*
X367765674Y-247157465D01*
X367765674Y-247157465D01*
G37*
G36*
X365715674Y-247157465D02*
G01*
X365753367Y-247168899D01*
X365788103Y-247187466D01*
X365818548Y-247212452D01*
X365843534Y-247242897D01*
X365862101Y-247277633D01*
X365873535Y-247315326D01*
X365878000Y-247360661D01*
X365878000Y-248447339D01*
X365873535Y-248492674D01*
X365862101Y-248530367D01*
X365843534Y-248565103D01*
X365818548Y-248595548D01*
X365788103Y-248620534D01*
X365753367Y-248639101D01*
X365715674Y-248650535D01*
X365670339Y-248655000D01*
X364833661Y-248655000D01*
X364788326Y-248650535D01*
X364750633Y-248639101D01*
X364715897Y-248620534D01*
X364685452Y-248595548D01*
X364660466Y-248565103D01*
X364641899Y-248530367D01*
X364630465Y-248492674D01*
X364626000Y-248447339D01*
X364626000Y-247360661D01*
X364630465Y-247315326D01*
X364641899Y-247277633D01*
X364660466Y-247242897D01*
X364685452Y-247212452D01*
X364715897Y-247187466D01*
X364750633Y-247168899D01*
X364788326Y-247157465D01*
X364833661Y-247153000D01*
X365670339Y-247153000D01*
X365715674Y-247157465D01*
X365715674Y-247157465D01*
G37*
G36*
X332104009Y-247234601D02*
G01*
X332182627Y-247267166D01*
X332182629Y-247267167D01*
X332253384Y-247314444D01*
X332313556Y-247374616D01*
X332313557Y-247374618D01*
X332360834Y-247445373D01*
X332393399Y-247523991D01*
X332410000Y-247607450D01*
X332410000Y-247692550D01*
X332393399Y-247776009D01*
X332360834Y-247854627D01*
X332360833Y-247854629D01*
X332313556Y-247925384D01*
X332253384Y-247985556D01*
X332182629Y-248032833D01*
X332182628Y-248032834D01*
X332182627Y-248032834D01*
X332104009Y-248065399D01*
X332020550Y-248082000D01*
X331935450Y-248082000D01*
X331851991Y-248065399D01*
X331773373Y-248032834D01*
X331773372Y-248032834D01*
X331773371Y-248032833D01*
X331702616Y-247985556D01*
X331642444Y-247925384D01*
X331595167Y-247854629D01*
X331595166Y-247854627D01*
X331562601Y-247776009D01*
X331546000Y-247692550D01*
X331546000Y-247607450D01*
X331562601Y-247523991D01*
X331595166Y-247445373D01*
X331642443Y-247374618D01*
X331642444Y-247374616D01*
X331702616Y-247314444D01*
X331773371Y-247267167D01*
X331773373Y-247267166D01*
X331851991Y-247234601D01*
X331935450Y-247218000D01*
X332020550Y-247218000D01*
X332104009Y-247234601D01*
X332104009Y-247234601D01*
G37*
G36*
X383620674Y-244243465D02*
G01*
X383658367Y-244254899D01*
X383693103Y-244273466D01*
X383723548Y-244298452D01*
X383748534Y-244328897D01*
X383767101Y-244363633D01*
X383778535Y-244401326D01*
X383783000Y-244446661D01*
X383783000Y-245283339D01*
X383778535Y-245328674D01*
X383767101Y-245366367D01*
X383748534Y-245401103D01*
X383723548Y-245431548D01*
X383693103Y-245456534D01*
X383658367Y-245475101D01*
X383620674Y-245486535D01*
X383575339Y-245491000D01*
X382488661Y-245491000D01*
X382443326Y-245486535D01*
X382405633Y-245475101D01*
X382370897Y-245456534D01*
X382340452Y-245431548D01*
X382315466Y-245401103D01*
X382296899Y-245366367D01*
X382285465Y-245328674D01*
X382281000Y-245283339D01*
X382281000Y-244446661D01*
X382285465Y-244401326D01*
X382296899Y-244363633D01*
X382315466Y-244328897D01*
X382340452Y-244298452D01*
X382370897Y-244273466D01*
X382405633Y-244254899D01*
X382443326Y-244243465D01*
X382488661Y-244239000D01*
X383575339Y-244239000D01*
X383620674Y-244243465D01*
X383620674Y-244243465D01*
G37*
G36*
X383620674Y-242193465D02*
G01*
X383658367Y-242204899D01*
X383693103Y-242223466D01*
X383723548Y-242248452D01*
X383748534Y-242278897D01*
X383767101Y-242313633D01*
X383778535Y-242351326D01*
X383783000Y-242396661D01*
X383783000Y-243233339D01*
X383778535Y-243278674D01*
X383767101Y-243316367D01*
X383748534Y-243351103D01*
X383723548Y-243381548D01*
X383693103Y-243406534D01*
X383658367Y-243425101D01*
X383620674Y-243436535D01*
X383575339Y-243441000D01*
X382488661Y-243441000D01*
X382443326Y-243436535D01*
X382405633Y-243425101D01*
X382370897Y-243406534D01*
X382340452Y-243381548D01*
X382315466Y-243351103D01*
X382296899Y-243316367D01*
X382285465Y-243278674D01*
X382281000Y-243233339D01*
X382281000Y-242396661D01*
X382285465Y-242351326D01*
X382296899Y-242313633D01*
X382315466Y-242278897D01*
X382340452Y-242248452D01*
X382370897Y-242223466D01*
X382405633Y-242204899D01*
X382443326Y-242193465D01*
X382488661Y-242189000D01*
X383575339Y-242189000D01*
X383620674Y-242193465D01*
X383620674Y-242193465D01*
G37*
G36*
X153364564Y-240217389D02*
G01*
X153555833Y-240296615D01*
X153555835Y-240296616D01*
X153727973Y-240411635D01*
X153874365Y-240558027D01*
X153989385Y-240730167D01*
X154068611Y-240921436D01*
X154109000Y-241124484D01*
X154109000Y-241331516D01*
X154068611Y-241534564D01*
X153993708Y-241715396D01*
X153989384Y-241725835D01*
X153874365Y-241897973D01*
X153727973Y-242044365D01*
X153555835Y-242159384D01*
X153555834Y-242159385D01*
X153555833Y-242159385D01*
X153364564Y-242238611D01*
X153161516Y-242279000D01*
X152954484Y-242279000D01*
X152751436Y-242238611D01*
X152560167Y-242159385D01*
X152560166Y-242159385D01*
X152560165Y-242159384D01*
X152388027Y-242044365D01*
X152241635Y-241897973D01*
X152126616Y-241725835D01*
X152122292Y-241715396D01*
X152047389Y-241534564D01*
X152007000Y-241331516D01*
X152007000Y-241124484D01*
X152047389Y-240921436D01*
X152126615Y-240730167D01*
X152241635Y-240558027D01*
X152388027Y-240411635D01*
X152560165Y-240296616D01*
X152560167Y-240296615D01*
X152751436Y-240217389D01*
X152954484Y-240177000D01*
X153161516Y-240177000D01*
X153364564Y-240217389D01*
X153364564Y-240217389D01*
G37*
G36*
X146864564Y-240217389D02*
G01*
X147055833Y-240296615D01*
X147055835Y-240296616D01*
X147227973Y-240411635D01*
X147374365Y-240558027D01*
X147489385Y-240730167D01*
X147568611Y-240921436D01*
X147609000Y-241124484D01*
X147609000Y-241331516D01*
X147568611Y-241534564D01*
X147493708Y-241715396D01*
X147489384Y-241725835D01*
X147374365Y-241897973D01*
X147227973Y-242044365D01*
X147055835Y-242159384D01*
X147055834Y-242159385D01*
X147055833Y-242159385D01*
X146864564Y-242238611D01*
X146661516Y-242279000D01*
X146454484Y-242279000D01*
X146251436Y-242238611D01*
X146060167Y-242159385D01*
X146060166Y-242159385D01*
X146060165Y-242159384D01*
X145888027Y-242044365D01*
X145741635Y-241897973D01*
X145626616Y-241725835D01*
X145622292Y-241715396D01*
X145547389Y-241534564D01*
X145507000Y-241331516D01*
X145507000Y-241124484D01*
X145547389Y-240921436D01*
X145626615Y-240730167D01*
X145741635Y-240558027D01*
X145888027Y-240411635D01*
X146060165Y-240296616D01*
X146060167Y-240296615D01*
X146251436Y-240217389D01*
X146454484Y-240177000D01*
X146661516Y-240177000D01*
X146864564Y-240217389D01*
X146864564Y-240217389D01*
G37*
G36*
X302894009Y-240884599D02*
G01*
X302972627Y-240917164D01*
X302972629Y-240917165D01*
X303043384Y-240964442D01*
X303103556Y-241024614D01*
X303103557Y-241024616D01*
X303150834Y-241095371D01*
X303183399Y-241173989D01*
X303200000Y-241257448D01*
X303200000Y-241342548D01*
X303183399Y-241426007D01*
X303150834Y-241504625D01*
X303150833Y-241504627D01*
X303103556Y-241575382D01*
X303043384Y-241635554D01*
X302972629Y-241682831D01*
X302972628Y-241682832D01*
X302972627Y-241682832D01*
X302894009Y-241715397D01*
X302810550Y-241731998D01*
X302725450Y-241731998D01*
X302641991Y-241715397D01*
X302563373Y-241682832D01*
X302563372Y-241682832D01*
X302563371Y-241682831D01*
X302492616Y-241635554D01*
X302432444Y-241575382D01*
X302385167Y-241504627D01*
X302385166Y-241504625D01*
X302352601Y-241426007D01*
X302336000Y-241342548D01*
X302336000Y-241257448D01*
X302352601Y-241173989D01*
X302385166Y-241095371D01*
X302432443Y-241024616D01*
X302432444Y-241024614D01*
X302492616Y-240964442D01*
X302563371Y-240917165D01*
X302563373Y-240917164D01*
X302641991Y-240884599D01*
X302725450Y-240867998D01*
X302810550Y-240867998D01*
X302894009Y-240884599D01*
X302894009Y-240884599D01*
G37*
G36*
X303356674Y-238655465D02*
G01*
X303394367Y-238666899D01*
X303429103Y-238685466D01*
X303459548Y-238710452D01*
X303484534Y-238740897D01*
X303503101Y-238775633D01*
X303514535Y-238813326D01*
X303519000Y-238858661D01*
X303519000Y-239695339D01*
X303514535Y-239740674D01*
X303503101Y-239778367D01*
X303484534Y-239813103D01*
X303459548Y-239843548D01*
X303429103Y-239868534D01*
X303394367Y-239887101D01*
X303356674Y-239898535D01*
X303311339Y-239903000D01*
X302224661Y-239903000D01*
X302179326Y-239898535D01*
X302141633Y-239887101D01*
X302106897Y-239868534D01*
X302076452Y-239843548D01*
X302051466Y-239813103D01*
X302032899Y-239778367D01*
X302021465Y-239740674D01*
X302017000Y-239695339D01*
X302017000Y-238858661D01*
X302021465Y-238813326D01*
X302032899Y-238775633D01*
X302051466Y-238740897D01*
X302076452Y-238710452D01*
X302106897Y-238685466D01*
X302141633Y-238666899D01*
X302179326Y-238655465D01*
X302224661Y-238651000D01*
X303311339Y-238651000D01*
X303356674Y-238655465D01*
X303356674Y-238655465D01*
G37*
G36*
X303356674Y-236605465D02*
G01*
X303394367Y-236616899D01*
X303429103Y-236635466D01*
X303459548Y-236660452D01*
X303484534Y-236690897D01*
X303503101Y-236725633D01*
X303514535Y-236763326D01*
X303519000Y-236808661D01*
X303519000Y-237645339D01*
X303514535Y-237690674D01*
X303503101Y-237728367D01*
X303484534Y-237763103D01*
X303459548Y-237793548D01*
X303429103Y-237818534D01*
X303394367Y-237837101D01*
X303356674Y-237848535D01*
X303311339Y-237853000D01*
X302224661Y-237853000D01*
X302179326Y-237848535D01*
X302141633Y-237837101D01*
X302106897Y-237818534D01*
X302076452Y-237793548D01*
X302051466Y-237763103D01*
X302032899Y-237728367D01*
X302021465Y-237690674D01*
X302017000Y-237645339D01*
X302017000Y-236808661D01*
X302021465Y-236763326D01*
X302032899Y-236725633D01*
X302051466Y-236690897D01*
X302076452Y-236660452D01*
X302106897Y-236635466D01*
X302141633Y-236616899D01*
X302179326Y-236605465D01*
X302224661Y-236601000D01*
X303311339Y-236601000D01*
X303356674Y-236605465D01*
X303356674Y-236605465D01*
G37*
G36*
X146864564Y-235717389D02*
G01*
X147055833Y-235796615D01*
X147055835Y-235796616D01*
X147227973Y-235911635D01*
X147374365Y-236058027D01*
X147489385Y-236230167D01*
X147568611Y-236421436D01*
X147609000Y-236624484D01*
X147609000Y-236831516D01*
X147568611Y-237034564D01*
X147489385Y-237225833D01*
X147489384Y-237225835D01*
X147374365Y-237397973D01*
X147227973Y-237544365D01*
X147055835Y-237659384D01*
X147055834Y-237659385D01*
X147055833Y-237659385D01*
X146864564Y-237738611D01*
X146661516Y-237779000D01*
X146454484Y-237779000D01*
X146251436Y-237738611D01*
X146060167Y-237659385D01*
X146060166Y-237659385D01*
X146060165Y-237659384D01*
X145888027Y-237544365D01*
X145741635Y-237397973D01*
X145626616Y-237225835D01*
X145626615Y-237225833D01*
X145547389Y-237034564D01*
X145507000Y-236831516D01*
X145507000Y-236624484D01*
X145547389Y-236421436D01*
X145626615Y-236230167D01*
X145741635Y-236058027D01*
X145888027Y-235911635D01*
X146060165Y-235796616D01*
X146060167Y-235796615D01*
X146251436Y-235717389D01*
X146454484Y-235677000D01*
X146661516Y-235677000D01*
X146864564Y-235717389D01*
X146864564Y-235717389D01*
G37*
G36*
X153364564Y-235717389D02*
G01*
X153555833Y-235796615D01*
X153555835Y-235796616D01*
X153727973Y-235911635D01*
X153874365Y-236058027D01*
X153989385Y-236230167D01*
X154068611Y-236421436D01*
X154109000Y-236624484D01*
X154109000Y-236831516D01*
X154068611Y-237034564D01*
X153989385Y-237225833D01*
X153989384Y-237225835D01*
X153874365Y-237397973D01*
X153727973Y-237544365D01*
X153555835Y-237659384D01*
X153555834Y-237659385D01*
X153555833Y-237659385D01*
X153364564Y-237738611D01*
X153161516Y-237779000D01*
X152954484Y-237779000D01*
X152751436Y-237738611D01*
X152560167Y-237659385D01*
X152560166Y-237659385D01*
X152560165Y-237659384D01*
X152388027Y-237544365D01*
X152241635Y-237397973D01*
X152126616Y-237225835D01*
X152126615Y-237225833D01*
X152047389Y-237034564D01*
X152007000Y-236831516D01*
X152007000Y-236624484D01*
X152047389Y-236421436D01*
X152126615Y-236230167D01*
X152241635Y-236058027D01*
X152388027Y-235911635D01*
X152560165Y-235796616D01*
X152560167Y-235796615D01*
X152751436Y-235717389D01*
X152954484Y-235677000D01*
X153161516Y-235677000D01*
X153364564Y-235717389D01*
X153364564Y-235717389D01*
G37*
G36*
X312500674Y-221374465D02*
G01*
X312538367Y-221385899D01*
X312573103Y-221404466D01*
X312603548Y-221429452D01*
X312628534Y-221459897D01*
X312647101Y-221494633D01*
X312658535Y-221532326D01*
X312663000Y-221577661D01*
X312663000Y-222414339D01*
X312658535Y-222459674D01*
X312647101Y-222497367D01*
X312628534Y-222532103D01*
X312603548Y-222562548D01*
X312573103Y-222587534D01*
X312538367Y-222606101D01*
X312500674Y-222617535D01*
X312455339Y-222622000D01*
X311368661Y-222622000D01*
X311323326Y-222617535D01*
X311285633Y-222606101D01*
X311250897Y-222587534D01*
X311220452Y-222562548D01*
X311195466Y-222532103D01*
X311176899Y-222497367D01*
X311165465Y-222459674D01*
X311161000Y-222414339D01*
X311161000Y-221577661D01*
X311165465Y-221532326D01*
X311176899Y-221494633D01*
X311195466Y-221459897D01*
X311220452Y-221429452D01*
X311250897Y-221404466D01*
X311285633Y-221385899D01*
X311323326Y-221374465D01*
X311368661Y-221370000D01*
X312455339Y-221370000D01*
X312500674Y-221374465D01*
X312500674Y-221374465D01*
G37*
G36*
X316564674Y-221374465D02*
G01*
X316602367Y-221385899D01*
X316637103Y-221404466D01*
X316667548Y-221429452D01*
X316692534Y-221459897D01*
X316711101Y-221494633D01*
X316722535Y-221532326D01*
X316727000Y-221577661D01*
X316727000Y-222414339D01*
X316722535Y-222459674D01*
X316711101Y-222497367D01*
X316692534Y-222532103D01*
X316667548Y-222562548D01*
X316637103Y-222587534D01*
X316602367Y-222606101D01*
X316564674Y-222617535D01*
X316519339Y-222622000D01*
X315432661Y-222622000D01*
X315387326Y-222617535D01*
X315349633Y-222606101D01*
X315314897Y-222587534D01*
X315284452Y-222562548D01*
X315259466Y-222532103D01*
X315240899Y-222497367D01*
X315229465Y-222459674D01*
X315225000Y-222414339D01*
X315225000Y-221577661D01*
X315229465Y-221532326D01*
X315240899Y-221494633D01*
X315259466Y-221459897D01*
X315284452Y-221429452D01*
X315314897Y-221404466D01*
X315349633Y-221385899D01*
X315387326Y-221374465D01*
X315432661Y-221370000D01*
X316519339Y-221370000D01*
X316564674Y-221374465D01*
X316564674Y-221374465D01*
G37*
G36*
X153364564Y-219897389D02*
G01*
X153541391Y-219970633D01*
X153555835Y-219976616D01*
X153671141Y-220053661D01*
X153727973Y-220091635D01*
X153874365Y-220238027D01*
X153989385Y-220410167D01*
X154068611Y-220601436D01*
X154109000Y-220804484D01*
X154109000Y-221011516D01*
X154068611Y-221214564D01*
X154004227Y-221370000D01*
X153989384Y-221405835D01*
X153874365Y-221577973D01*
X153727973Y-221724365D01*
X153555835Y-221839384D01*
X153555834Y-221839385D01*
X153555833Y-221839385D01*
X153364564Y-221918611D01*
X153161516Y-221959000D01*
X152954484Y-221959000D01*
X152751436Y-221918611D01*
X152560167Y-221839385D01*
X152560166Y-221839385D01*
X152560165Y-221839384D01*
X152388027Y-221724365D01*
X152241635Y-221577973D01*
X152126616Y-221405835D01*
X152111773Y-221370000D01*
X152047389Y-221214564D01*
X152007000Y-221011516D01*
X152007000Y-220804484D01*
X152047389Y-220601436D01*
X152126615Y-220410167D01*
X152241635Y-220238027D01*
X152388027Y-220091635D01*
X152444859Y-220053661D01*
X152560165Y-219976616D01*
X152574609Y-219970633D01*
X152751436Y-219897389D01*
X152954484Y-219857000D01*
X153161516Y-219857000D01*
X153364564Y-219897389D01*
X153364564Y-219897389D01*
G37*
G36*
X146864564Y-219897389D02*
G01*
X147041391Y-219970633D01*
X147055835Y-219976616D01*
X147171141Y-220053661D01*
X147227973Y-220091635D01*
X147374365Y-220238027D01*
X147489385Y-220410167D01*
X147568611Y-220601436D01*
X147609000Y-220804484D01*
X147609000Y-221011516D01*
X147568611Y-221214564D01*
X147504227Y-221370000D01*
X147489384Y-221405835D01*
X147374365Y-221577973D01*
X147227973Y-221724365D01*
X147055835Y-221839384D01*
X147055834Y-221839385D01*
X147055833Y-221839385D01*
X146864564Y-221918611D01*
X146661516Y-221959000D01*
X146454484Y-221959000D01*
X146251436Y-221918611D01*
X146060167Y-221839385D01*
X146060166Y-221839385D01*
X146060165Y-221839384D01*
X145888027Y-221724365D01*
X145741635Y-221577973D01*
X145626616Y-221405835D01*
X145611773Y-221370000D01*
X145547389Y-221214564D01*
X145507000Y-221011516D01*
X145507000Y-220804484D01*
X145547389Y-220601436D01*
X145626615Y-220410167D01*
X145741635Y-220238027D01*
X145888027Y-220091635D01*
X145944859Y-220053661D01*
X146060165Y-219976616D01*
X146074609Y-219970633D01*
X146251436Y-219897389D01*
X146454484Y-219857000D01*
X146661516Y-219857000D01*
X146864564Y-219897389D01*
X146864564Y-219897389D01*
G37*
G36*
X303102674Y-219850465D02*
G01*
X303140367Y-219861899D01*
X303175103Y-219880466D01*
X303205548Y-219905452D01*
X303230534Y-219935897D01*
X303249101Y-219970633D01*
X303260535Y-220008326D01*
X303265000Y-220053661D01*
X303265000Y-220890339D01*
X303260535Y-220935674D01*
X303249101Y-220973367D01*
X303230534Y-221008103D01*
X303205548Y-221038548D01*
X303175103Y-221063534D01*
X303140367Y-221082101D01*
X303102674Y-221093535D01*
X303057339Y-221098000D01*
X301970661Y-221098000D01*
X301925326Y-221093535D01*
X301887633Y-221082101D01*
X301852897Y-221063534D01*
X301822452Y-221038548D01*
X301797466Y-221008103D01*
X301778899Y-220973367D01*
X301767465Y-220935674D01*
X301763000Y-220890339D01*
X301763000Y-220053661D01*
X301767465Y-220008326D01*
X301778899Y-219970633D01*
X301797466Y-219935897D01*
X301822452Y-219905452D01*
X301852897Y-219880466D01*
X301887633Y-219861899D01*
X301925326Y-219850465D01*
X301970661Y-219846000D01*
X303057339Y-219846000D01*
X303102674Y-219850465D01*
X303102674Y-219850465D01*
G37*
G36*
X316564674Y-219324465D02*
G01*
X316602367Y-219335899D01*
X316637103Y-219354466D01*
X316667548Y-219379452D01*
X316692534Y-219409897D01*
X316711101Y-219444633D01*
X316722535Y-219482326D01*
X316727000Y-219527661D01*
X316727000Y-220364339D01*
X316722535Y-220409674D01*
X316711101Y-220447367D01*
X316692534Y-220482103D01*
X316667548Y-220512548D01*
X316637103Y-220537534D01*
X316602367Y-220556101D01*
X316564674Y-220567535D01*
X316519339Y-220572000D01*
X315432661Y-220572000D01*
X315387326Y-220567535D01*
X315349633Y-220556101D01*
X315314897Y-220537534D01*
X315284452Y-220512548D01*
X315259466Y-220482103D01*
X315240899Y-220447367D01*
X315229465Y-220409674D01*
X315225000Y-220364339D01*
X315225000Y-219527661D01*
X315229465Y-219482326D01*
X315240899Y-219444633D01*
X315259466Y-219409897D01*
X315284452Y-219379452D01*
X315314897Y-219354466D01*
X315349633Y-219335899D01*
X315387326Y-219324465D01*
X315432661Y-219320000D01*
X316519339Y-219320000D01*
X316564674Y-219324465D01*
X316564674Y-219324465D01*
G37*
G36*
X312500674Y-219324465D02*
G01*
X312538367Y-219335899D01*
X312573103Y-219354466D01*
X312603548Y-219379452D01*
X312628534Y-219409897D01*
X312647101Y-219444633D01*
X312658535Y-219482326D01*
X312663000Y-219527661D01*
X312663000Y-220364339D01*
X312658535Y-220409674D01*
X312647101Y-220447367D01*
X312628534Y-220482103D01*
X312603548Y-220512548D01*
X312573103Y-220537534D01*
X312538367Y-220556101D01*
X312500674Y-220567535D01*
X312455339Y-220572000D01*
X311368661Y-220572000D01*
X311323326Y-220567535D01*
X311285633Y-220556101D01*
X311250897Y-220537534D01*
X311220452Y-220512548D01*
X311195466Y-220482103D01*
X311176899Y-220447367D01*
X311165465Y-220409674D01*
X311161000Y-220364339D01*
X311161000Y-219527661D01*
X311165465Y-219482326D01*
X311176899Y-219444633D01*
X311195466Y-219409897D01*
X311220452Y-219379452D01*
X311250897Y-219354466D01*
X311285633Y-219335899D01*
X311323326Y-219324465D01*
X311368661Y-219320000D01*
X312455339Y-219320000D01*
X312500674Y-219324465D01*
X312500674Y-219324465D01*
G37*
G36*
X303102674Y-217800465D02*
G01*
X303140367Y-217811899D01*
X303175103Y-217830466D01*
X303205548Y-217855452D01*
X303230534Y-217885897D01*
X303249101Y-217920633D01*
X303260535Y-217958326D01*
X303265000Y-218003661D01*
X303265000Y-218840339D01*
X303260535Y-218885674D01*
X303249101Y-218923367D01*
X303230534Y-218958103D01*
X303205548Y-218988548D01*
X303175103Y-219013534D01*
X303140367Y-219032101D01*
X303102674Y-219043535D01*
X303057339Y-219048000D01*
X301970661Y-219048000D01*
X301925326Y-219043535D01*
X301887633Y-219032101D01*
X301852897Y-219013534D01*
X301822452Y-218988548D01*
X301797466Y-218958103D01*
X301778899Y-218923367D01*
X301767465Y-218885674D01*
X301763000Y-218840339D01*
X301763000Y-218003661D01*
X301767465Y-217958326D01*
X301778899Y-217920633D01*
X301797466Y-217885897D01*
X301822452Y-217855452D01*
X301852897Y-217830466D01*
X301887633Y-217811899D01*
X301925326Y-217800465D01*
X301970661Y-217796000D01*
X303057339Y-217796000D01*
X303102674Y-217800465D01*
X303102674Y-217800465D01*
G37*
G36*
X146864564Y-215397389D02*
G01*
X147055833Y-215476615D01*
X147055835Y-215476616D01*
X147227973Y-215591635D01*
X147374365Y-215738027D01*
X147489385Y-215910167D01*
X147568611Y-216101436D01*
X147609000Y-216304484D01*
X147609000Y-216511516D01*
X147568611Y-216714564D01*
X147489385Y-216905833D01*
X147489384Y-216905835D01*
X147374365Y-217077973D01*
X147227973Y-217224365D01*
X147055835Y-217339384D01*
X147055834Y-217339385D01*
X147055833Y-217339385D01*
X146864564Y-217418611D01*
X146661516Y-217459000D01*
X146454484Y-217459000D01*
X146251436Y-217418611D01*
X146060167Y-217339385D01*
X146060166Y-217339385D01*
X146060165Y-217339384D01*
X145888027Y-217224365D01*
X145741635Y-217077973D01*
X145626616Y-216905835D01*
X145626615Y-216905833D01*
X145547389Y-216714564D01*
X145507000Y-216511516D01*
X145507000Y-216304484D01*
X145547389Y-216101436D01*
X145626615Y-215910167D01*
X145741635Y-215738027D01*
X145888027Y-215591635D01*
X146060165Y-215476616D01*
X146060167Y-215476615D01*
X146251436Y-215397389D01*
X146454484Y-215357000D01*
X146661516Y-215357000D01*
X146864564Y-215397389D01*
X146864564Y-215397389D01*
G37*
G36*
X153364564Y-215397389D02*
G01*
X153555833Y-215476615D01*
X153555835Y-215476616D01*
X153727973Y-215591635D01*
X153874365Y-215738027D01*
X153989385Y-215910167D01*
X154068611Y-216101436D01*
X154109000Y-216304484D01*
X154109000Y-216511516D01*
X154068611Y-216714564D01*
X153989385Y-216905833D01*
X153989384Y-216905835D01*
X153874365Y-217077973D01*
X153727973Y-217224365D01*
X153555835Y-217339384D01*
X153555834Y-217339385D01*
X153555833Y-217339385D01*
X153364564Y-217418611D01*
X153161516Y-217459000D01*
X152954484Y-217459000D01*
X152751436Y-217418611D01*
X152560167Y-217339385D01*
X152560166Y-217339385D01*
X152560165Y-217339384D01*
X152388027Y-217224365D01*
X152241635Y-217077973D01*
X152126616Y-216905835D01*
X152126615Y-216905833D01*
X152047389Y-216714564D01*
X152007000Y-216511516D01*
X152007000Y-216304484D01*
X152047389Y-216101436D01*
X152126615Y-215910167D01*
X152241635Y-215738027D01*
X152388027Y-215591635D01*
X152560165Y-215476616D01*
X152560167Y-215476615D01*
X152751436Y-215397389D01*
X152954484Y-215357000D01*
X153161516Y-215357000D01*
X153364564Y-215397389D01*
X153364564Y-215397389D01*
G37*
G36*
X309752009Y-208118601D02*
G01*
X309812909Y-208143827D01*
X309830629Y-208151167D01*
X309901384Y-208198444D01*
X309961556Y-208258616D01*
X309985892Y-208295038D01*
X310008834Y-208329373D01*
X310041399Y-208407991D01*
X310058000Y-208491450D01*
X310058000Y-208576550D01*
X310041399Y-208660009D01*
X310008834Y-208738627D01*
X310008833Y-208738629D01*
X309961556Y-208809384D01*
X309901384Y-208869556D01*
X309830629Y-208916833D01*
X309830628Y-208916834D01*
X309830627Y-208916834D01*
X309752009Y-208949399D01*
X309668550Y-208966000D01*
X309583450Y-208966000D01*
X309499991Y-208949399D01*
X309421373Y-208916834D01*
X309421372Y-208916834D01*
X309421371Y-208916833D01*
X309350616Y-208869556D01*
X309290444Y-208809384D01*
X309243167Y-208738629D01*
X309243166Y-208738627D01*
X309210601Y-208660009D01*
X309194000Y-208576550D01*
X309194000Y-208491450D01*
X309210601Y-208407991D01*
X309243166Y-208329373D01*
X309266108Y-208295038D01*
X309290444Y-208258616D01*
X309350616Y-208198444D01*
X309421371Y-208151167D01*
X309439091Y-208143827D01*
X309499991Y-208118601D01*
X309583450Y-208102000D01*
X309668550Y-208102000D01*
X309752009Y-208118601D01*
X309752009Y-208118601D01*
G37*
G36*
X322152674Y-207168465D02*
G01*
X322190367Y-207179899D01*
X322225103Y-207198466D01*
X322255548Y-207223452D01*
X322280534Y-207253897D01*
X322299101Y-207288633D01*
X322310535Y-207326326D01*
X322315000Y-207371661D01*
X322315000Y-208208339D01*
X322310535Y-208253674D01*
X322299101Y-208291367D01*
X322280534Y-208326103D01*
X322255548Y-208356548D01*
X322225103Y-208381534D01*
X322190367Y-208400101D01*
X322152674Y-208411535D01*
X322107339Y-208416000D01*
X321020661Y-208416000D01*
X320975326Y-208411535D01*
X320937633Y-208400101D01*
X320902897Y-208381534D01*
X320872452Y-208356548D01*
X320847466Y-208326103D01*
X320828899Y-208291367D01*
X320817465Y-208253674D01*
X320813000Y-208208339D01*
X320813000Y-207371661D01*
X320817465Y-207326326D01*
X320828899Y-207288633D01*
X320847466Y-207253897D01*
X320872452Y-207223452D01*
X320902897Y-207198466D01*
X320937633Y-207179899D01*
X320975326Y-207168465D01*
X321020661Y-207164000D01*
X322107339Y-207164000D01*
X322152674Y-207168465D01*
X322152674Y-207168465D01*
G37*
G36*
X311992674Y-206143465D02*
G01*
X312030367Y-206154899D01*
X312065103Y-206173466D01*
X312095548Y-206198452D01*
X312120534Y-206228897D01*
X312139101Y-206263633D01*
X312150535Y-206301326D01*
X312155000Y-206346661D01*
X312155000Y-207183339D01*
X312150535Y-207228674D01*
X312139101Y-207266367D01*
X312120534Y-207301103D01*
X312095548Y-207331548D01*
X312065103Y-207356534D01*
X312030367Y-207375101D01*
X311992674Y-207386535D01*
X311947339Y-207391000D01*
X310860661Y-207391000D01*
X310815326Y-207386535D01*
X310777633Y-207375101D01*
X310742897Y-207356534D01*
X310712452Y-207331548D01*
X310687466Y-207301103D01*
X310668899Y-207266367D01*
X310657465Y-207228674D01*
X310653000Y-207183339D01*
X310653000Y-206346661D01*
X310657465Y-206301326D01*
X310668899Y-206263633D01*
X310687466Y-206228897D01*
X310712452Y-206198452D01*
X310742897Y-206173466D01*
X310777633Y-206154899D01*
X310815326Y-206143465D01*
X310860661Y-206139000D01*
X311947339Y-206139000D01*
X311992674Y-206143465D01*
X311992674Y-206143465D01*
G37*
G36*
X322152674Y-205118465D02*
G01*
X322190367Y-205129899D01*
X322225103Y-205148466D01*
X322255548Y-205173452D01*
X322280534Y-205203897D01*
X322299101Y-205238633D01*
X322310535Y-205276326D01*
X322315000Y-205321661D01*
X322315000Y-206158339D01*
X322310535Y-206203674D01*
X322299101Y-206241367D01*
X322280534Y-206276103D01*
X322255548Y-206306548D01*
X322225103Y-206331534D01*
X322190367Y-206350101D01*
X322152674Y-206361535D01*
X322107339Y-206366000D01*
X321020661Y-206366000D01*
X320975326Y-206361535D01*
X320937633Y-206350101D01*
X320902897Y-206331534D01*
X320872452Y-206306548D01*
X320847466Y-206276103D01*
X320828899Y-206241367D01*
X320817465Y-206203674D01*
X320813000Y-206158339D01*
X320813000Y-205321661D01*
X320817465Y-205276326D01*
X320828899Y-205238633D01*
X320847466Y-205203897D01*
X320872452Y-205173452D01*
X320902897Y-205148466D01*
X320937633Y-205129899D01*
X320975326Y-205118465D01*
X321020661Y-205114000D01*
X322107339Y-205114000D01*
X322152674Y-205118465D01*
X322152674Y-205118465D01*
G37*
G36*
X311992674Y-204093465D02*
G01*
X312030367Y-204104899D01*
X312065103Y-204123466D01*
X312095548Y-204148452D01*
X312120534Y-204178897D01*
X312139101Y-204213633D01*
X312150535Y-204251326D01*
X312155000Y-204296661D01*
X312155000Y-205133339D01*
X312150535Y-205178674D01*
X312139101Y-205216367D01*
X312120534Y-205251103D01*
X312095548Y-205281548D01*
X312065103Y-205306534D01*
X312030367Y-205325101D01*
X311992674Y-205336535D01*
X311947339Y-205341000D01*
X310860661Y-205341000D01*
X310815326Y-205336535D01*
X310777633Y-205325101D01*
X310742897Y-205306534D01*
X310712452Y-205281548D01*
X310687466Y-205251103D01*
X310668899Y-205216367D01*
X310657465Y-205178674D01*
X310653000Y-205133339D01*
X310653000Y-204296661D01*
X310657465Y-204251326D01*
X310668899Y-204213633D01*
X310687466Y-204178897D01*
X310712452Y-204148452D01*
X310742897Y-204123466D01*
X310777633Y-204104899D01*
X310815326Y-204093465D01*
X310860661Y-204089000D01*
X311947339Y-204089000D01*
X311992674Y-204093465D01*
X311992674Y-204093465D01*
G37*
G36*
X299339583Y-202568252D02*
G01*
X299377276Y-202579686D01*
X299412012Y-202598253D01*
X299447225Y-202627151D01*
X300038849Y-203218775D01*
X300067747Y-203253988D01*
X300086314Y-203288724D01*
X300097748Y-203326417D01*
X300101608Y-203365612D01*
X300097748Y-203404807D01*
X300086314Y-203442500D01*
X300067747Y-203477236D01*
X300038849Y-203512449D01*
X299270449Y-204280849D01*
X299235236Y-204309747D01*
X299200500Y-204328314D01*
X299162807Y-204339748D01*
X299123612Y-204343608D01*
X299084417Y-204339748D01*
X299046724Y-204328314D01*
X299011988Y-204309747D01*
X298976775Y-204280849D01*
X298385151Y-203689225D01*
X298356253Y-203654012D01*
X298337686Y-203619276D01*
X298326252Y-203581583D01*
X298322392Y-203542388D01*
X298326252Y-203503193D01*
X298337686Y-203465500D01*
X298356253Y-203430764D01*
X298385151Y-203395551D01*
X299153551Y-202627151D01*
X299188764Y-202598253D01*
X299223500Y-202579686D01*
X299261193Y-202568252D01*
X299300388Y-202564392D01*
X299339583Y-202568252D01*
X299339583Y-202568252D01*
G37*
G36*
X297890015Y-201118684D02*
G01*
X297927708Y-201130118D01*
X297962444Y-201148685D01*
X297997657Y-201177583D01*
X298589281Y-201769207D01*
X298618179Y-201804420D01*
X298636746Y-201839156D01*
X298648180Y-201876849D01*
X298652040Y-201916044D01*
X298648180Y-201955239D01*
X298636746Y-201992932D01*
X298618179Y-202027668D01*
X298589281Y-202062881D01*
X297820881Y-202831281D01*
X297785668Y-202860179D01*
X297750932Y-202878746D01*
X297713239Y-202890180D01*
X297674044Y-202894040D01*
X297634849Y-202890180D01*
X297597156Y-202878746D01*
X297562420Y-202860179D01*
X297527207Y-202831281D01*
X296935583Y-202239657D01*
X296906685Y-202204444D01*
X296888118Y-202169708D01*
X296876684Y-202132015D01*
X296872824Y-202092820D01*
X296876684Y-202053625D01*
X296888118Y-202015932D01*
X296906685Y-201981196D01*
X296935583Y-201945983D01*
X297703983Y-201177583D01*
X297739196Y-201148685D01*
X297773932Y-201130118D01*
X297811625Y-201118684D01*
X297850820Y-201114824D01*
X297890015Y-201118684D01*
X297890015Y-201118684D01*
G37*
G36*
X146864564Y-199577389D02*
G01*
X147055833Y-199656615D01*
X147055835Y-199656616D01*
X147227973Y-199771635D01*
X147374365Y-199918027D01*
X147489385Y-200090167D01*
X147568611Y-200281436D01*
X147609000Y-200484484D01*
X147609000Y-200691516D01*
X147568611Y-200894564D01*
X147489385Y-201085833D01*
X147489384Y-201085835D01*
X147374365Y-201257973D01*
X147227973Y-201404365D01*
X147055835Y-201519384D01*
X147055834Y-201519385D01*
X147055833Y-201519385D01*
X146864564Y-201598611D01*
X146661516Y-201639000D01*
X146454484Y-201639000D01*
X146251436Y-201598611D01*
X146060167Y-201519385D01*
X146060166Y-201519385D01*
X146060165Y-201519384D01*
X145888027Y-201404365D01*
X145741635Y-201257973D01*
X145626616Y-201085835D01*
X145626615Y-201085833D01*
X145547389Y-200894564D01*
X145507000Y-200691516D01*
X145507000Y-200484484D01*
X145547389Y-200281436D01*
X145626615Y-200090167D01*
X145741635Y-199918027D01*
X145888027Y-199771635D01*
X146060165Y-199656616D01*
X146060167Y-199656615D01*
X146251436Y-199577389D01*
X146454484Y-199537000D01*
X146661516Y-199537000D01*
X146864564Y-199577389D01*
X146864564Y-199577389D01*
G37*
G36*
X153364564Y-199577389D02*
G01*
X153555833Y-199656615D01*
X153555835Y-199656616D01*
X153727973Y-199771635D01*
X153874365Y-199918027D01*
X153989385Y-200090167D01*
X154068611Y-200281436D01*
X154109000Y-200484484D01*
X154109000Y-200691516D01*
X154068611Y-200894564D01*
X153989385Y-201085833D01*
X153989384Y-201085835D01*
X153874365Y-201257973D01*
X153727973Y-201404365D01*
X153555835Y-201519384D01*
X153555834Y-201519385D01*
X153555833Y-201519385D01*
X153364564Y-201598611D01*
X153161516Y-201639000D01*
X152954484Y-201639000D01*
X152751436Y-201598611D01*
X152560167Y-201519385D01*
X152560166Y-201519385D01*
X152560165Y-201519384D01*
X152388027Y-201404365D01*
X152241635Y-201257973D01*
X152126616Y-201085835D01*
X152126615Y-201085833D01*
X152047389Y-200894564D01*
X152007000Y-200691516D01*
X152007000Y-200484484D01*
X152047389Y-200281436D01*
X152126615Y-200090167D01*
X152241635Y-199918027D01*
X152388027Y-199771635D01*
X152560165Y-199656616D01*
X152560167Y-199656615D01*
X152751436Y-199577389D01*
X152954484Y-199537000D01*
X153161516Y-199537000D01*
X153364564Y-199577389D01*
X153364564Y-199577389D01*
G37*
G36*
X146864564Y-195077389D02*
G01*
X147055833Y-195156615D01*
X147055835Y-195156616D01*
X147227973Y-195271635D01*
X147374365Y-195418027D01*
X147489385Y-195590167D01*
X147568611Y-195781436D01*
X147609000Y-195984484D01*
X147609000Y-196191516D01*
X147568611Y-196394564D01*
X147489385Y-196585833D01*
X147489384Y-196585835D01*
X147374365Y-196757973D01*
X147227973Y-196904365D01*
X147055835Y-197019384D01*
X147055834Y-197019385D01*
X147055833Y-197019385D01*
X146864564Y-197098611D01*
X146661516Y-197139000D01*
X146454484Y-197139000D01*
X146251436Y-197098611D01*
X146060167Y-197019385D01*
X146060166Y-197019385D01*
X146060165Y-197019384D01*
X145888027Y-196904365D01*
X145741635Y-196757973D01*
X145626616Y-196585835D01*
X145626615Y-196585833D01*
X145547389Y-196394564D01*
X145507000Y-196191516D01*
X145507000Y-195984484D01*
X145547389Y-195781436D01*
X145626615Y-195590167D01*
X145741635Y-195418027D01*
X145888027Y-195271635D01*
X146060165Y-195156616D01*
X146060167Y-195156615D01*
X146251436Y-195077389D01*
X146454484Y-195037000D01*
X146661516Y-195037000D01*
X146864564Y-195077389D01*
X146864564Y-195077389D01*
G37*
G36*
X153364564Y-195077389D02*
G01*
X153555833Y-195156615D01*
X153555835Y-195156616D01*
X153727973Y-195271635D01*
X153874365Y-195418027D01*
X153989385Y-195590167D01*
X154068611Y-195781436D01*
X154109000Y-195984484D01*
X154109000Y-196191516D01*
X154068611Y-196394564D01*
X153989385Y-196585833D01*
X153989384Y-196585835D01*
X153874365Y-196757973D01*
X153727973Y-196904365D01*
X153555835Y-197019384D01*
X153555834Y-197019385D01*
X153555833Y-197019385D01*
X153364564Y-197098611D01*
X153161516Y-197139000D01*
X152954484Y-197139000D01*
X152751436Y-197098611D01*
X152560167Y-197019385D01*
X152560166Y-197019385D01*
X152560165Y-197019384D01*
X152388027Y-196904365D01*
X152241635Y-196757973D01*
X152126616Y-196585835D01*
X152126615Y-196585833D01*
X152047389Y-196394564D01*
X152007000Y-196191516D01*
X152007000Y-195984484D01*
X152047389Y-195781436D01*
X152126615Y-195590167D01*
X152241635Y-195418027D01*
X152388027Y-195271635D01*
X152560165Y-195156616D01*
X152560167Y-195156615D01*
X152751436Y-195077389D01*
X152954484Y-195037000D01*
X153161516Y-195037000D01*
X153364564Y-195077389D01*
X153364564Y-195077389D01*
G37*
G36*
X283798674Y-189642465D02*
G01*
X283836367Y-189653899D01*
X283871103Y-189672466D01*
X283901548Y-189697452D01*
X283926534Y-189727897D01*
X283945101Y-189762633D01*
X283956535Y-189800326D01*
X283961000Y-189845661D01*
X283961000Y-190682339D01*
X283956535Y-190727674D01*
X283945101Y-190765367D01*
X283926534Y-190800103D01*
X283901548Y-190830548D01*
X283871103Y-190855534D01*
X283836367Y-190874101D01*
X283798674Y-190885535D01*
X283753339Y-190890000D01*
X282666661Y-190890000D01*
X282621326Y-190885535D01*
X282583633Y-190874101D01*
X282548897Y-190855534D01*
X282518452Y-190830548D01*
X282493466Y-190800103D01*
X282474899Y-190765367D01*
X282463465Y-190727674D01*
X282459000Y-190682339D01*
X282459000Y-189845661D01*
X282463465Y-189800326D01*
X282474899Y-189762633D01*
X282493466Y-189727897D01*
X282518452Y-189697452D01*
X282548897Y-189672466D01*
X282583633Y-189653899D01*
X282621326Y-189642465D01*
X282666661Y-189638000D01*
X283753339Y-189638000D01*
X283798674Y-189642465D01*
X283798674Y-189642465D01*
G37*
G36*
X283798674Y-187592465D02*
G01*
X283836367Y-187603899D01*
X283871103Y-187622466D01*
X283901548Y-187647452D01*
X283926534Y-187677897D01*
X283945101Y-187712633D01*
X283956535Y-187750326D01*
X283961000Y-187795661D01*
X283961000Y-188632339D01*
X283956535Y-188677674D01*
X283945101Y-188715367D01*
X283926534Y-188750103D01*
X283901548Y-188780548D01*
X283871103Y-188805534D01*
X283836367Y-188824101D01*
X283798674Y-188835535D01*
X283753339Y-188840000D01*
X282666661Y-188840000D01*
X282621326Y-188835535D01*
X282583633Y-188824101D01*
X282548897Y-188805534D01*
X282518452Y-188780548D01*
X282493466Y-188750103D01*
X282474899Y-188715367D01*
X282463465Y-188677674D01*
X282459000Y-188632339D01*
X282459000Y-187795661D01*
X282463465Y-187750326D01*
X282474899Y-187712633D01*
X282493466Y-187677897D01*
X282518452Y-187647452D01*
X282548897Y-187622466D01*
X282583633Y-187603899D01*
X282621326Y-187592465D01*
X282666661Y-187588000D01*
X283753339Y-187588000D01*
X283798674Y-187592465D01*
X283798674Y-187592465D01*
G37*
G36*
X153364564Y-179257389D02*
G01*
X153555833Y-179336615D01*
X153555835Y-179336616D01*
X153727973Y-179451635D01*
X153874365Y-179598027D01*
X153989385Y-179770167D01*
X154068611Y-179961436D01*
X154109000Y-180164484D01*
X154109000Y-180371516D01*
X154068611Y-180574564D01*
X153989385Y-180765833D01*
X153989384Y-180765835D01*
X153874365Y-180937973D01*
X153727973Y-181084365D01*
X153555835Y-181199384D01*
X153555834Y-181199385D01*
X153555833Y-181199385D01*
X153364564Y-181278611D01*
X153161516Y-181319000D01*
X152954484Y-181319000D01*
X152751436Y-181278611D01*
X152560167Y-181199385D01*
X152560166Y-181199385D01*
X152560165Y-181199384D01*
X152388027Y-181084365D01*
X152241635Y-180937973D01*
X152126616Y-180765835D01*
X152126615Y-180765833D01*
X152047389Y-180574564D01*
X152007000Y-180371516D01*
X152007000Y-180164484D01*
X152047389Y-179961436D01*
X152126615Y-179770167D01*
X152241635Y-179598027D01*
X152388027Y-179451635D01*
X152560165Y-179336616D01*
X152560167Y-179336615D01*
X152751436Y-179257389D01*
X152954484Y-179217000D01*
X153161516Y-179217000D01*
X153364564Y-179257389D01*
X153364564Y-179257389D01*
G37*
G36*
X146864564Y-179257389D02*
G01*
X147055833Y-179336615D01*
X147055835Y-179336616D01*
X147227973Y-179451635D01*
X147374365Y-179598027D01*
X147489385Y-179770167D01*
X147568611Y-179961436D01*
X147609000Y-180164484D01*
X147609000Y-180371516D01*
X147568611Y-180574564D01*
X147489385Y-180765833D01*
X147489384Y-180765835D01*
X147374365Y-180937973D01*
X147227973Y-181084365D01*
X147055835Y-181199384D01*
X147055834Y-181199385D01*
X147055833Y-181199385D01*
X146864564Y-181278611D01*
X146661516Y-181319000D01*
X146454484Y-181319000D01*
X146251436Y-181278611D01*
X146060167Y-181199385D01*
X146060166Y-181199385D01*
X146060165Y-181199384D01*
X145888027Y-181084365D01*
X145741635Y-180937973D01*
X145626616Y-180765835D01*
X145626615Y-180765833D01*
X145547389Y-180574564D01*
X145507000Y-180371516D01*
X145507000Y-180164484D01*
X145547389Y-179961436D01*
X145626615Y-179770167D01*
X145741635Y-179598027D01*
X145888027Y-179451635D01*
X146060165Y-179336616D01*
X146060167Y-179336615D01*
X146251436Y-179257389D01*
X146454484Y-179217000D01*
X146661516Y-179217000D01*
X146864564Y-179257389D01*
X146864564Y-179257389D01*
G37*
G36*
X153364564Y-174757389D02*
G01*
X153555833Y-174836615D01*
X153555835Y-174836616D01*
X153727973Y-174951635D01*
X153874365Y-175098027D01*
X153989385Y-175270167D01*
X154068611Y-175461436D01*
X154109000Y-175664484D01*
X154109000Y-175871516D01*
X154068611Y-176074564D01*
X153989385Y-176265833D01*
X153989384Y-176265835D01*
X153874365Y-176437973D01*
X153727973Y-176584365D01*
X153555835Y-176699384D01*
X153555834Y-176699385D01*
X153555833Y-176699385D01*
X153364564Y-176778611D01*
X153161516Y-176819000D01*
X152954484Y-176819000D01*
X152751436Y-176778611D01*
X152560167Y-176699385D01*
X152560166Y-176699385D01*
X152560165Y-176699384D01*
X152388027Y-176584365D01*
X152241635Y-176437973D01*
X152126616Y-176265835D01*
X152126615Y-176265833D01*
X152047389Y-176074564D01*
X152007000Y-175871516D01*
X152007000Y-175664484D01*
X152047389Y-175461436D01*
X152126615Y-175270167D01*
X152241635Y-175098027D01*
X152388027Y-174951635D01*
X152560165Y-174836616D01*
X152560167Y-174836615D01*
X152751436Y-174757389D01*
X152954484Y-174717000D01*
X153161516Y-174717000D01*
X153364564Y-174757389D01*
X153364564Y-174757389D01*
G37*
G36*
X146864564Y-174757389D02*
G01*
X147055833Y-174836615D01*
X147055835Y-174836616D01*
X147227973Y-174951635D01*
X147374365Y-175098027D01*
X147489385Y-175270167D01*
X147568611Y-175461436D01*
X147609000Y-175664484D01*
X147609000Y-175871516D01*
X147568611Y-176074564D01*
X147489385Y-176265833D01*
X147489384Y-176265835D01*
X147374365Y-176437973D01*
X147227973Y-176584365D01*
X147055835Y-176699384D01*
X147055834Y-176699385D01*
X147055833Y-176699385D01*
X146864564Y-176778611D01*
X146661516Y-176819000D01*
X146454484Y-176819000D01*
X146251436Y-176778611D01*
X146060167Y-176699385D01*
X146060166Y-176699385D01*
X146060165Y-176699384D01*
X145888027Y-176584365D01*
X145741635Y-176437973D01*
X145626616Y-176265835D01*
X145626615Y-176265833D01*
X145547389Y-176074564D01*
X145507000Y-175871516D01*
X145507000Y-175664484D01*
X145547389Y-175461436D01*
X145626615Y-175270167D01*
X145741635Y-175098027D01*
X145888027Y-174951635D01*
X146060165Y-174836616D01*
X146060167Y-174836615D01*
X146251436Y-174757389D01*
X146454484Y-174717000D01*
X146661516Y-174717000D01*
X146864564Y-174757389D01*
X146864564Y-174757389D01*
G37*
G36*
X283706023Y-172305036D02*
G01*
X283743716Y-172316470D01*
X283778452Y-172335037D01*
X283813665Y-172363935D01*
X284582065Y-173132335D01*
X284610963Y-173167548D01*
X284629530Y-173202284D01*
X284640964Y-173239977D01*
X284644824Y-173279172D01*
X284640964Y-173318367D01*
X284629530Y-173356060D01*
X284610963Y-173390796D01*
X284582065Y-173426009D01*
X283990441Y-174017633D01*
X283955228Y-174046531D01*
X283920492Y-174065098D01*
X283882799Y-174076532D01*
X283843604Y-174080392D01*
X283804409Y-174076532D01*
X283766716Y-174065098D01*
X283731980Y-174046531D01*
X283696767Y-174017633D01*
X282928367Y-173249233D01*
X282899469Y-173214020D01*
X282880902Y-173179284D01*
X282869468Y-173141591D01*
X282865608Y-173102396D01*
X282869468Y-173063201D01*
X282880902Y-173025508D01*
X282899469Y-172990772D01*
X282928367Y-172955559D01*
X283519991Y-172363935D01*
X283555204Y-172335037D01*
X283589940Y-172316470D01*
X283627633Y-172305036D01*
X283666828Y-172301176D01*
X283706023Y-172305036D01*
X283706023Y-172305036D01*
G37*
G36*
X285155591Y-170855468D02*
G01*
X285193284Y-170866902D01*
X285228020Y-170885469D01*
X285263233Y-170914367D01*
X286031633Y-171682767D01*
X286060531Y-171717980D01*
X286079098Y-171752716D01*
X286090532Y-171790409D01*
X286094392Y-171829604D01*
X286090532Y-171868799D01*
X286079098Y-171906492D01*
X286060531Y-171941228D01*
X286031633Y-171976441D01*
X285440009Y-172568065D01*
X285404796Y-172596963D01*
X285370060Y-172615530D01*
X285332367Y-172626964D01*
X285293172Y-172630824D01*
X285253977Y-172626964D01*
X285216284Y-172615530D01*
X285181548Y-172596963D01*
X285146335Y-172568065D01*
X284377935Y-171799665D01*
X284349037Y-171764452D01*
X284330470Y-171729716D01*
X284319036Y-171692023D01*
X284315176Y-171652828D01*
X284319036Y-171613633D01*
X284330470Y-171575940D01*
X284349037Y-171541204D01*
X284377935Y-171505991D01*
X284969559Y-170914367D01*
X285004772Y-170885469D01*
X285039508Y-170866902D01*
X285077201Y-170855468D01*
X285116396Y-170851608D01*
X285155591Y-170855468D01*
X285155591Y-170855468D01*
G37*
G36*
X312246674Y-171100465D02*
G01*
X312284367Y-171111899D01*
X312319103Y-171130466D01*
X312349548Y-171155452D01*
X312374534Y-171185897D01*
X312393101Y-171220633D01*
X312404535Y-171258326D01*
X312409000Y-171303661D01*
X312409000Y-172140339D01*
X312404535Y-172185674D01*
X312393101Y-172223367D01*
X312374534Y-172258103D01*
X312349548Y-172288548D01*
X312319103Y-172313534D01*
X312284367Y-172332101D01*
X312246674Y-172343535D01*
X312201339Y-172348000D01*
X311114661Y-172348000D01*
X311069326Y-172343535D01*
X311031633Y-172332101D01*
X310996897Y-172313534D01*
X310966452Y-172288548D01*
X310941466Y-172258103D01*
X310922899Y-172223367D01*
X310911465Y-172185674D01*
X310907000Y-172140339D01*
X310907000Y-171303661D01*
X310911465Y-171258326D01*
X310922899Y-171220633D01*
X310941466Y-171185897D01*
X310966452Y-171155452D01*
X310996897Y-171130466D01*
X311031633Y-171111899D01*
X311069326Y-171100465D01*
X311114661Y-171096000D01*
X312201339Y-171096000D01*
X312246674Y-171100465D01*
X312246674Y-171100465D01*
G37*
G36*
X300183674Y-170449465D02*
G01*
X300221367Y-170460899D01*
X300256103Y-170479466D01*
X300286548Y-170504452D01*
X300311534Y-170534897D01*
X300330101Y-170569633D01*
X300341535Y-170607326D01*
X300346000Y-170652661D01*
X300346000Y-171739339D01*
X300341535Y-171784674D01*
X300330101Y-171822367D01*
X300311534Y-171857103D01*
X300286548Y-171887548D01*
X300256103Y-171912534D01*
X300221367Y-171931101D01*
X300183674Y-171942535D01*
X300138339Y-171947000D01*
X299301661Y-171947000D01*
X299256326Y-171942535D01*
X299218633Y-171931101D01*
X299183897Y-171912534D01*
X299153452Y-171887548D01*
X299128466Y-171857103D01*
X299109899Y-171822367D01*
X299098465Y-171784674D01*
X299094000Y-171739339D01*
X299094000Y-170652661D01*
X299098465Y-170607326D01*
X299109899Y-170569633D01*
X299128466Y-170534897D01*
X299153452Y-170504452D01*
X299183897Y-170479466D01*
X299218633Y-170460899D01*
X299256326Y-170449465D01*
X299301661Y-170445000D01*
X300138339Y-170445000D01*
X300183674Y-170449465D01*
X300183674Y-170449465D01*
G37*
G36*
X298133674Y-170449465D02*
G01*
X298171367Y-170460899D01*
X298206103Y-170479466D01*
X298236548Y-170504452D01*
X298261534Y-170534897D01*
X298280101Y-170569633D01*
X298291535Y-170607326D01*
X298296000Y-170652661D01*
X298296000Y-171739339D01*
X298291535Y-171784674D01*
X298280101Y-171822367D01*
X298261534Y-171857103D01*
X298236548Y-171887548D01*
X298206103Y-171912534D01*
X298171367Y-171931101D01*
X298133674Y-171942535D01*
X298088339Y-171947000D01*
X297251661Y-171947000D01*
X297206326Y-171942535D01*
X297168633Y-171931101D01*
X297133897Y-171912534D01*
X297103452Y-171887548D01*
X297078466Y-171857103D01*
X297059899Y-171822367D01*
X297048465Y-171784674D01*
X297044000Y-171739339D01*
X297044000Y-170652661D01*
X297048465Y-170607326D01*
X297059899Y-170569633D01*
X297078466Y-170534897D01*
X297103452Y-170504452D01*
X297133897Y-170479466D01*
X297168633Y-170460899D01*
X297206326Y-170449465D01*
X297251661Y-170445000D01*
X298088339Y-170445000D01*
X298133674Y-170449465D01*
X298133674Y-170449465D01*
G37*
G36*
X312246674Y-169050465D02*
G01*
X312284367Y-169061899D01*
X312319103Y-169080466D01*
X312349548Y-169105452D01*
X312374534Y-169135897D01*
X312393101Y-169170633D01*
X312404535Y-169208326D01*
X312409000Y-169253661D01*
X312409000Y-170090339D01*
X312404535Y-170135674D01*
X312393101Y-170173367D01*
X312374534Y-170208103D01*
X312349548Y-170238548D01*
X312319103Y-170263534D01*
X312284367Y-170282101D01*
X312246674Y-170293535D01*
X312201339Y-170298000D01*
X311114661Y-170298000D01*
X311069326Y-170293535D01*
X311031633Y-170282101D01*
X310996897Y-170263534D01*
X310966452Y-170238548D01*
X310941466Y-170208103D01*
X310922899Y-170173367D01*
X310911465Y-170135674D01*
X310907000Y-170090339D01*
X310907000Y-169253661D01*
X310911465Y-169208326D01*
X310922899Y-169170633D01*
X310941466Y-169135897D01*
X310966452Y-169105452D01*
X310996897Y-169080466D01*
X311031633Y-169061899D01*
X311069326Y-169050465D01*
X311114661Y-169046000D01*
X312201339Y-169046000D01*
X312246674Y-169050465D01*
X312246674Y-169050465D01*
G37*
G36*
X288416009Y-169256601D02*
G01*
X288494627Y-169289166D01*
X288494629Y-169289167D01*
X288565384Y-169336444D01*
X288625556Y-169396616D01*
X288625557Y-169396618D01*
X288672834Y-169467373D01*
X288705399Y-169545991D01*
X288722000Y-169629450D01*
X288722000Y-169714550D01*
X288705399Y-169798009D01*
X288672834Y-169876627D01*
X288672833Y-169876629D01*
X288625556Y-169947384D01*
X288565384Y-170007556D01*
X288494629Y-170054833D01*
X288494628Y-170054834D01*
X288494627Y-170054834D01*
X288416009Y-170087399D01*
X288332550Y-170104000D01*
X288247450Y-170104000D01*
X288163991Y-170087399D01*
X288085373Y-170054834D01*
X288085372Y-170054834D01*
X288085371Y-170054833D01*
X288014616Y-170007556D01*
X287954444Y-169947384D01*
X287907167Y-169876629D01*
X287907166Y-169876627D01*
X287874601Y-169798009D01*
X287858000Y-169714550D01*
X287858000Y-169629450D01*
X287874601Y-169545991D01*
X287907166Y-169467373D01*
X287954443Y-169396618D01*
X287954444Y-169396616D01*
X288014616Y-169336444D01*
X288085371Y-169289167D01*
X288085373Y-169289166D01*
X288163991Y-169256601D01*
X288247450Y-169240000D01*
X288332550Y-169240000D01*
X288416009Y-169256601D01*
X288416009Y-169256601D01*
G37*
G36*
X283163674Y-164224465D02*
G01*
X283201367Y-164235899D01*
X283236103Y-164254466D01*
X283266548Y-164279452D01*
X283291534Y-164309897D01*
X283310101Y-164344633D01*
X283321535Y-164382326D01*
X283326000Y-164427661D01*
X283326000Y-165264339D01*
X283321535Y-165309674D01*
X283310101Y-165347367D01*
X283291534Y-165382103D01*
X283266548Y-165412548D01*
X283236103Y-165437534D01*
X283201367Y-165456101D01*
X283163674Y-165467535D01*
X283118339Y-165472000D01*
X282031661Y-165472000D01*
X281986326Y-165467535D01*
X281948633Y-165456101D01*
X281913897Y-165437534D01*
X281883452Y-165412548D01*
X281858466Y-165382103D01*
X281839899Y-165347367D01*
X281828465Y-165309674D01*
X281824000Y-165264339D01*
X281824000Y-164427661D01*
X281828465Y-164382326D01*
X281839899Y-164344633D01*
X281858466Y-164309897D01*
X281883452Y-164279452D01*
X281913897Y-164254466D01*
X281948633Y-164235899D01*
X281986326Y-164224465D01*
X282031661Y-164220000D01*
X283118339Y-164220000D01*
X283163674Y-164224465D01*
X283163674Y-164224465D01*
G37*
G36*
X307674674Y-164224465D02*
G01*
X307712367Y-164235899D01*
X307747103Y-164254466D01*
X307777548Y-164279452D01*
X307802534Y-164309897D01*
X307821101Y-164344633D01*
X307832535Y-164382326D01*
X307837000Y-164427661D01*
X307837000Y-165264339D01*
X307832535Y-165309674D01*
X307821101Y-165347367D01*
X307802534Y-165382103D01*
X307777548Y-165412548D01*
X307747103Y-165437534D01*
X307712367Y-165456101D01*
X307674674Y-165467535D01*
X307629339Y-165472000D01*
X306542661Y-165472000D01*
X306497326Y-165467535D01*
X306459633Y-165456101D01*
X306424897Y-165437534D01*
X306394452Y-165412548D01*
X306369466Y-165382103D01*
X306350899Y-165347367D01*
X306339465Y-165309674D01*
X306335000Y-165264339D01*
X306335000Y-164427661D01*
X306339465Y-164382326D01*
X306350899Y-164344633D01*
X306369466Y-164309897D01*
X306394452Y-164279452D01*
X306424897Y-164254466D01*
X306459633Y-164235899D01*
X306497326Y-164224465D01*
X306542661Y-164220000D01*
X307629339Y-164220000D01*
X307674674Y-164224465D01*
X307674674Y-164224465D01*
G37*
G36*
X302086674Y-164224465D02*
G01*
X302124367Y-164235899D01*
X302159103Y-164254466D01*
X302189548Y-164279452D01*
X302214534Y-164309897D01*
X302233101Y-164344633D01*
X302244535Y-164382326D01*
X302249000Y-164427661D01*
X302249000Y-165264339D01*
X302244535Y-165309674D01*
X302233101Y-165347367D01*
X302214534Y-165382103D01*
X302189548Y-165412548D01*
X302159103Y-165437534D01*
X302124367Y-165456101D01*
X302086674Y-165467535D01*
X302041339Y-165472000D01*
X300954661Y-165472000D01*
X300909326Y-165467535D01*
X300871633Y-165456101D01*
X300836897Y-165437534D01*
X300806452Y-165412548D01*
X300781466Y-165382103D01*
X300762899Y-165347367D01*
X300751465Y-165309674D01*
X300747000Y-165264339D01*
X300747000Y-164427661D01*
X300751465Y-164382326D01*
X300762899Y-164344633D01*
X300781466Y-164309897D01*
X300806452Y-164279452D01*
X300836897Y-164254466D01*
X300871633Y-164235899D01*
X300909326Y-164224465D01*
X300954661Y-164220000D01*
X302041339Y-164220000D01*
X302086674Y-164224465D01*
X302086674Y-164224465D01*
G37*
G36*
X288370674Y-164224465D02*
G01*
X288408367Y-164235899D01*
X288443103Y-164254466D01*
X288473548Y-164279452D01*
X288498534Y-164309897D01*
X288517101Y-164344633D01*
X288528535Y-164382326D01*
X288533000Y-164427661D01*
X288533000Y-165264339D01*
X288528535Y-165309674D01*
X288517101Y-165347367D01*
X288498534Y-165382103D01*
X288473548Y-165412548D01*
X288443103Y-165437534D01*
X288408367Y-165456101D01*
X288370674Y-165467535D01*
X288325339Y-165472000D01*
X287238661Y-165472000D01*
X287193326Y-165467535D01*
X287155633Y-165456101D01*
X287120897Y-165437534D01*
X287090452Y-165412548D01*
X287065466Y-165382103D01*
X287046899Y-165347367D01*
X287035465Y-165309674D01*
X287031000Y-165264339D01*
X287031000Y-164427661D01*
X287035465Y-164382326D01*
X287046899Y-164344633D01*
X287065466Y-164309897D01*
X287090452Y-164279452D01*
X287120897Y-164254466D01*
X287155633Y-164235899D01*
X287193326Y-164224465D01*
X287238661Y-164220000D01*
X288325339Y-164220000D01*
X288370674Y-164224465D01*
X288370674Y-164224465D01*
G37*
G36*
X299167674Y-163591465D02*
G01*
X299205367Y-163602899D01*
X299240103Y-163621466D01*
X299270548Y-163646452D01*
X299295534Y-163676897D01*
X299314101Y-163711633D01*
X299325535Y-163749326D01*
X299330000Y-163794661D01*
X299330000Y-164881339D01*
X299325535Y-164926674D01*
X299314101Y-164964367D01*
X299295534Y-164999103D01*
X299270548Y-165029548D01*
X299240103Y-165054534D01*
X299205367Y-165073101D01*
X299167674Y-165084535D01*
X299122339Y-165089000D01*
X298285661Y-165089000D01*
X298240326Y-165084535D01*
X298202633Y-165073101D01*
X298167897Y-165054534D01*
X298137452Y-165029548D01*
X298112466Y-164999103D01*
X298093899Y-164964367D01*
X298082465Y-164926674D01*
X298078000Y-164881339D01*
X298078000Y-163794661D01*
X298082465Y-163749326D01*
X298093899Y-163711633D01*
X298112466Y-163676897D01*
X298137452Y-163646452D01*
X298167897Y-163621466D01*
X298202633Y-163602899D01*
X298240326Y-163591465D01*
X298285661Y-163587000D01*
X299122339Y-163587000D01*
X299167674Y-163591465D01*
X299167674Y-163591465D01*
G37*
G36*
X297117674Y-163591465D02*
G01*
X297155367Y-163602899D01*
X297190103Y-163621466D01*
X297220548Y-163646452D01*
X297245534Y-163676897D01*
X297264101Y-163711633D01*
X297275535Y-163749326D01*
X297280000Y-163794661D01*
X297280000Y-164881339D01*
X297275535Y-164926674D01*
X297264101Y-164964367D01*
X297245534Y-164999103D01*
X297220548Y-165029548D01*
X297190103Y-165054534D01*
X297155367Y-165073101D01*
X297117674Y-165084535D01*
X297072339Y-165089000D01*
X296235661Y-165089000D01*
X296190326Y-165084535D01*
X296152633Y-165073101D01*
X296117897Y-165054534D01*
X296087452Y-165029548D01*
X296062466Y-164999103D01*
X296043899Y-164964367D01*
X296032465Y-164926674D01*
X296028000Y-164881339D01*
X296028000Y-163794661D01*
X296032465Y-163749326D01*
X296043899Y-163711633D01*
X296062466Y-163676897D01*
X296087452Y-163646452D01*
X296117897Y-163621466D01*
X296152633Y-163602899D01*
X296190326Y-163591465D01*
X296235661Y-163587000D01*
X297072339Y-163587000D01*
X297117674Y-163591465D01*
X297117674Y-163591465D01*
G37*
G36*
X291293674Y-163591465D02*
G01*
X291331367Y-163602899D01*
X291366103Y-163621466D01*
X291396548Y-163646452D01*
X291421534Y-163676897D01*
X291440101Y-163711633D01*
X291451535Y-163749326D01*
X291456000Y-163794661D01*
X291456000Y-164881339D01*
X291451535Y-164926674D01*
X291440101Y-164964367D01*
X291421534Y-164999103D01*
X291396548Y-165029548D01*
X291366103Y-165054534D01*
X291331367Y-165073101D01*
X291293674Y-165084535D01*
X291248339Y-165089000D01*
X290411661Y-165089000D01*
X290366326Y-165084535D01*
X290328633Y-165073101D01*
X290293897Y-165054534D01*
X290263452Y-165029548D01*
X290238466Y-164999103D01*
X290219899Y-164964367D01*
X290208465Y-164926674D01*
X290204000Y-164881339D01*
X290204000Y-163794661D01*
X290208465Y-163749326D01*
X290219899Y-163711633D01*
X290238466Y-163676897D01*
X290263452Y-163646452D01*
X290293897Y-163621466D01*
X290328633Y-163602899D01*
X290366326Y-163591465D01*
X290411661Y-163587000D01*
X291248339Y-163587000D01*
X291293674Y-163591465D01*
X291293674Y-163591465D01*
G37*
G36*
X293343674Y-163591465D02*
G01*
X293381367Y-163602899D01*
X293416103Y-163621466D01*
X293446548Y-163646452D01*
X293471534Y-163676897D01*
X293490101Y-163711633D01*
X293501535Y-163749326D01*
X293506000Y-163794661D01*
X293506000Y-164881339D01*
X293501535Y-164926674D01*
X293490101Y-164964367D01*
X293471534Y-164999103D01*
X293446548Y-165029548D01*
X293416103Y-165054534D01*
X293381367Y-165073101D01*
X293343674Y-165084535D01*
X293298339Y-165089000D01*
X292461661Y-165089000D01*
X292416326Y-165084535D01*
X292378633Y-165073101D01*
X292343897Y-165054534D01*
X292313452Y-165029548D01*
X292288466Y-164999103D01*
X292269899Y-164964367D01*
X292258465Y-164926674D01*
X292254000Y-164881339D01*
X292254000Y-163794661D01*
X292258465Y-163749326D01*
X292269899Y-163711633D01*
X292288466Y-163676897D01*
X292313452Y-163646452D01*
X292343897Y-163621466D01*
X292378633Y-163602899D01*
X292416326Y-163591465D01*
X292461661Y-163587000D01*
X293298339Y-163587000D01*
X293343674Y-163591465D01*
X293343674Y-163591465D01*
G37*
G36*
X307674674Y-162174465D02*
G01*
X307712367Y-162185899D01*
X307747103Y-162204466D01*
X307777548Y-162229452D01*
X307802534Y-162259897D01*
X307821101Y-162294633D01*
X307832535Y-162332326D01*
X307837000Y-162377661D01*
X307837000Y-163214339D01*
X307832535Y-163259674D01*
X307821101Y-163297367D01*
X307802534Y-163332103D01*
X307777548Y-163362548D01*
X307747103Y-163387534D01*
X307712367Y-163406101D01*
X307674674Y-163417535D01*
X307629339Y-163422000D01*
X306542661Y-163422000D01*
X306497326Y-163417535D01*
X306459633Y-163406101D01*
X306424897Y-163387534D01*
X306394452Y-163362548D01*
X306369466Y-163332103D01*
X306350899Y-163297367D01*
X306339465Y-163259674D01*
X306335000Y-163214339D01*
X306335000Y-162377661D01*
X306339465Y-162332326D01*
X306350899Y-162294633D01*
X306369466Y-162259897D01*
X306394452Y-162229452D01*
X306424897Y-162204466D01*
X306459633Y-162185899D01*
X306497326Y-162174465D01*
X306542661Y-162170000D01*
X307629339Y-162170000D01*
X307674674Y-162174465D01*
X307674674Y-162174465D01*
G37*
G36*
X283163674Y-162174465D02*
G01*
X283201367Y-162185899D01*
X283236103Y-162204466D01*
X283266548Y-162229452D01*
X283291534Y-162259897D01*
X283310101Y-162294633D01*
X283321535Y-162332326D01*
X283326000Y-162377661D01*
X283326000Y-163214339D01*
X283321535Y-163259674D01*
X283310101Y-163297367D01*
X283291534Y-163332103D01*
X283266548Y-163362548D01*
X283236103Y-163387534D01*
X283201367Y-163406101D01*
X283163674Y-163417535D01*
X283118339Y-163422000D01*
X282031661Y-163422000D01*
X281986326Y-163417535D01*
X281948633Y-163406101D01*
X281913897Y-163387534D01*
X281883452Y-163362548D01*
X281858466Y-163332103D01*
X281839899Y-163297367D01*
X281828465Y-163259674D01*
X281824000Y-163214339D01*
X281824000Y-162377661D01*
X281828465Y-162332326D01*
X281839899Y-162294633D01*
X281858466Y-162259897D01*
X281883452Y-162229452D01*
X281913897Y-162204466D01*
X281948633Y-162185899D01*
X281986326Y-162174465D01*
X282031661Y-162170000D01*
X283118339Y-162170000D01*
X283163674Y-162174465D01*
X283163674Y-162174465D01*
G37*
G36*
X288370674Y-162174465D02*
G01*
X288408367Y-162185899D01*
X288443103Y-162204466D01*
X288473548Y-162229452D01*
X288498534Y-162259897D01*
X288517101Y-162294633D01*
X288528535Y-162332326D01*
X288533000Y-162377661D01*
X288533000Y-163214339D01*
X288528535Y-163259674D01*
X288517101Y-163297367D01*
X288498534Y-163332103D01*
X288473548Y-163362548D01*
X288443103Y-163387534D01*
X288408367Y-163406101D01*
X288370674Y-163417535D01*
X288325339Y-163422000D01*
X287238661Y-163422000D01*
X287193326Y-163417535D01*
X287155633Y-163406101D01*
X287120897Y-163387534D01*
X287090452Y-163362548D01*
X287065466Y-163332103D01*
X287046899Y-163297367D01*
X287035465Y-163259674D01*
X287031000Y-163214339D01*
X287031000Y-162377661D01*
X287035465Y-162332326D01*
X287046899Y-162294633D01*
X287065466Y-162259897D01*
X287090452Y-162229452D01*
X287120897Y-162204466D01*
X287155633Y-162185899D01*
X287193326Y-162174465D01*
X287238661Y-162170000D01*
X288325339Y-162170000D01*
X288370674Y-162174465D01*
X288370674Y-162174465D01*
G37*
G36*
X302086674Y-162174465D02*
G01*
X302124367Y-162185899D01*
X302159103Y-162204466D01*
X302189548Y-162229452D01*
X302214534Y-162259897D01*
X302233101Y-162294633D01*
X302244535Y-162332326D01*
X302249000Y-162377661D01*
X302249000Y-163214339D01*
X302244535Y-163259674D01*
X302233101Y-163297367D01*
X302214534Y-163332103D01*
X302189548Y-163362548D01*
X302159103Y-163387534D01*
X302124367Y-163406101D01*
X302086674Y-163417535D01*
X302041339Y-163422000D01*
X300954661Y-163422000D01*
X300909326Y-163417535D01*
X300871633Y-163406101D01*
X300836897Y-163387534D01*
X300806452Y-163362548D01*
X300781466Y-163332103D01*
X300762899Y-163297367D01*
X300751465Y-163259674D01*
X300747000Y-163214339D01*
X300747000Y-162377661D01*
X300751465Y-162332326D01*
X300762899Y-162294633D01*
X300781466Y-162259897D01*
X300806452Y-162229452D01*
X300836897Y-162204466D01*
X300871633Y-162185899D01*
X300909326Y-162174465D01*
X300954661Y-162170000D01*
X302041339Y-162170000D01*
X302086674Y-162174465D01*
X302086674Y-162174465D01*
G37*
G36*
X294766009Y-158588601D02*
G01*
X294844627Y-158621166D01*
X294844629Y-158621167D01*
X294915384Y-158668444D01*
X294975556Y-158728616D01*
X294975557Y-158728618D01*
X295022834Y-158799373D01*
X295055399Y-158877991D01*
X295072000Y-158961450D01*
X295072000Y-159046550D01*
X295055399Y-159130009D01*
X295036794Y-159174925D01*
X295022833Y-159208629D01*
X294975556Y-159279384D01*
X294915384Y-159339556D01*
X294844629Y-159386833D01*
X294844628Y-159386834D01*
X294844627Y-159386834D01*
X294766009Y-159419399D01*
X294682550Y-159436000D01*
X294597450Y-159436000D01*
X294513991Y-159419399D01*
X294435373Y-159386834D01*
X294435372Y-159386834D01*
X294435371Y-159386833D01*
X294364616Y-159339556D01*
X294304444Y-159279384D01*
X294257167Y-159208629D01*
X294243206Y-159174925D01*
X294224601Y-159130009D01*
X294208000Y-159046550D01*
X294208000Y-158961450D01*
X294224601Y-158877991D01*
X294257166Y-158799373D01*
X294304443Y-158728618D01*
X294304444Y-158728616D01*
X294364616Y-158668444D01*
X294435371Y-158621167D01*
X294435373Y-158621166D01*
X294513991Y-158588601D01*
X294597450Y-158572000D01*
X294682550Y-158572000D01*
X294766009Y-158588601D01*
X294766009Y-158588601D01*
G37*
G36*
X307674674Y-158146465D02*
G01*
X307712367Y-158157899D01*
X307747103Y-158176466D01*
X307777548Y-158201452D01*
X307802534Y-158231897D01*
X307821101Y-158266633D01*
X307832535Y-158304326D01*
X307837000Y-158349661D01*
X307837000Y-159186339D01*
X307832535Y-159231674D01*
X307821101Y-159269367D01*
X307802534Y-159304103D01*
X307777548Y-159334548D01*
X307747103Y-159359534D01*
X307712367Y-159378101D01*
X307674674Y-159389535D01*
X307629339Y-159394000D01*
X306542661Y-159394000D01*
X306497326Y-159389535D01*
X306459633Y-159378101D01*
X306424897Y-159359534D01*
X306394452Y-159334548D01*
X306369466Y-159304103D01*
X306350899Y-159269367D01*
X306339465Y-159231674D01*
X306335000Y-159186339D01*
X306335000Y-158349661D01*
X306339465Y-158304326D01*
X306350899Y-158266633D01*
X306369466Y-158231897D01*
X306394452Y-158201452D01*
X306424897Y-158176466D01*
X306459633Y-158157899D01*
X306497326Y-158146465D01*
X306542661Y-158142000D01*
X307629339Y-158142000D01*
X307674674Y-158146465D01*
X307674674Y-158146465D01*
G37*
G36*
X302086674Y-158146465D02*
G01*
X302124367Y-158157899D01*
X302159103Y-158176466D01*
X302189548Y-158201452D01*
X302214534Y-158231897D01*
X302233101Y-158266633D01*
X302244535Y-158304326D01*
X302249000Y-158349661D01*
X302249000Y-159186339D01*
X302244535Y-159231674D01*
X302233101Y-159269367D01*
X302214534Y-159304103D01*
X302189548Y-159334548D01*
X302159103Y-159359534D01*
X302124367Y-159378101D01*
X302086674Y-159389535D01*
X302041339Y-159394000D01*
X300954661Y-159394000D01*
X300909326Y-159389535D01*
X300871633Y-159378101D01*
X300836897Y-159359534D01*
X300806452Y-159334548D01*
X300781466Y-159304103D01*
X300762899Y-159269367D01*
X300751465Y-159231674D01*
X300747000Y-159186339D01*
X300747000Y-158349661D01*
X300751465Y-158304326D01*
X300762899Y-158266633D01*
X300781466Y-158231897D01*
X300806452Y-158201452D01*
X300836897Y-158176466D01*
X300871633Y-158157899D01*
X300909326Y-158146465D01*
X300954661Y-158142000D01*
X302041339Y-158142000D01*
X302086674Y-158146465D01*
X302086674Y-158146465D01*
G37*
G36*
X288370674Y-158146465D02*
G01*
X288408367Y-158157899D01*
X288443103Y-158176466D01*
X288473548Y-158201452D01*
X288498534Y-158231897D01*
X288517101Y-158266633D01*
X288528535Y-158304326D01*
X288533000Y-158349661D01*
X288533000Y-159186339D01*
X288528535Y-159231674D01*
X288517101Y-159269367D01*
X288498534Y-159304103D01*
X288473548Y-159334548D01*
X288443103Y-159359534D01*
X288408367Y-159378101D01*
X288370674Y-159389535D01*
X288325339Y-159394000D01*
X287238661Y-159394000D01*
X287193326Y-159389535D01*
X287155633Y-159378101D01*
X287120897Y-159359534D01*
X287090452Y-159334548D01*
X287065466Y-159304103D01*
X287046899Y-159269367D01*
X287035465Y-159231674D01*
X287031000Y-159186339D01*
X287031000Y-158349661D01*
X287035465Y-158304326D01*
X287046899Y-158266633D01*
X287065466Y-158231897D01*
X287090452Y-158201452D01*
X287120897Y-158176466D01*
X287155633Y-158157899D01*
X287193326Y-158146465D01*
X287238661Y-158142000D01*
X288325339Y-158142000D01*
X288370674Y-158146465D01*
X288370674Y-158146465D01*
G37*
G36*
X283163674Y-158146465D02*
G01*
X283201367Y-158157899D01*
X283236103Y-158176466D01*
X283266548Y-158201452D01*
X283291534Y-158231897D01*
X283310101Y-158266633D01*
X283321535Y-158304326D01*
X283326000Y-158349661D01*
X283326000Y-159186339D01*
X283321535Y-159231674D01*
X283310101Y-159269367D01*
X283291534Y-159304103D01*
X283266548Y-159334548D01*
X283236103Y-159359534D01*
X283201367Y-159378101D01*
X283163674Y-159389535D01*
X283118339Y-159394000D01*
X282031661Y-159394000D01*
X281986326Y-159389535D01*
X281948633Y-159378101D01*
X281913897Y-159359534D01*
X281883452Y-159334548D01*
X281858466Y-159304103D01*
X281839899Y-159269367D01*
X281828465Y-159231674D01*
X281824000Y-159186339D01*
X281824000Y-158349661D01*
X281828465Y-158304326D01*
X281839899Y-158266633D01*
X281858466Y-158231897D01*
X281883452Y-158201452D01*
X281913897Y-158176466D01*
X281948633Y-158157899D01*
X281986326Y-158146465D01*
X282031661Y-158142000D01*
X283118339Y-158142000D01*
X283163674Y-158146465D01*
X283163674Y-158146465D01*
G37*
G36*
X307674674Y-156096465D02*
G01*
X307712367Y-156107899D01*
X307747103Y-156126466D01*
X307777548Y-156151452D01*
X307802534Y-156181897D01*
X307821101Y-156216633D01*
X307832535Y-156254326D01*
X307837000Y-156299661D01*
X307837000Y-157136339D01*
X307832535Y-157181674D01*
X307821101Y-157219367D01*
X307802534Y-157254103D01*
X307777548Y-157284548D01*
X307747103Y-157309534D01*
X307712367Y-157328101D01*
X307674674Y-157339535D01*
X307629339Y-157344000D01*
X306542661Y-157344000D01*
X306497326Y-157339535D01*
X306459633Y-157328101D01*
X306424897Y-157309534D01*
X306394452Y-157284548D01*
X306369466Y-157254103D01*
X306350899Y-157219367D01*
X306339465Y-157181674D01*
X306335000Y-157136339D01*
X306335000Y-156299661D01*
X306339465Y-156254326D01*
X306350899Y-156216633D01*
X306369466Y-156181897D01*
X306394452Y-156151452D01*
X306424897Y-156126466D01*
X306459633Y-156107899D01*
X306497326Y-156096465D01*
X306542661Y-156092000D01*
X307629339Y-156092000D01*
X307674674Y-156096465D01*
X307674674Y-156096465D01*
G37*
G36*
X302086674Y-156096465D02*
G01*
X302124367Y-156107899D01*
X302159103Y-156126466D01*
X302189548Y-156151452D01*
X302214534Y-156181897D01*
X302233101Y-156216633D01*
X302244535Y-156254326D01*
X302249000Y-156299661D01*
X302249000Y-157136339D01*
X302244535Y-157181674D01*
X302233101Y-157219367D01*
X302214534Y-157254103D01*
X302189548Y-157284548D01*
X302159103Y-157309534D01*
X302124367Y-157328101D01*
X302086674Y-157339535D01*
X302041339Y-157344000D01*
X300954661Y-157344000D01*
X300909326Y-157339535D01*
X300871633Y-157328101D01*
X300836897Y-157309534D01*
X300806452Y-157284548D01*
X300781466Y-157254103D01*
X300762899Y-157219367D01*
X300751465Y-157181674D01*
X300747000Y-157136339D01*
X300747000Y-156299661D01*
X300751465Y-156254326D01*
X300762899Y-156216633D01*
X300781466Y-156181897D01*
X300806452Y-156151452D01*
X300836897Y-156126466D01*
X300871633Y-156107899D01*
X300909326Y-156096465D01*
X300954661Y-156092000D01*
X302041339Y-156092000D01*
X302086674Y-156096465D01*
X302086674Y-156096465D01*
G37*
G36*
X288370674Y-156096465D02*
G01*
X288408367Y-156107899D01*
X288443103Y-156126466D01*
X288473548Y-156151452D01*
X288498534Y-156181897D01*
X288517101Y-156216633D01*
X288528535Y-156254326D01*
X288533000Y-156299661D01*
X288533000Y-157136339D01*
X288528535Y-157181674D01*
X288517101Y-157219367D01*
X288498534Y-157254103D01*
X288473548Y-157284548D01*
X288443103Y-157309534D01*
X288408367Y-157328101D01*
X288370674Y-157339535D01*
X288325339Y-157344000D01*
X287238661Y-157344000D01*
X287193326Y-157339535D01*
X287155633Y-157328101D01*
X287120897Y-157309534D01*
X287090452Y-157284548D01*
X287065466Y-157254103D01*
X287046899Y-157219367D01*
X287035465Y-157181674D01*
X287031000Y-157136339D01*
X287031000Y-156299661D01*
X287035465Y-156254326D01*
X287046899Y-156216633D01*
X287065466Y-156181897D01*
X287090452Y-156151452D01*
X287120897Y-156126466D01*
X287155633Y-156107899D01*
X287193326Y-156096465D01*
X287238661Y-156092000D01*
X288325339Y-156092000D01*
X288370674Y-156096465D01*
X288370674Y-156096465D01*
G37*
G36*
X283163674Y-156096465D02*
G01*
X283201367Y-156107899D01*
X283236103Y-156126466D01*
X283266548Y-156151452D01*
X283291534Y-156181897D01*
X283310101Y-156216633D01*
X283321535Y-156254326D01*
X283326000Y-156299661D01*
X283326000Y-157136339D01*
X283321535Y-157181674D01*
X283310101Y-157219367D01*
X283291534Y-157254103D01*
X283266548Y-157284548D01*
X283236103Y-157309534D01*
X283201367Y-157328101D01*
X283163674Y-157339535D01*
X283118339Y-157344000D01*
X282031661Y-157344000D01*
X281986326Y-157339535D01*
X281948633Y-157328101D01*
X281913897Y-157309534D01*
X281883452Y-157284548D01*
X281858466Y-157254103D01*
X281839899Y-157219367D01*
X281828465Y-157181674D01*
X281824000Y-157136339D01*
X281824000Y-156299661D01*
X281828465Y-156254326D01*
X281839899Y-156216633D01*
X281858466Y-156181897D01*
X281883452Y-156151452D01*
X281913897Y-156126466D01*
X281948633Y-156107899D01*
X281986326Y-156096465D01*
X282031661Y-156092000D01*
X283118339Y-156092000D01*
X283163674Y-156096465D01*
X283163674Y-156096465D01*
G37*
G36*
X310089674Y-147335465D02*
G01*
X310127367Y-147346899D01*
X310162103Y-147365466D01*
X310192548Y-147390452D01*
X310217534Y-147420897D01*
X310236101Y-147455633D01*
X310247535Y-147493326D01*
X310252000Y-147538661D01*
X310252000Y-148625339D01*
X310247535Y-148670674D01*
X310236101Y-148708367D01*
X310217534Y-148743103D01*
X310192548Y-148773548D01*
X310162103Y-148798534D01*
X310127367Y-148817101D01*
X310089674Y-148828535D01*
X310044339Y-148833000D01*
X309207661Y-148833000D01*
X309162326Y-148828535D01*
X309124633Y-148817101D01*
X309089897Y-148798534D01*
X309059452Y-148773548D01*
X309034466Y-148743103D01*
X309015899Y-148708367D01*
X309004465Y-148670674D01*
X309000000Y-148625339D01*
X309000000Y-147538661D01*
X309004465Y-147493326D01*
X309015899Y-147455633D01*
X309034466Y-147420897D01*
X309059452Y-147390452D01*
X309089897Y-147365466D01*
X309124633Y-147346899D01*
X309162326Y-147335465D01*
X309207661Y-147331000D01*
X310044339Y-147331000D01*
X310089674Y-147335465D01*
X310089674Y-147335465D01*
G37*
G36*
X312139674Y-147335465D02*
G01*
X312177367Y-147346899D01*
X312212103Y-147365466D01*
X312242548Y-147390452D01*
X312267534Y-147420897D01*
X312286101Y-147455633D01*
X312297535Y-147493326D01*
X312302000Y-147538661D01*
X312302000Y-148625339D01*
X312297535Y-148670674D01*
X312286101Y-148708367D01*
X312267534Y-148743103D01*
X312242548Y-148773548D01*
X312212103Y-148798534D01*
X312177367Y-148817101D01*
X312139674Y-148828535D01*
X312094339Y-148833000D01*
X311257661Y-148833000D01*
X311212326Y-148828535D01*
X311174633Y-148817101D01*
X311139897Y-148798534D01*
X311109452Y-148773548D01*
X311084466Y-148743103D01*
X311065899Y-148708367D01*
X311054465Y-148670674D01*
X311050000Y-148625339D01*
X311050000Y-147538661D01*
X311054465Y-147493326D01*
X311065899Y-147455633D01*
X311084466Y-147420897D01*
X311109452Y-147390452D01*
X311139897Y-147365466D01*
X311174633Y-147346899D01*
X311212326Y-147335465D01*
X311257661Y-147331000D01*
X312094339Y-147331000D01*
X312139674Y-147335465D01*
X312139674Y-147335465D01*
G37*
G36*
X299546674Y-144176465D02*
G01*
X299584367Y-144187899D01*
X299619103Y-144206466D01*
X299649548Y-144231452D01*
X299674534Y-144261897D01*
X299693101Y-144296633D01*
X299704535Y-144334326D01*
X299709000Y-144379661D01*
X299709000Y-145216339D01*
X299704535Y-145261674D01*
X299693101Y-145299367D01*
X299674534Y-145334103D01*
X299649548Y-145364548D01*
X299619103Y-145389534D01*
X299584367Y-145408101D01*
X299546674Y-145419535D01*
X299501339Y-145424000D01*
X298414661Y-145424000D01*
X298369326Y-145419535D01*
X298331633Y-145408101D01*
X298296897Y-145389534D01*
X298266452Y-145364548D01*
X298241466Y-145334103D01*
X298222899Y-145299367D01*
X298211465Y-145261674D01*
X298207000Y-145216339D01*
X298207000Y-144379661D01*
X298211465Y-144334326D01*
X298222899Y-144296633D01*
X298241466Y-144261897D01*
X298266452Y-144231452D01*
X298296897Y-144206466D01*
X298331633Y-144187899D01*
X298369326Y-144176465D01*
X298414661Y-144172000D01*
X299501339Y-144172000D01*
X299546674Y-144176465D01*
X299546674Y-144176465D01*
G37*
G36*
X299546674Y-142126465D02*
G01*
X299584367Y-142137899D01*
X299619103Y-142156466D01*
X299649548Y-142181452D01*
X299674534Y-142211897D01*
X299693101Y-142246633D01*
X299704535Y-142284326D01*
X299709000Y-142329661D01*
X299709000Y-143166339D01*
X299704535Y-143211674D01*
X299693101Y-143249367D01*
X299674534Y-143284103D01*
X299649548Y-143314548D01*
X299619103Y-143339534D01*
X299584367Y-143358101D01*
X299546674Y-143369535D01*
X299501339Y-143374000D01*
X298414661Y-143374000D01*
X298369326Y-143369535D01*
X298331633Y-143358101D01*
X298296897Y-143339534D01*
X298266452Y-143314548D01*
X298241466Y-143284103D01*
X298222899Y-143249367D01*
X298211465Y-143211674D01*
X298207000Y-143166339D01*
X298207000Y-142329661D01*
X298211465Y-142284326D01*
X298222899Y-142246633D01*
X298241466Y-142211897D01*
X298266452Y-142181452D01*
X298296897Y-142156466D01*
X298331633Y-142137899D01*
X298369326Y-142126465D01*
X298414661Y-142122000D01*
X299501339Y-142122000D01*
X299546674Y-142126465D01*
X299546674Y-142126465D01*
G37*
G36*
X409666674Y-110505465D02*
G01*
X409704367Y-110516899D01*
X409739103Y-110535466D01*
X409769548Y-110560452D01*
X409794534Y-110590897D01*
X409813101Y-110625633D01*
X409824535Y-110663326D01*
X409829000Y-110708661D01*
X409829000Y-111795339D01*
X409824535Y-111840674D01*
X409813101Y-111878367D01*
X409794534Y-111913103D01*
X409769548Y-111943548D01*
X409739103Y-111968534D01*
X409704367Y-111987101D01*
X409666674Y-111998535D01*
X409621339Y-112003000D01*
X408784661Y-112003000D01*
X408739326Y-111998535D01*
X408701633Y-111987101D01*
X408666897Y-111968534D01*
X408636452Y-111943548D01*
X408611466Y-111913103D01*
X408592899Y-111878367D01*
X408581465Y-111840674D01*
X408577000Y-111795339D01*
X408577000Y-110708661D01*
X408581465Y-110663326D01*
X408592899Y-110625633D01*
X408611466Y-110590897D01*
X408636452Y-110560452D01*
X408666897Y-110535466D01*
X408701633Y-110516899D01*
X408739326Y-110505465D01*
X408784661Y-110501000D01*
X409621339Y-110501000D01*
X409666674Y-110505465D01*
X409666674Y-110505465D01*
G37*
G36*
X407616674Y-110505465D02*
G01*
X407654367Y-110516899D01*
X407689103Y-110535466D01*
X407719548Y-110560452D01*
X407744534Y-110590897D01*
X407763101Y-110625633D01*
X407774535Y-110663326D01*
X407779000Y-110708661D01*
X407779000Y-111795339D01*
X407774535Y-111840674D01*
X407763101Y-111878367D01*
X407744534Y-111913103D01*
X407719548Y-111943548D01*
X407689103Y-111968534D01*
X407654367Y-111987101D01*
X407616674Y-111998535D01*
X407571339Y-112003000D01*
X406734661Y-112003000D01*
X406689326Y-111998535D01*
X406651633Y-111987101D01*
X406616897Y-111968534D01*
X406586452Y-111943548D01*
X406561466Y-111913103D01*
X406542899Y-111878367D01*
X406531465Y-111840674D01*
X406527000Y-111795339D01*
X406527000Y-110708661D01*
X406531465Y-110663326D01*
X406542899Y-110625633D01*
X406561466Y-110590897D01*
X406586452Y-110560452D01*
X406616897Y-110535466D01*
X406651633Y-110516899D01*
X406689326Y-110505465D01*
X406734661Y-110501000D01*
X407571339Y-110501000D01*
X407616674Y-110505465D01*
X407616674Y-110505465D01*
G37*
G36*
X408812009Y-107788601D02*
G01*
X408890627Y-107821166D01*
X408890629Y-107821167D01*
X408961384Y-107868444D01*
X409021556Y-107928616D01*
X409021557Y-107928618D01*
X409068834Y-107999373D01*
X409101399Y-108077991D01*
X409118000Y-108161450D01*
X409118000Y-108246550D01*
X409101399Y-108330009D01*
X409068834Y-108408627D01*
X409068833Y-108408629D01*
X409021556Y-108479384D01*
X408961384Y-108539556D01*
X408890629Y-108586833D01*
X408890628Y-108586834D01*
X408890627Y-108586834D01*
X408812009Y-108619399D01*
X408728550Y-108636000D01*
X408643450Y-108636000D01*
X408559991Y-108619399D01*
X408481373Y-108586834D01*
X408481372Y-108586834D01*
X408481371Y-108586833D01*
X408410616Y-108539556D01*
X408350444Y-108479384D01*
X408303167Y-108408629D01*
X408303166Y-108408627D01*
X408270601Y-108330009D01*
X408254000Y-108246550D01*
X408254000Y-108161450D01*
X408270601Y-108077991D01*
X408303166Y-107999373D01*
X408350443Y-107928618D01*
X408350444Y-107928616D01*
X408410616Y-107868444D01*
X408481371Y-107821167D01*
X408481373Y-107821166D01*
X408559991Y-107788601D01*
X408643450Y-107772000D01*
X408728550Y-107772000D01*
X408812009Y-107788601D01*
X408812009Y-107788601D01*
G37*
G36*
X406600674Y-105933465D02*
G01*
X406638367Y-105944899D01*
X406673103Y-105963466D01*
X406703548Y-105988452D01*
X406728534Y-106018897D01*
X406747101Y-106053633D01*
X406758535Y-106091326D01*
X406763000Y-106136661D01*
X406763000Y-107223339D01*
X406758535Y-107268674D01*
X406747101Y-107306367D01*
X406728534Y-107341103D01*
X406703548Y-107371548D01*
X406673103Y-107396534D01*
X406638367Y-107415101D01*
X406600674Y-107426535D01*
X406555339Y-107431000D01*
X405718661Y-107431000D01*
X405673326Y-107426535D01*
X405635633Y-107415101D01*
X405600897Y-107396534D01*
X405570452Y-107371548D01*
X405545466Y-107341103D01*
X405526899Y-107306367D01*
X405515465Y-107268674D01*
X405511000Y-107223339D01*
X405511000Y-106136661D01*
X405515465Y-106091326D01*
X405526899Y-106053633D01*
X405545466Y-106018897D01*
X405570452Y-105988452D01*
X405600897Y-105963466D01*
X405635633Y-105944899D01*
X405673326Y-105933465D01*
X405718661Y-105929000D01*
X406555339Y-105929000D01*
X406600674Y-105933465D01*
X406600674Y-105933465D01*
G37*
G36*
X408650674Y-105933465D02*
G01*
X408688367Y-105944899D01*
X408723103Y-105963466D01*
X408753548Y-105988452D01*
X408778534Y-106018897D01*
X408797101Y-106053633D01*
X408808535Y-106091326D01*
X408813000Y-106136661D01*
X408813000Y-107223339D01*
X408808535Y-107268674D01*
X408797101Y-107306367D01*
X408778534Y-107341103D01*
X408753548Y-107371548D01*
X408723103Y-107396534D01*
X408688367Y-107415101D01*
X408650674Y-107426535D01*
X408605339Y-107431000D01*
X407768661Y-107431000D01*
X407723326Y-107426535D01*
X407685633Y-107415101D01*
X407650897Y-107396534D01*
X407620452Y-107371548D01*
X407595466Y-107341103D01*
X407576899Y-107306367D01*
X407565465Y-107268674D01*
X407561000Y-107223339D01*
X407561000Y-106136661D01*
X407565465Y-106091326D01*
X407576899Y-106053633D01*
X407595466Y-106018897D01*
X407620452Y-105988452D01*
X407650897Y-105963466D01*
X407685633Y-105944899D01*
X407723326Y-105933465D01*
X407768661Y-105929000D01*
X408605339Y-105929000D01*
X408650674Y-105933465D01*
X408650674Y-105933465D01*
G37*
G36*
X226918039Y-87572250D02*
G01*
X227107372Y-87650675D01*
X227241251Y-87706129D01*
X227532134Y-87900491D01*
X227779509Y-88147866D01*
X227973871Y-88438749D01*
X227973871Y-88438750D01*
X228107750Y-88761961D01*
X228176000Y-89105078D01*
X228176000Y-89454922D01*
X228107750Y-89798039D01*
X228077859Y-89870201D01*
X227973871Y-90121251D01*
X227779509Y-90412134D01*
X227532134Y-90659509D01*
X227241251Y-90853871D01*
X227107372Y-90909325D01*
X226918039Y-90987750D01*
X226574922Y-91056000D01*
X226225078Y-91056000D01*
X225881961Y-90987750D01*
X225692628Y-90909325D01*
X225558749Y-90853871D01*
X225267866Y-90659509D01*
X225020491Y-90412134D01*
X224826129Y-90121251D01*
X224722141Y-89870201D01*
X224692250Y-89798039D01*
X224624000Y-89454922D01*
X224624000Y-89105078D01*
X224692250Y-88761961D01*
X224826129Y-88438750D01*
X224826129Y-88438749D01*
X225020491Y-88147866D01*
X225267866Y-87900491D01*
X225558749Y-87706129D01*
X225692628Y-87650675D01*
X225881961Y-87572250D01*
X226225078Y-87504000D01*
X226574922Y-87504000D01*
X226918039Y-87572250D01*
X226918039Y-87572250D01*
G37*
G36*
X290293444Y-88081882D02*
G01*
X290520201Y-88175808D01*
X290520202Y-88175809D01*
X290724279Y-88312168D01*
X290897832Y-88485721D01*
X290988944Y-88622081D01*
X291034192Y-88689799D01*
X291128118Y-88916556D01*
X291176000Y-89157278D01*
X291176000Y-89402722D01*
X291128118Y-89643444D01*
X291034192Y-89870201D01*
X291034191Y-89870202D01*
X290897832Y-90074279D01*
X290724279Y-90247832D01*
X290587919Y-90338944D01*
X290520201Y-90384192D01*
X290293444Y-90478118D01*
X290052722Y-90526000D01*
X289807278Y-90526000D01*
X289566556Y-90478118D01*
X289339799Y-90384192D01*
X289272081Y-90338944D01*
X289135721Y-90247832D01*
X288962168Y-90074279D01*
X288825809Y-89870202D01*
X288825808Y-89870201D01*
X288731882Y-89643444D01*
X288684000Y-89402722D01*
X288684000Y-89157278D01*
X288731882Y-88916556D01*
X288825808Y-88689799D01*
X288871056Y-88622081D01*
X288962168Y-88485721D01*
X289135721Y-88312168D01*
X289339798Y-88175809D01*
X289339799Y-88175808D01*
X289566556Y-88081882D01*
X289807278Y-88034000D01*
X290052722Y-88034000D01*
X290293444Y-88081882D01*
X290293444Y-88081882D01*
G37*
G36*
X218391000Y-84506000D02*
G01*
X210949000Y-84506000D01*
X210949000Y-78054000D01*
X218391000Y-78054000D01*
X218391000Y-84506000D01*
X218391000Y-84506000D01*
G37*
G36*
X297051000Y-84506000D02*
G01*
X289609000Y-84506000D01*
X289609000Y-78054000D01*
X297051000Y-78054000D01*
X297051000Y-84506000D01*
X297051000Y-84506000D01*
G37*
G36*
X323440781Y-79533295D02*
G01*
X323476816Y-79544227D01*
X323510024Y-79561977D01*
X323539134Y-79585866D01*
X323563023Y-79614976D01*
X323580773Y-79648184D01*
X323591705Y-79684219D01*
X323596000Y-79727831D01*
X323596000Y-82832169D01*
X323591705Y-82875781D01*
X323580773Y-82911816D01*
X323563023Y-82945024D01*
X323539134Y-82974134D01*
X323510024Y-82998023D01*
X323476816Y-83015773D01*
X323440781Y-83026705D01*
X323397169Y-83031000D01*
X322392831Y-83031000D01*
X322349219Y-83026705D01*
X322313184Y-83015773D01*
X322279976Y-82998023D01*
X322250866Y-82974134D01*
X322226977Y-82945024D01*
X322209227Y-82911816D01*
X322198295Y-82875781D01*
X322194000Y-82832169D01*
X322194000Y-79727831D01*
X322198295Y-79684219D01*
X322209227Y-79648184D01*
X322226977Y-79614976D01*
X322250866Y-79585866D01*
X322279976Y-79561977D01*
X322313184Y-79544227D01*
X322349219Y-79533295D01*
X322392831Y-79529000D01*
X323397169Y-79529000D01*
X323440781Y-79533295D01*
X323440781Y-79533295D01*
G37*
G36*
X327890781Y-79533295D02*
G01*
X327926816Y-79544227D01*
X327960024Y-79561977D01*
X327989134Y-79585866D01*
X328013023Y-79614976D01*
X328030773Y-79648184D01*
X328041705Y-79684219D01*
X328046000Y-79727831D01*
X328046000Y-82832169D01*
X328041705Y-82875781D01*
X328030773Y-82911816D01*
X328013023Y-82945024D01*
X327989134Y-82974134D01*
X327960024Y-82998023D01*
X327926816Y-83015773D01*
X327890781Y-83026705D01*
X327847169Y-83031000D01*
X326842831Y-83031000D01*
X326799219Y-83026705D01*
X326763184Y-83015773D01*
X326729976Y-82998023D01*
X326700866Y-82974134D01*
X326676977Y-82945024D01*
X326659227Y-82911816D01*
X326648295Y-82875781D01*
X326644000Y-82832169D01*
X326644000Y-79727831D01*
X326648295Y-79684219D01*
X326659227Y-79648184D01*
X326676977Y-79614976D01*
X326700866Y-79585866D01*
X326729976Y-79561977D01*
X326763184Y-79544227D01*
X326799219Y-79533295D01*
X326842831Y-79529000D01*
X327847169Y-79529000D01*
X327890781Y-79533295D01*
X327890781Y-79533295D01*
G37*
G36*
X208480098Y-80620362D02*
G01*
X208604941Y-80672074D01*
X208604943Y-80672075D01*
X208717299Y-80747149D01*
X208812851Y-80842701D01*
X208887926Y-80955059D01*
X208939638Y-81079902D01*
X208966000Y-81212434D01*
X208966000Y-81347566D01*
X208939638Y-81480098D01*
X208887926Y-81604941D01*
X208887925Y-81604943D01*
X208812851Y-81717299D01*
X208717299Y-81812851D01*
X208604943Y-81887925D01*
X208604942Y-81887926D01*
X208604941Y-81887926D01*
X208480098Y-81939638D01*
X208347566Y-81966000D01*
X208212434Y-81966000D01*
X208079902Y-81939638D01*
X207955059Y-81887926D01*
X207955058Y-81887926D01*
X207955057Y-81887925D01*
X207842701Y-81812851D01*
X207747149Y-81717299D01*
X207672075Y-81604943D01*
X207672074Y-81604941D01*
X207620362Y-81480098D01*
X207594000Y-81347566D01*
X207594000Y-81212434D01*
X207620362Y-81079902D01*
X207672074Y-80955059D01*
X207747149Y-80842701D01*
X207842701Y-80747149D01*
X207955057Y-80672075D01*
X207955059Y-80672074D01*
X208079902Y-80620362D01*
X208212434Y-80594000D01*
X208347566Y-80594000D01*
X208480098Y-80620362D01*
X208480098Y-80620362D01*
G37*
G36*
X282118039Y-71572250D02*
G01*
X282307372Y-71650675D01*
X282441251Y-71706129D01*
X282732134Y-71900491D01*
X282979509Y-72147866D01*
X283173871Y-72438749D01*
X283173871Y-72438750D01*
X283307750Y-72761961D01*
X283376000Y-73105078D01*
X283376000Y-73454922D01*
X283307750Y-73798039D01*
X283229325Y-73987372D01*
X283173871Y-74121251D01*
X282979509Y-74412134D01*
X282732134Y-74659509D01*
X282441251Y-74853871D01*
X282307372Y-74909325D01*
X282118039Y-74987750D01*
X281774922Y-75056000D01*
X281425078Y-75056000D01*
X281081961Y-74987750D01*
X280892628Y-74909325D01*
X280758749Y-74853871D01*
X280467866Y-74659509D01*
X280220491Y-74412134D01*
X280026129Y-74121251D01*
X279970675Y-73987372D01*
X279892250Y-73798039D01*
X279824000Y-73454922D01*
X279824000Y-73105078D01*
X279892250Y-72761961D01*
X280026129Y-72438750D01*
X280026129Y-72438749D01*
X280220491Y-72147866D01*
X280467866Y-71900491D01*
X280758749Y-71706129D01*
X280892628Y-71650675D01*
X281081961Y-71572250D01*
X281425078Y-71504000D01*
X281774922Y-71504000D01*
X282118039Y-71572250D01*
X282118039Y-71572250D01*
G37*
G36*
X280800399Y-53803499D02*
G01*
X281674125Y-54165408D01*
X281674126Y-54165409D01*
X282460459Y-54690820D01*
X283129180Y-55359541D01*
X283480249Y-55884953D01*
X283654592Y-56145875D01*
X284016501Y-57019601D01*
X284201000Y-57947141D01*
X284201000Y-58892859D01*
X284016501Y-59820399D01*
X283654592Y-60694125D01*
X283654591Y-60694126D01*
X283129180Y-61480459D01*
X282460459Y-62149180D01*
X281935047Y-62500249D01*
X281674125Y-62674592D01*
X280800399Y-63036501D01*
X279872859Y-63221000D01*
X278927141Y-63221000D01*
X277999601Y-63036501D01*
X277125875Y-62674592D01*
X276864953Y-62500249D01*
X276339541Y-62149180D01*
X275670820Y-61480459D01*
X275145409Y-60694126D01*
X275145408Y-60694125D01*
X274783499Y-59820399D01*
X274599000Y-58892859D01*
X274599000Y-57947141D01*
X274783499Y-57019601D01*
X275145408Y-56145875D01*
X275319751Y-55884953D01*
X275670820Y-55359541D01*
X276339541Y-54690820D01*
X277125874Y-54165409D01*
X277125875Y-54165408D01*
X277999601Y-53803499D01*
X278927141Y-53619000D01*
X279872859Y-53619000D01*
X280800399Y-53803499D01*
X280800399Y-53803499D01*
G37*
G36*
X425580399Y-53803499D02*
G01*
X426454125Y-54165408D01*
X426454126Y-54165409D01*
X427240459Y-54690820D01*
X427909180Y-55359541D01*
X428260249Y-55884953D01*
X428434592Y-56145875D01*
X428796501Y-57019601D01*
X428981000Y-57947141D01*
X428981000Y-58892859D01*
X428796501Y-59820399D01*
X428434592Y-60694125D01*
X428434591Y-60694126D01*
X427909180Y-61480459D01*
X427240459Y-62149180D01*
X426715047Y-62500249D01*
X426454125Y-62674592D01*
X425580399Y-63036501D01*
X424652859Y-63221000D01*
X423707141Y-63221000D01*
X422779601Y-63036501D01*
X421905875Y-62674592D01*
X421644953Y-62500249D01*
X421119541Y-62149180D01*
X420450820Y-61480459D01*
X419925409Y-60694126D01*
X419925408Y-60694125D01*
X419563499Y-59820399D01*
X419379000Y-58892859D01*
X419379000Y-57947141D01*
X419563499Y-57019601D01*
X419925408Y-56145875D01*
X420099751Y-55884953D01*
X420450820Y-55359541D01*
X421119541Y-54690820D01*
X421905874Y-54165409D01*
X421905875Y-54165408D01*
X422779601Y-53803499D01*
X423707141Y-53619000D01*
X424652859Y-53619000D01*
X425580399Y-53803499D01*
X425580399Y-53803499D01*
G37*
G36*
X136020399Y-53803499D02*
G01*
X136894125Y-54165408D01*
X136894126Y-54165409D01*
X137680459Y-54690820D01*
X138349180Y-55359541D01*
X138700249Y-55884953D01*
X138874592Y-56145875D01*
X139236501Y-57019601D01*
X139421000Y-57947141D01*
X139421000Y-58892859D01*
X139236501Y-59820399D01*
X138874592Y-60694125D01*
X138874591Y-60694126D01*
X138349180Y-61480459D01*
X137680459Y-62149180D01*
X137155047Y-62500249D01*
X136894125Y-62674592D01*
X136020399Y-63036501D01*
X135092859Y-63221000D01*
X134147141Y-63221000D01*
X133219601Y-63036501D01*
X132345875Y-62674592D01*
X132084953Y-62500249D01*
X131559541Y-62149180D01*
X130890820Y-61480459D01*
X130365409Y-60694126D01*
X130365408Y-60694125D01*
X130003499Y-59820399D01*
X129819000Y-58892859D01*
X129819000Y-57947141D01*
X130003499Y-57019601D01*
X130365408Y-56145875D01*
X130539751Y-55884953D01*
X130890820Y-55359541D01*
X131559541Y-54690820D01*
X132345874Y-54165409D01*
X132345875Y-54165408D01*
X133219601Y-53803499D01*
X134147141Y-53619000D01*
X135092859Y-53619000D01*
X136020399Y-53803499D01*
X136020399Y-53803499D01*
G37*
M02*
